<?xml version="1.0" encoding="utf-8"?>
<!-- Generator: Adobe Illustrator 21.0.0, SVG Export Plug-In . SVG Version: 6.00 Build 0)  -->
<svg version="1.1" id="Layer_1" xmlns="http://www.w3.org/2000/svg" xmlns:xlink="http://www.w3.org/1999/xlink" x="0px" y="0px"
	 viewBox="0 0 464.9 237.8" style="enable-background:new 0 0 464.9 237.8;" xml:space="preserve">
<style type="text/css">
	.st0{fill:none;stroke:#283B44;stroke-width:0.2721;stroke-miterlimit:10;}
	.st1{fill:#283B44;}
	.st2{fill:none;stroke:#283B44;stroke-width:0.5111;stroke-miterlimit:10;}
</style>
<path class="st0" d="M354.3,30.5c-81.2,3.8-127.7,141.4-1.1,177.4"/>
<path class="st0" d="M354.3,30.5c-71.7-1.6-112.7,143-1.1,177.4"/>
<path class="st0" d="M354.3,30.5c-72.7,16.4-87.6,146.3-1.1,177.4"/>
<path class="st0" d="M354.3,30.5c-58.7,30.8-58.8,141.4-1.1,177.4C327.8,165.2,317.6,66.9,354.3,30.5
	c82.4,4.3,128.8,140.5-1.1,177.4"/>
<path class="st0" d="M354.3,30.5c65.8,0,115.9,136.5,5.7,177.3"/>
<path class="st0" d="M354.3,30.5c72.6,16.9,89.3,151.7-1.1,177.4"/>
<path class="st0" d="M354.3,30.5c54.9,28.8,61.6,149.5-1.1,177.4C390.9,176.1,384.9,67.1,354.3,30.5c-3.5,4.5,5.5,160.8-1.1,177.4
	c49.2,0,92.3-39,92.3-88.2S403.5,30.5,354.3,30.5s-86.8,40-86.8,89.2s36.6,88.2,85.8,88.2L354.3,30.5z"/>
<path class="st0" d="M330.4,34.3c7.1,8.3,30.2,13.6,45.1-1.2"/>
<path class="st0" d="M299,52.1c29,14.2,81.8,14.8,109.1-2.4"/>
<path class="st0" d="M283,70.5c27.9,13.6,107.3,20.7,141.7-6.5"/>
<path class="st0" d="M271.1,96.5c24.9,12.4,132.2,20.7,169.5-5.9"/>
<path class="st0" d="M267.6,126.2c50.4,24.3,137.5,19,176.6-8.9"/>
<path class="st0" d="M275.9,155.8c47.4,14.8,148.2,11.3,165.4-10.7"/>
<path class="st0" d="M293.1,181.9c17.8,9.5,103.3,7.8,128.8-3.5"/>
<path class="st1" d="M379.5,85.9c0.5,0.5,0,1.5,1.5,1.5c0,6.8,6.1,10.6,10.6,14.4c0.8,0.8,1.5,3.8,2.3,3.8c3.8,0,8.3-1.5,11.4-3.8
	c1.5,6.1-3,10.6-6.1,15.9c-2.3,4.6-8.4,6.8-12.1,10.6c-1.5,1.5-3,3.8-3,5.3c0.8,6.1,3,12.1,1.5,18.2c-1.5,3-6.8,3.8-9.9,6.8
	c-0.8,2.3,2.3,5.3,0.8,7.6c-1.5,0.8-4.6,1.5-4.6,3c-1.5,6.1-6.8,9.9-10.6,12.9c-3.8,3-8.3,0-12.9,2.3c-0.8,0-0.8-1.5-2.3-1.5
	c0-1.5,0.8-3,0-3.8c-2.3-6.8-3.8-13.7-6.8-21.2c0-1.5-1.5-3-1.5-4.6c-0.8-3.8,0-7.6,3-10.6c0.8-2.3-0.8-5.3-0.8-7.6
	c-0.8-1.5-3-3-3-4.6c0.8-1.5-0.8-2.3,0-3c-5.3-2.3-3-8.3-1.5-12.1c0-0.8-1.5-1.5-2.3-2.3c-1.5,1.5-3,0.8-4.6,0.8
	c0-2.3-2.3-3.8-3.8-4.6c-2.3,0-5.3,1.5-7.6,2.3c-3.8,0-6.8,0-10.6-0.8c-3,0-6.1-3.8-8.3-6.1c-2.3-3-3-6.1-4.6-9.1
	c-2.3-3,0-6.1,2.3-9.1c1.5-3,0-6.8,1.5-9.1c2.3-3,3.8-6.8,7.6-8.3c2.3-0.8,6.1-0.8,6.1-3c0.8-3.8,5.3-6.8,7.6-6.8
	c7.6-0.8,17.5-2.3,24.3,0.8c-1.5,2.3-2.3,6.1,0.8,6.8c3,0.8,3.8,2.3,6.1,3.8c0.8,0,1.5,0,2.3,0c0,0.8,0,1.5,0.8,1.5
	c3,0,0-3.8,2.3-4.6c5.3-0.8,10.6,6.8,15.2,2.3c0.8,0.8,1.5,0.8,2.3,0.8C374.9,76.1,375.7,82.2,379.5,85.9"/>
<path class="st1" d="M398.4,163.3c-1.1,2.1-0.8,4.6-3,5.3l0.8,0.8l-0.8,0.8l-0.8-0.8c-0.8,0-0.8,0.8-0.8,1.5c-0.8,0-2.3,0-2.3,0
	c-0.8-3-3-5.3-1.5-8.3c2.3-2.3,1.5-5.3,2.3-7.6c1.5-3.8,7.6-3.8,9.1-9.1c2.3,1.5,1.5,4.6,1.5,6.8c-0.8,0-1.5,0-1.5,0.8
	C402.2,157.3,399.9,160.3,398.4,163.3"/>
<polygon class="st1" points="245.2,144.6 244.7,142.4 255.4,140.1 257,147.7 255.1,148.1 254,142.7 251.5,143.2 252.6,147.9 
	250.7,148.3 249.7,143.6 "/>
<path class="st1" d="M252.6,152.2c2.9-0.9,4.2,0.5,4.5,1.6c0.4,1.2,0.2,3.1-2.7,4c-2.9,0.9-4.2-0.5-4.5-1.6
	C249.6,155,249.7,153.1,252.6,152.2 M251.9,150c-4.9,1.6-4.3,5.4-3.8,6.8c0.4,1.4,2.2,4.8,7.1,3.2s4.3-5.4,3.8-6.8
	C258.6,151.8,256.8,148.4,251.9,150z"/>
<polygon class="st1" points="263.7,165.6 264.5,167.6 254.6,172.1 253.7,170 258.9,162.7 258.9,162.7 251.8,165.9 250.9,164 
	260.9,159.5 261.9,161.7 256.7,168.7 256.7,168.8 "/>
<path class="st1" d="M264.9,172l1.1,1.9c0.5,0.8,1,2.3-1.7,3.9c-1.5,0.9-3.5,1.3-4.4-0.3l-1.1-1.9L264.9,172z M256,174.7l2.4,4.1
	c1.8,3.1,5.2,2.2,7.2,1c1.8-1,4.1-3.3,2.2-6.5l-2.4-4.2L256,174.7z"/>
<path class="st1" d="M265.7,184c-0.5,0.4-1.2,1.3-0.1,2.9c0.6,0.9,1.6,1.7,2.5,1c0.7-0.5,0.4-1.3-0.1-2.4l-0.5-1.1
	c-0.7-1.7-1.4-3.3,0.6-4.7c1-0.7,3.1-1.5,5.2,1.4c2,2.7,0.7,4.7-0.3,5.5l-1.3-1.8c0.4-0.3,1.2-1.2,0-2.8c-0.5-0.7-1.4-1.3-2.2-0.8
	c-0.7,0.5-0.4,1.2-0.2,1.6l1,2.5c0.6,1.4,0.9,2.9-0.7,4c-2.7,1.9-4.9-0.6-5.4-1.4c-2.3-3.2-0.9-5.1,0.2-5.9L265.7,184z"/>
<path class="st1" d="M272.5,197.9l-1.7-1.7l10.5-4.8l1.8,1.9l-5.2,10.4l-1.7-1.8l1.1-2.1l-2.8-2.9L272.5,197.9z M276.4,196l1.9,2
	l2.2-4l0,0L276.4,196z"/>
<polygon class="st1" points="281.4,206.5 279.7,205 286.8,196.7 292.7,201.7 291.4,203.2 287.2,199.6 285.6,201.5 289.3,204.6 
	288.1,206.1 284.4,203 "/>
<path class="st1" d="M292.7,207.7l1.7-2.4l2.3,1.6c1.1,0.8,0.8,1.6,0.5,2.1c-0.6,0.9-1.3,0.9-2.3,0.2L292.7,207.7z M287.3,211.4
	l1.8,1.3l2.4-3.5l1.9,1.3c1.4,1,1.1,1.5,0.3,2.7c-0.6,0.9-0.9,1.4-1.1,1.9l2.1,1.4l0.2-0.2c-0.3-0.4-0.1-0.8,0.8-2.1
	c1.2-1.7,1-2.2,0.4-3.1c1.1,0.3,2.2-0.2,2.9-1.2c0.5-0.8,1.3-2.8-1.1-4.5l-4.5-3.2L287.3,211.4z"/>
<rect x="295" y="212.5" transform="matrix(0.5111 -0.8595 0.8595 0.5111 -36.713 362.711)" class="st1" width="10.9" height="2.3"/>
<path class="st1" d="M310.5,216.8c0.1-0.7,0.4-1.9-1.3-2.8c-1-0.5-2.7-0.6-4.1,2.2c-0.9,1.8-1,3.7,0.8,4.5c1.1,0.6,2.2,0.3,3.1-0.8
	l2,1c-1.5,1.9-3.6,2.7-6,1.5c-2.6-1.3-3.6-4-1.9-7.4s4.6-4.2,7.1-2.9c2.9,1.5,3.1,4.1,2.5,5.6L310.5,216.8z"/>
<path class="st1" d="M318.5,218.9L318.5,218.9l-0.2,4.5l-2.6-1L318.5,218.9z M314.5,224l3.8,1.4l-0.1,2.4l2.3,0.9l0.2-11.6l-2.5-0.9
	l-7.5,8.9l2.2,0.8L314.5,224z"/>
<polygon class="st1" points="324.4,229.7 322.2,229.1 325.2,218.6 327.4,219.3 "/>
<polygon class="st1" points="335.7,221.2 337.8,221.7 335.5,232.4 333.3,231.9 330.6,223.3 330.5,223.3 328.9,230.9 326.8,230.5 
	329.1,219.8 331.5,220.3 334.1,228.7 334.1,228.7 "/>
<path class="st1" d="M345.7,224.5l2.2,0.1c1,0.1,2.5,0.4,2.3,3.6c-0.1,1.8-0.9,3.6-2.7,3.5l-2.2-0.2L345.7,224.5z M342.9,233.4
	l4.7,0.3c3.6,0.2,4.7-3.1,4.9-5.4c0.1-2.1-0.4-5.2-4.1-5.5l-4.8-0.3L342.9,233.4z"/>
<polygon class="st1" points="362.1,224.8 356.3,225 356.4,227.3 361.7,227.1 361.7,229 356.4,229.2 356.5,232 362.6,231.8 
	362.6,233.8 354.3,234 354,223.1 362,222.9 "/>
<path class="st1" d="M370.3,223.8l2.2-0.4c1-0.2,2.5-0.2,3.1,3c0.3,1.8,0,3.7-1.8,4l-2.2,0.4L370.3,223.8z M369.7,233.1l4.7-0.8
	c3.5-0.6,3.9-4.1,3.5-6.4c-0.3-2-1.6-5-5.3-4.4l-4.7,0.8L369.7,233.1z"/>
<polygon class="st1" points="386.5,220.1 380.9,221.7 381.5,223.9 386.6,222.5 387.2,224.3 382,225.7 382.8,228.5 388.6,226.8 
	389.1,228.7 381.1,230.9 378.2,220.4 386,218.3 "/>
<polygon class="st1" points="393.5,215.4 395.7,214.6 396.2,226.1 394.2,226.9 386.8,218 389.1,217.1 394.2,224 394.3,224 "/>
<polygon class="st1" points="404.7,212.2 399.5,214.8 400.6,216.9 405.3,214.5 406.2,216.2 401.4,218.6 402.7,221.1 408.1,218.4 
	409,220.1 401.6,223.9 396.7,214.1 403.9,210.5 "/>
<polygon class="st1" points="412,216 416.6,213.1 417.7,214.8 411.2,218.9 405.4,209.6 407.3,208.4 "/>
<path class="st1" d="M417.7,208.1c-1.9-2.4-1-4.1,0-4.8c1-0.8,2.8-1.2,4.7,1.2c1.9,2.4,1,4.1,0,4.8
	C421.4,210.1,419.5,210.5,417.7,208.1 M415.9,209.5c3.1,4.1,6.5,2.2,7.7,1.3c1.1-0.9,3.8-3.7,0.6-7.8c-3.1-4.1-6.5-2.2-7.7-1.3
	C415.4,202.6,412.7,205.4,415.9,209.5z"/>
<path class="st1" d="M427,199.9l-2.2-2.3l1.3-1.3c1-1,1.8-1.1,2.5-0.3c0.3,0.3,1.2,1.2-0.1,2.4L427,199.9z M428.3,201.2l1.9-1.8
	c2.1-2,0.8-4.2,0.1-4.9c-1.5-1.5-3.3-1.6-4.9-0.2l-3.6,3.4l7.5,7.9l1.7-1.6L428.3,201.2z"/>
<path class="st1" d="M434.2,192.6l-2.4-2.1l1.2-1.4c0.9-1.1,1.6-1.2,2.4-0.5c0.4,0.3,1.3,1.1,0.2,2.4L434.2,192.6z M435.6,193.8
	l1.7-2c1.9-2.2,0.4-4.3-0.4-4.9c-1.6-1.4-3.5-1.3-4.9,0.3l-3.3,3.8l8.3,7.1l1.5-1.7L435.6,193.8z"/>
<polygon class="st1" points="441.4,178.1 438.1,182.8 439.9,184.1 443,179.8 444.6,180.9 441.5,185.2 443.8,186.9 447.3,181.9 
	448.9,183.1 444.1,189.8 435.2,183.5 439.8,177 "/>
<polygon class="st1" points="455.4,171.7 454.4,173.6 446.4,169.1 446.4,169.2 453.4,175.4 452.3,177.3 443.4,174.6 443.3,174.6 
	451.3,179.1 450.3,180.9 440.7,175.6 442.4,172.7 450.8,175.2 450.8,175.2 444.3,169.3 445.9,166.4 "/>
<polygon class="st1" points="451.5,158.1 449.2,163.5 451.4,164.3 453.4,159.4 455.2,160.2 453.1,165.1 455.7,166.2 458.1,160.6 
	459.9,161.4 456.7,169 446.6,164.8 449.7,157.4 "/>
<polygon class="st1" points="452.3,149.4 452.9,147.3 463.3,150.5 462.7,152.7 453.9,154.7 453.9,154.7 461.3,157 460.7,159 
	450.3,155.8 451,153.6 459.5,151.6 459.5,151.6 "/>
<polygon class="st1" points="464.9,143.2 464.5,145.4 455.7,143.6 455,146.9 453.1,146.5 454.9,137.8 456.8,138.2 456.1,141.4 "/>
<path class="st1" d="M260.4,58.7L260.4,58.7l4.4,0.9l-1.4,2.4L260.4,58.7z M264.8,63.5l2-3.5l2.3,0.5l1.2-2.2l-11.4-2l-1.3,2.3
	l7.6,8.8l1.2-2.1L264.8,63.5z"/>
<polygon class="st1" points="272.4,55.3 271.1,57.2 262.2,50.9 266.7,44.5 268.3,45.6 265.1,50.1 267.1,51.6 269.9,47.6 271.5,48.7 
	268.7,52.7 "/>
<path class="st1" d="M273.4,43.9l-2.2-1.9l1.9-2.2c0.9-1,1.7-0.7,2.1-0.3c0.8,0.7,0.8,1.4,0,2.3L273.4,43.9z M276.5,49.6l1.5-1.7
	l-3.2-2.8l1.5-1.8c1.1-1.3,1.6-1,2.7,0c0.9,0.7,1.3,1,1.8,1.3l1.6-1.9l-0.2-0.2c-0.5,0.3-0.8,0-2-1c-1.5-1.3-2.1-1.2-3-0.8
	c0.4-1.1,0-2.2-0.9-3c-0.7-0.6-2.7-1.6-4.6,0.6l-3.6,4.2L276.5,49.6z"/>
<rect x="279.5" y="31.5" transform="matrix(0.7068 -0.7074 0.7074 0.7068 56.1278 209.376)" class="st1" width="2.3" height="10.9"/>
<path class="st1" d="M287.3,28.3c-0.6-0.4-1.6-1.1-3.1,0.1c-0.8,0.7-1.6,2.3,0.4,4.7c1.3,1.5,3,2.3,4.5,1.1c1-0.8,1.2-1.9,0.5-3.1
	l1.7-1.5c1.2,2.1,1.1,4.4-1,6.1c-2.2,1.9-5.1,1.8-7.5-1.1c-2.5-2.9-2.1-5.8,0-7.6c2.5-2.1,5-1.3,6.1-0.1L287.3,28.3z"/>
<path class="st1" d="M294,21.9L294,21.9l3.6,2.8l-2.3,1.6L294,21.9z M295.9,28.2l3.3-2.3l1.9,1.5l2-1.4l-9.4-6.8l-2.2,1.5l3,11.2
	l2-1.4L295.9,28.2z"/>
<polygon class="st1" points="305,12.4 306.9,11.4 312.1,21 310.1,22.1 302.5,17.4 302.5,17.4 306.1,24.3 304.3,25.3 299.1,15.7 
	301.2,14.5 308.6,19.1 308.7,19.1 "/>
<path class="st1" d="M317.1,9.2l2.1-0.7c0.9-0.3,2.4-0.6,3.5,2.4c0.6,1.7,0.7,3.7-1.1,4.3l-2.1,0.8L317.1,9.2z M318,18.4l4.5-1.6
	c3.4-1.2,3.1-4.7,2.3-6.9c-0.7-1.9-2.5-4.6-5.9-3.4l-4.5,1.6L318,18.4z"/>
<polygon class="st1" points="334.1,4.2 328.5,5.6 329,7.8 334.2,6.5 334.7,8.4 329.5,9.7 330.2,12.4 336,11 336.5,12.8 328.5,14.8 
	325.9,4.2 333.7,2.3 "/>
<polygon class="st1" points="343.2,0.8 345.5,0.5 343.3,11.8 341.2,12.1 336,1.8 338.5,1.5 341.9,9.3 342,9.3 "/>
<polygon class="st1" points="355.9,1.9 350.1,2.2 350.2,4.5 355.5,4.2 355.6,6.2 350.2,6.4 350.4,9.2 356.4,9 356.5,10.9 
	348.2,11.2 347.8,0.3 355.8,0 "/>
<polygon class="st1" points="360.6,9.1 366,9.4 365.9,11.3 358.2,10.9 358.8,0 361,0.2 "/>
<path class="st1" d="M370,6.3c0.5-3,2.3-3.5,3.5-3.3s2.8,1.2,2.4,4.2c-0.5,3-2.3,3.5-3.5,3.3C371.1,10.4,369.5,9.3,370,6.3 M367.7,6
	c-0.8,5.1,2.9,6.3,4.3,6.5s5.3,0.2,6.1-4.9c0.8-5.1-2.9-6.3-4.3-6.5C372.4,0.9,368.5,0.9,367.7,6z"/>
<path class="st1" d="M382.7,8.4l0.8-3.1l1.8,0.5c1.4,0.4,1.8,0.9,1.5,2c-0.1,0.5-0.4,1.6-2.1,1.2L382.7,8.4z M382.2,10.2l2.5,0.7
	c2.8,0.8,4-1.5,4.3-2.5c0.6-2.1-0.3-3.7-2.4-4.2l-4.8-1.3L379,13.4l2.2,0.6L382.2,10.2z"/>
<polygon class="st1" points="398.4,19.9 396.5,19.1 399.8,10.6 399.7,10.6 394.5,18.3 392.5,17.5 393.9,8.3 393.9,8.3 390.6,16.8 
	388.6,16 392.6,5.8 395.7,7.1 394.4,15.8 394.4,15.8 399.3,8.5 402.4,9.7 "/>
<polygon class="st1" points="411.6,16.6 406.5,13.9 405.5,15.9 410.2,18.4 409.3,20.1 404.5,17.7 403.2,20.1 408.6,23 407.7,24.7 
	400.4,20.8 405.4,11.2 412.5,14.9 "/>
<polygon class="st1" points="420.9,20.2 422.6,21.4 416.6,30.5 414.7,29.2 415.3,20.3 415.3,20.3 410.9,26.7 409.2,25.6 415.2,16.5 
	417.2,17.8 416.6,26.5 416.6,26.5 "/>
<polygon class="st1" points="421.9,34.8 420.1,33.3 425.8,26.4 423.3,24.3 424.5,22.8 431.4,28.4 430.1,29.9 427.6,27.8 "/>
<polygon class="st1" points="430,42.4 428.5,40.7 436.4,33.3 441.7,38.9 440.3,40.3 436.6,36.3 434.8,37.9 438.1,41.4 436.7,42.8 
	433.4,39.3 "/>
<path class="st1" d="M443.1,52.2c-2.3,1.7-4.3,1.1-6-1.1c-0.6-0.8-1.3-2.1-1.1-3.6c0.2-0.9,0.7-1.6,1.6-2.3l5.8-4.4l1.4,1.8
	l-5.6,4.3c-1.2,0.9-1.2,2-0.6,2.9c0.9,1.2,1.9,1.3,3,0.5l5.7-4.4l1.4,1.8L443.1,52.2z"/>
<polygon class="st1" points="454.1,56.4 455.2,58.2 445.9,63.9 444.7,61.9 449.1,54.1 449,54.1 442.4,58.1 441.3,56.3 450.6,50.6 
	451.9,52.7 447.6,60.3 447.6,60.4 "/>
<path class="st1" d="M456.1,64.1l0.9,2c0.4,0.9,0.8,2.4-2.1,3.7c-1.6,0.8-3.6,1-4.4-0.7l-0.9-2L456.1,64.1z M446.9,65.9l2,4.3
	c1.5,3.3,5,2.7,7.1,1.7c1.9-0.9,4.4-2.9,2.8-6.2l-2-4.4L446.9,65.9z"/>
<circle class="st2" cx="117.9" cy="119.9" r="117.6"/>
<path class="st1" d="M11.7,114.1l0.2-2.9c0.1-0.8,0.5-1.6,1.4-1.5c1.1,0.1,1.5,0.8,1.5,1.9l-0.2,2.8L11.7,114.1z M16.3,116.6
	l0.3-4.6c0.2-2.2-0.2-2.8-0.7-3.5c-0.5-0.6-1.3-1-2.2-1.1c-1.1-0.1-2.2,0.2-2.8,1.5c-0.2-0.5-0.6-1.4-2.1-1.5
	c-1.1-0.1-2.8,0.5-3,3.1l-0.4,5.3L16.3,116.6z M7.5,113.8l0.2-2.6c0.1-1,0.4-1.6,1.3-1.6c0.9,0.1,1.2,0.8,1.1,1.7L9.9,114L7.5,113.8
	z"/>
<path class="st1" d="M17.6,104.2l-0.4,2.4l-10-5.8l0.5-2.6L19,96.4l-0.4,2.4l-2.3,0.3l-0.7,4L17.6,104.2z M13.7,102.2l0.5-2.7
	L9.7,100l0,0L13.7,102.2z"/>
<polygon class="st1" points="10.8,85.6 11.4,83.5 21.9,86.7 21.2,88.8 12.5,90.9 12.5,90.9 19.9,93.1 19.3,95.2 8.9,92.1 9.5,89.8 
	18.1,87.8 18.1,87.7 "/>
<path class="st1" d="M21.7,79l1.4-0.6c0,0.5-0.1,0.9-0.2,1.2c-0.5,1.1-1.9,2.4-4.7,1.2c-2.8-1.2-2.8-3.1-2.4-4.2
	c0.5-1.1,1.9-2.4,4.7-1.2c0.9,0.4,1.6,0.9,2,1.4l-1.4,0.6L21.7,79z M26.1,75.2l-1.5,0.7c-0.5-0.9-1.5-1.9-3.1-2.6
	c-4.7-2-6.8,1.3-7.3,2.6c-0.6,1.3-1.5,5.1,3.2,7.1s6.8-1.3,7.3-2.6c0.2-0.6,0.6-1.7,0.4-2.9l1.6-0.7L26.1,75.2z"/>
<path class="st1" d="M28.3,64.4c2.5,1.4,2.7,3.5,1.4,5.9c-0.5,0.9-1.4,2.1-2.9,2.4c-0.9,0.2-1.8,0-2.7-0.6l-6.3-3.6l1.1-2l6.2,3.5
	c1.3,0.7,2.3,0.3,2.9-0.6c0.8-1.4,0.4-2.3-0.7-2.9L21,63l1.1-2L28.3,64.4z"/>
<polygon class="st1" points="30.1,52.6 26.7,57.4 28.6,58.7 31.7,54.3 33.3,55.5 30.2,59.8 32.5,61.4 36,56.5 37.6,57.6 32.8,64.4 
	23.9,58.1 28.5,51.5 "/>
<path class="st1" d="M38.3,44L38.3,44l4.1,2l-1.9,2L38.3,44z M41.4,49.7l2.8-2.9l2.1,1L48,46l-10.6-4.7l-1.8,1.9l5.2,10.3l1.7-1.7
	L41.4,49.7z"/>
<polygon class="st1" points="50.9,43.6 49.1,45.1 42,36.8 47.9,31.7 49.1,33.2 45,36.8 46.6,38.6 50.2,35.5 51.5,37 47.9,40.1 "/>
<path class="st1" d="M54.5,32.8l-1.7-2.4l2.3-1.6c1.1-0.8,1.8-0.2,2.1,0.3c0.6,0.9,0.4,1.5-0.6,2.2L54.5,32.8z M56.2,39.1l1.8-1.3
	l-2.5-3.5l1.9-1.4c1.4-1,1.8-0.5,2.6,0.7c0.6,0.9,1,1.3,1.5,1.7l2.1-1.4l-0.2-0.2c-0.5,0.1-0.7-0.2-1.6-1.5
	c-1.2-1.7-1.8-1.7-2.7-1.5c0.7-0.9,0.6-2.1-0.1-3.1c-0.5-0.8-2.2-2.2-4.6-0.6L50,30.1L56.2,39.1z"/>
<rect x="62.2" y="22.3" transform="matrix(0.8595 -0.5111 0.5111 0.8595 -5.2863 36.2748)" class="st1" width="2.3" height="10.9"/>
<path class="st1" d="M71.9,21c-0.5-0.5-1.3-1.4-3-0.6c-1,0.5-2.1,1.9-0.7,4.6c0.9,1.8,2.4,3,4.1,2.1c1.1-0.6,1.6-1.6,1.2-2.9l2-1
	c0.7,2.3,0,4.5-2.5,5.7c-2.6,1.3-5.3,0.5-7-2.9s-0.6-6.1,1.9-7.4c2.9-1.5,5.1,0,5.9,1.4L71.9,21z"/>
<path class="st1" d="M80,16.5L80,16.5l2.8,3.6l-2.6,1L80,16.5z M80.3,23l3.8-1.4l1.4,1.9l2.3-0.9l-7.4-8.9L78,14.6l0.1,11.6l2.3-0.8
	L80.3,23z"/>
<rect x="87.6" y="11.3" transform="matrix(0.9616 -0.2745 0.2745 0.9616 -1.1876 25.0055)" class="st1" width="2.3" height="10.9"/>
<polygon class="st1" points="97.7,9.1 99.8,8.6 102,19.3 99.8,19.8 93.8,13.1 93.8,13.1 95.4,20.7 93.3,21.1 91.1,10.4 93.4,9.9 
	99.2,16.5 99.2,16.5 "/>
<polygon class="st1" points="111,9.3 105.2,9.9 105.4,12.2 110.7,11.7 110.9,13.6 105.6,14.1 105.9,16.9 111.9,16.3 112.1,18.2 
	103.9,19.1 102.8,8.2 110.8,7.4 "/>
<path class="st1" d="M120.8,9.1l2.2,0.1c1,0,2.5,0.4,2.4,3.6c-0.1,1.8-0.8,3.6-2.6,3.6l-2.2-0.1L120.8,9.1z M118.2,18.1l4.7,0.2
	c3.6,0.2,4.7-3.2,4.8-5.5c0.1-2.1-0.5-5.2-4.2-5.4l-4.8-0.2L118.2,18.1z"/>
<polygon class="st1" points="138.3,10.9 132.5,10.1 132.2,12.4 137.5,13.1 137.2,15 131.9,14.3 131.5,17.1 137.5,17.9 137.2,19.8 
	129,18.6 130.6,7.8 138.5,9 "/>
<path class="st1" d="M147.8,13.1l2.1,0.6c0.9,0.3,2.3,1,1.4,4.1c-0.5,1.7-1.6,3.3-3.4,2.8l-2.1-0.6L147.8,13.1z M143.1,21.1l4.5,1.3
	c3.5,1,5.3-1.9,6-4.2c0.6-2,0.8-5.2-2.8-6.2l-4.6-1.4L143.1,21.1z"/>
<polygon class="st1" points="164.4,19.2 159,16.9 158.2,19.1 163.1,21.1 162.3,22.9 157.4,20.8 156.3,23.4 161.9,25.8 161.2,27.5 
	153.5,24.4 157.7,14.3 165.1,17.4 "/>
<polygon class="st1" points="173.6,21.7 175.6,22.8 167.2,30.7 165.3,29.7 167.2,18.3 169.4,19.5 167.5,27.9 167.6,27.9 "/>
<polygon class="st1" points="183.4,30.3 178.5,27 177.3,28.9 181.7,31.9 180.6,33.5 176.2,30.5 174.6,32.9 179.6,36.3 178.6,37.9 
	171.7,33.2 177.8,24.2 184.4,28.7 "/>
<polygon class="st1" points="183,38.9 187.2,42.4 186,43.9 180,39 186.9,30.6 188.7,32 "/>
<path class="st1" d="M192.3,42.4c2.2-2.2,3.9-1.5,4.8-0.6c0.9,0.9,1.5,2.6-0.6,4.8c-2.2,2.2-3.9,1.5-4.8,0.6
	C190.8,46.3,190.1,44.5,192.3,42.4 M190.7,40.7c-3.6,3.6-1.4,6.7-0.4,7.8c1,1,4.1,3.3,7.8-0.3c3.6-3.6,1.4-6.7,0.4-7.8
	C197.4,39.4,194.3,37.1,190.7,40.7z"/>
<path class="st1" d="M201.3,51.6l2.5-2L205,51c0.9,1.1,0.9,1.8,0.1,2.5c-0.4,0.3-1.3,1.1-2.4-0.3L201.3,51.6z M199.9,52.8l1.6,2
	c1.8,2.3,4.1,1.2,4.9,0.6c1.7-1.3,1.9-3.2,0.6-4.8l-3.1-3.9l-8.5,6.8l1.4,1.8L199.9,52.8z"/>
<path class="st1" d="M207.7,60.2l2.7-1.7l1,1.5c0.8,1.2,0.7,1.9-0.2,2.5c-0.4,0.3-1.4,0.9-2.4-0.5L207.7,60.2z M206.2,61.2l1.4,2.2
	c1.6,2.5,4,1.6,4.8,1c1.8-1.2,2.2-3,1.1-4.7l-2.7-4.2l-9.2,5.9l1.2,1.9L206.2,61.2z"/>
<polygon class="st1" points="218.7,73.1 216,68 214,69 216.4,73.7 214.7,74.6 212.3,69.9 209.8,71.2 212.5,76.6 210.8,77.4 
	207,70.1 216.7,65.1 220.4,72.2 "/>
<polygon class="st1" points="215.3,89 214.6,87 223.1,83.8 223.1,83.7 213.8,85 213.1,83 220.9,77.9 220.9,77.8 212.3,81.1 
	211.6,79.1 221.8,75.2 223,78.3 215.6,83.2 215.6,83.2 224.4,82 225.5,85.1 "/>
<polygon class="st1" points="226.5,96.3 225.1,90.7 222.9,91.3 224.2,96.5 222.3,96.9 221,91.8 218.2,92.5 219.8,98.3 217.9,98.8 
	215.8,90.8 226.4,88.1 228.4,95.9 "/>
<polygon class="st1" points="230,105.3 230.3,107.4 219.5,109.1 219.2,106.8 226.2,101.3 226.2,101.2 218.5,102.4 218.2,100.3 
	229,98.7 229.3,101 222.5,106.4 222.5,106.5 "/>
<polygon class="st1" points="219.9,115.6 219.8,113.4 228.7,112.9 228.6,109.6 230.5,109.5 231,118.3 229,118.5 228.9,115.2 "/>
<circle class="st0" cx="117.8" cy="119.9" r="96.7"/>
<path class="st1" d="M158.5,76.2c0.7,0.7,0,2.1,2.1,2.1c0,9.3,8.2,14.4,14.4,19.5c1,1,2.1,5.1,3.1,5.1c5.1,0,11.3-2.1,15.4-5.1
	c2.1,8.2-4.1,14.4-8.2,21.6c-3.1,6.2-11.3,9.3-16.4,14.4c-2.1,2.1-4.1,5.1-4.1,7.2c1,8.2,4.1,16.4,2.1,24.7
	c-2.1,4.1-9.2,5.1-13.4,9.2c-1,3.1,3.1,7.2,1,10.3c-2.1,1-6.2,2.1-6.2,4.1c-2.1,8.2-9.2,13.4-14.4,17.5c-5.1,4.1-11.3,0-17.5,3.1
	c-1,0-1-2.1-3.1-2.1c0-2.1,1-4.1,0-5.1c-3.1-9.2-5.1-18.5-9.2-28.8c0-2.1-2.1-4.1-2.1-6.2c-1-5.1,0-10.3,4.1-14.4
	c1-3.1-1-7.2-1-10.3c-1-2.1-4.1-4.1-4.1-6.2c1-2.1-1-3.1,0-4.1c-7.2-3.1-4.1-11.3-2.1-16.4c0-1-2.1-2.1-3.1-3.1
	c-2.1,2.1-4.1,1-6.2,1c0-3.1-3.1-5.1-5.1-6.2c-3.1,0-7.2,2.1-10.3,3.1c-5.1,0-9.3,0-14.4-1c-4.1,0-8.2-5.1-11.3-8.2
	c-3.1-4.1-4.1-8.2-6.2-12.3c-3.1-4.1,0-8.2,3.1-12.3c2.1-4.1,0-9.2,2.1-12.3c3.1-4.1,5.1-9.2,10.3-11.3c3.1-1,8.2-1,8.2-4.1
	c1-5.1,7.2-9.2,10.3-9.2c10.3-1,23.6-3.1,32.9,1c-2.1,3.1-3.1,8.2,1,9.3c4.1,1,5.1,3.1,8.2,5.1c1,0,2.1,0,3.1,0c0,1,0,2.1,1,2.1
	c4.1,0,0-5.1,3.1-6.2c7.2-1,14.4,9.2,20.6,3.1c1,1,2.1,1,3.1,1C152.3,62.9,153.3,71.1,158.5,76.2"/>
<path class="st1" d="M184.2,181c-1.5,2.9-1,6.2-4.1,7.2l1,1l-1,1l-1-1c-1,0-1,1-1,2.1c-1,0-3.1,0-3.1,0c-1-4.1-4.1-7.2-2.1-11.3
	c3.1-3.1,2.1-7.2,3.1-10.3c2.1-5.1,10.3-5.1,12.3-12.3c3.1,2.1,2.1,6.2,2.1,9.3c-1,0-2.1,0-2.1,1C189.3,172.8,186.2,176.9,184.2,181
	"/>
<path class="st1" d="M31.1,176L31.1,176l-2.7,3.3l-1.4-2.2L31.1,176z M25.2,177.6l2.1,3.1l-1.4,1.7l1.3,1.9l6.6-8.6l-1.3-2.1
	L22,176.2l1.2,1.9L25.2,177.6z"/>
<polygon class="st1" points="29.7,187.6 28.4,186 36.4,179.6 40.9,185.3 39.5,186.4 36.3,182.4 34.5,183.8 37.3,187.4 35.9,188.5 
	33.1,185 "/>
<path class="st1" d="M39.8,190.8l2-1.9l1.8,1.9c0.9,0.9,0.5,1.6,0.1,2c-0.7,0.7-1.4,0.6-2.1-0.2L39.8,190.8z M34.2,193.2l1.4,1.5
	l2.9-2.7l1.5,1.6c1.1,1.1,0.8,1.6-0.3,2.5c-0.8,0.7-1.1,1.2-1.3,1.6l1.6,1.7l0.2-0.2c-0.2-0.4,0.1-0.7,1.2-1.7
	c1.4-1.3,1.3-1.9,1-2.7c0.9,0.5,2,0.2,2.9-0.5c0.6-0.6,1.8-2.4-0.1-4.3l-3.6-3.7L34.2,193.2z"/>
<rect x="40.8" y="196.6" transform="matrix(0.677 -0.736 0.736 0.677 -130.6244 97.6195)" class="st1" width="10.2" height="2.1"/>
<path class="st1" d="M54.4,202.5c0.2-0.6,0.7-1.7-0.7-2.8c-0.8-0.6-2.4-1.1-4.2,1.2c-1.2,1.4-1.6,3.2-0.2,4.3c0.9,0.7,2,0.7,3-0.1
	l1.7,1.3c-1.7,1.5-3.8,1.8-5.8,0.2c-2.1-1.7-2.5-4.4-0.3-7.1c2.2-2.8,5-2.9,7-1.3c2.4,1.9,2,4.3,1.2,5.6L54.4,202.5z"/>
<path class="st1" d="M61.3,206.1L61.3,206.1l-1.1,4.1l-2.2-1.4L61.3,206.1z M56.5,210l3.2,2.1l-0.6,2.1l1.9,1.3l2.6-10.5l-2.1-1.3
	l-8.6,6.6l1.9,1.2L56.5,210z"/>
<polygon class="st1" points="73,210.3 74.8,211.2 70.1,220.2 68.2,219.2 67.9,210.9 67.8,210.8 64.5,217.3 62.7,216.4 67.4,207.3 
	69.4,208.4 69.7,216.5 69.7,216.6 "/>
<path class="st1" d="M81.2,215.8l1.9,0.7c0.9,0.3,2.1,1,1.1,3.9c-0.6,1.6-1.7,3-3.4,2.4l-2-0.7L81.2,215.8z M76.4,223l4.2,1.5
	c3.2,1.1,5.1-1.5,5.8-3.6c0.7-1.8,1-4.8-2.3-6l-4.2-1.5L76.4,223z"/>
<polygon class="st1" points="96.1,220.3 90.8,219 90.3,221 95.1,222.3 94.7,224 89.8,222.8 89.2,225.3 94.7,226.8 94.2,228.5 
	86.7,226.6 89.2,216.7 96.5,218.6 "/>
<polygon class="st1" points="104,219.8 106.2,220.2 101.1,229.7 99.1,229.4 97.3,218.8 99.6,219.1 100.5,227.1 100.6,227.1 "/>
<polygon class="st1" points="114.6,222.6 109.2,222.2 109,224.4 114,224.7 113.9,226.5 108.9,226.2 108.7,228.8 114.3,229.2 
	114.2,231 106.5,230.5 107.2,220.3 114.7,220.8 "/>
<polygon class="st1" points="118.6,229.2 123.6,229.1 123.7,231 116.5,231.1 116.3,220.8 118.5,220.8 "/>
<path class="st1" d="M126.9,225.6c-0.3-2.8,1.2-3.7,2.4-3.8c1.1-0.1,2.8,0.4,3.1,3.3c0.3,2.8-1.2,3.7-2.4,3.8
	C128.9,229,127.2,228.4,126.9,225.6 M124.8,225.8c0.5,4.8,4.1,5,5.4,4.8c1.3-0.1,4.8-1.1,4.3-5.9c-0.5-4.8-4.1-5-5.4-4.8
	C127.7,220.1,124.3,221.1,124.8,225.8z"/>
<path class="st1" d="M138.4,223.7l-0.6-2.9l1.7-0.3c1.3-0.3,1.9,0,2.1,1c0.1,0.4,0.3,1.6-1.2,1.9L138.4,223.7z M138.7,225.4l2.4-0.5
	c2.7-0.6,2.7-2.9,2.5-3.9c-0.4-2-1.8-3-3.8-2.6l-4.6,0.9l2.1,10l2.1-0.4L138.7,225.4z"/>
<polygon class="st1" points="156.7,224.4 154.8,225 152.2,216.8 152.2,216.8 152.9,225.6 150.9,226.2 146.6,218.6 146.6,218.6 
	149.1,226.8 147.2,227.4 144.2,217.6 147.1,216.7 151.3,223.8 151.3,223.8 150.7,215.6 153.6,214.6 "/>
<polygon class="st1" points="162.8,212.7 157.8,214.8 158.6,216.8 163.2,214.8 163.9,216.5 159.4,218.5 160.4,220.9 165.6,218.6 
	166.3,220.3 159.2,223.4 155.2,214 162.1,211 "/>
<polygon class="st1" points="169,207.3 170.7,206.3 175.7,215.3 173.8,216.3 166.6,212 166.6,212 170.1,218.4 168.4,219.3 
	163.4,210.4 165.4,209.3 172.4,213.6 172.4,213.5 "/>
<polygon class="st1" points="181.5,211.5 179.7,212.7 175,205.7 172.5,207.4 171.5,205.9 178.4,201.3 179.4,202.8 176.8,204.5 "/>
<path class="st1" d="M187.5,201.3l2-1.8c0.6-0.5,1.4-0.8,2-0.1c0.7,0.8,0.5,1.5-0.3,2.2l-2,1.7L187.5,201.3z M188.9,206.1l3.3-2.8
	c1.6-1.4,1.8-2,1.8-2.8c0.1-0.8-0.2-1.6-0.7-2.2c-0.7-0.8-1.6-1.3-2.8-0.8c0.2-0.4,0.5-1.3-0.4-2.4c-0.7-0.8-2.2-1.5-4.1,0.1
	l-3.7,3.3L188.9,206.1z M184.9,198.4l1.8-1.6c0.7-0.6,1.3-0.8,1.9-0.2c0.5,0.6,0.2,1.3-0.4,1.9l-1.9,1.6L184.9,198.4z"/>
<path class="st1" d="M194,190.4L194,190.4l3.8,1.8l-1.8,1.9L194,190.4z M197,195.8l2.6-2.7l2,1l1.6-1.7l-9.9-4.4l-1.7,1.8l4.9,9.7
	l1.5-1.6L197,195.8z"/>
<polygon class="st1" points="200.1,179.6 201.4,178 209.4,184.2 208.1,185.9 199.8,184.8 199.8,184.8 205.6,189.2 204.3,190.8 
	196.3,184.6 197.6,182.8 205.7,183.9 205.8,183.9 "/>
<polygon class="st1" points="212.2,180.1 211.1,181.9 202.4,176.5 203.5,174.7 207.1,176.9 205.6,171.4 207.1,169 208.4,174.8 
	215.9,174.3 214.4,176.6 208.9,176.9 209.3,178.2 "/>
</svg>
