
<svg width="12px" height="15px" viewBox="0 0 12 15" version="1.1" xmlns="http://www.w3.org/2000/svg" xmlns:xlink="http://www.w3.org/1999/xlink">
    <!-- Generator: Sketch 47.1 (45422) - http://www.bohemiancoding.com/sketch -->
    <desc>Created with Sketch.</desc>
    <defs></defs>
    <g id="Homepage" stroke="none" stroke-width="1" fill="none" fill-rule="evenodd" opacity="0.5">
        <g transform="translate(-714.000000, -731.000000)" id="Scroll-Down-Icon" fill="#FFFFFF">
            <g transform="translate(714.000000, 731.000000)">
                <path d="M11,10.1171875 L6.8984375,14.0234375 C6.66406133,14.2578137 6.36458516,14.375 6,14.375 C5.66145664,14.375 5.37500117,14.2578137 5.140625,14.0234375 L1,10.1171875 C0.765623828,9.88281133 0.6484375,9.60286621 0.6484375,9.27734375 C0.6484375,8.95182129 0.765623828,8.67187617 1,8.4375 C1.23437617,8.20312383 1.53385234,8.0859375 1.8984375,8.0859375 C2.26302266,8.0859375 2.56249883,8.20312383 2.796875,8.4375 L4.75,10.3125 L4.75,1.8359375 C4.75,1.49739414 4.87369668,1.21093867 5.12109375,0.9765625 C5.36849082,0.742186328 5.66145664,0.625 6,0.625 C6.33854336,0.625 6.63150918,0.742186328 6.87890625,0.9765625 C7.12630332,1.21093867 7.25,1.49739414 7.25,1.8359375 L7.25,10.3125 L9.203125,8.4375 C9.43750117,8.20312383 9.73697734,8.0859375 10.1015625,8.0859375 C10.4661477,8.0859375 10.7656238,8.20312383 11,8.4375 C11.2343762,8.67187617 11.3515625,8.95182129 11.3515625,9.27734375 C11.3515625,9.60286621 11.2343762,9.88281133 11,10.1171875 Z" id=""></path>
            </g>
        </g>
    </g>
</svg>