<?xml version="1.0" encoding="utf-8"?>
<!-- Generator: Adobe Illustrator 21.0.0, SVG Export Plug-In . SVG Version: 6.00 Build 0)  -->
<svg version="1.1" id="Layer_1" xmlns="http://www.w3.org/2000/svg" xmlns:xlink="http://www.w3.org/1999/xlink" x="0px" y="0px"
	 viewBox="0 0 41.2 43.2" style="enable-background:new 0 0 41.2 43.2;" xml:space="preserve">
<style type="text/css">
	.st0{fill:#2D424C;}
</style>
<g id="Production_36_">
	<g>
		<g>
			<g>
				<path class="st0" d="M11,10.4c1.1,0,2-0.9,2-1.9c0-1.1,0-1.1,0-2.1c0-1.1-0.1-1.1-0.1-2.1s0-1.1,0-2.1c0-1.1-0.9-2-2-2
					C9.9,0,9,0.9,9,2c0,1.1-0.1,1.1-0.1,2.1c0,1.1,0,1.1,0,2.1S9,7.4,9,8.4C9,9.5,9.9,10.4,11,10.4z"/>
			</g>
			<g>
				<path class="st0" d="M30.1,10.4c1.1,0,2-0.8,2-1.9c0-1.1,0-1.1,0-2.1c0-1.1,0-1.1,0-2.1s0-1.1,0-2.1c0-1.1-0.9-2-2-2
					c-1.1,0-1.9,0.9-1.9,2c0,1.1-0.1,1.1-0.1,2.1c0,1.1,0,1.1,0,2.1s0.1,1.1,0.1,2.1C28.1,9.5,29,10.4,30.1,10.4z"/>
			</g>
			<g>
				<path class="st0" d="M39.4,4.6c-1.3,0-1.3,0.2-2.6,0.2c-1.3,0-1.4-0.6-2.5,0.1c-0.8,0.5,0,0.8,0,1.7c0,0.9,0.1,0.9,0.1,1.8
					c0,0.8-0.4,1.5-0.7,2.1c-0.4,0.6-0.9,1.3-1.5,1.6c-0.6,0.4-1.4,0.5-2.2,0.5c-0.8,0-1.4-0.4-2-0.8c-0.6-0.4-1.3-0.7-1.7-1.4
					c-0.4-0.6-0.5-1.4-0.5-2.1c0-0.9-0.1-0.9-0.1-1.8s0.7-1.2,0-1.7c-1.1-0.8-1.2,0-2.6,0c-1.3,0-1.3-0.3-2.7-0.3
					c-1.3,0-1.3-0.1-2.7-0.1S16.3,4,15.2,4.8c-0.8,0.5,0,0.9,0,1.8s0,0.9,0,1.8c0,0.8-0.2,1.5-0.6,2.1c-0.4,0.6-0.9,1.1-1.6,1.5
					c-0.6,0.4-1.3,0.5-2.1,0.5c-0.8,0-1.4-0.2-2-0.6c-0.6-0.4-1.2-0.8-1.6-1.4C7,9.9,6.9,9.2,6.9,8.4c0-0.9-0.3-0.9-0.3-1.8
					s0.9-1.3,0.1-1.9c-1-0.7-1.3,0-2.5,0S3,4.9,1.7,4.9c-0.9,0-1.7,0.5-1.7,1.4c0,1.2,0.3,1.2,0.3,2.3c0,1.2-0.2,1.2-0.2,2.3
					c0,1.2-0.1,1.2-0.1,2.3c0,1.2-0.1,1.2-0.1,2.3c0,1.2,0.1,1.2,0.1,2.3c0,1.2,0,1.2,0,2.3c0,1.2,0.2,1.2,0.2,2.3
					c0,1.2-0.2,1.2-0.2,2.3c0,1.2-0.1,1.2-0.1,2.3c0,1.2,0.3,1.2,0.3,2.3c0,1.2-0.2,1.2-0.2,2.3c0,1.2,0,1.2,0,2.3
					c0,1.2,0.2,1.2,0.2,2.3C0.3,38,0,38,0,39.1c0,1.2,0,1.2,0,2.4C0,42.3,0.9,43,1.7,43c1.2,0,1.2,0.3,2.4,0.3
					c1.2,0,1.2-0.2,2.4-0.2c1.2,0,1.2-0.1,2.4-0.1c1.2,0,1.2,0.2,2.4,0.2c1.2,0,1.2,0,2.4,0c1.2,0,1.2,0.1,2.4,0.1
					c1.2,0,1.2-0.2,2.4-0.2c1.2,0,1.2,0,2.4,0c1.2,0,1.2,0.1,2.4,0.1c1.2,0,1.2-0.1,2.4-0.1c1.2,0,1.2,0.1,2.4,0.1
					c1.2,0,1.2,0.1,2.4,0.1c1.2,0,1.2-0.1,2.4-0.1c1.2,0,1.2-0.2,2.4-0.2c1.2,0,1.2,0.2,2.4,0.2c1.2,0,1.2,0,2.4,0
					c0.8,0,1.6-0.7,1.6-1.6c0-1.2-0.2-1.2-0.2-2.3c0-1.2,0.3-1.2,0.3-2.3c0-1.2-0.1-1.2-0.1-2.3c0-1.2-0.1-1.2-0.1-2.3
					c0-1.2,0.1-1.2,0.1-2.3c0-1.2,0.1-1.2,0.1-2.3c0-1.2-0.2-1.2-0.2-2.3c0-1.2-0.2-1.2-0.2-2.3c0-1.2,0.1-1.2,0.1-2.3
					c0-1.2,0.1-1.2,0.1-2.3c0-1.2-0.2-1.2-0.2-2.3c0-1.2,0.2-1.2,0.2-2.3c0-1.2-0.2-1.2-0.2-2.3c0-1.2,0.1-1.2,0.1-2.4
					s0.2-1.2,0.2-2.4C41.2,5.4,40.3,4.6,39.4,4.6z M37.8,39.8c-0.9,0.8-1.1,0.1-2.3,0.1c-1.2,0-1.2,0.1-2.5,0.1
					c-1.2,0-1.2-0.1-2.5-0.1c-1.2,0-1.2,0.1-2.5,0.1c-1.2,0-1.2-0.1-2.5-0.1c-1.2,0-1.2,0.1-2.5,0.1c-1.2,0-1.2,0-2.5,0
					c-1.2,0-1.2-0.3-2.5-0.3c-1.2,0-1.2,0.2-2.5,0.2c-1.2,0-1.2-0.1-2.5-0.1C12,39.9,12,40,10.7,40c-1.2,0-1.2,0.1-2.5,0.1
					c-1.2,0-1.2,0-2.5,0s-1.5,0.6-2.4-0.3c-0.8-0.8,0.1-1.1,0.1-2.2c0-1.2-0.2-1.2-0.2-2.3s0-1.2,0-2.3c0-1.1,0-1.1,0-2.3
					c0-1.2,0-1.2,0-2.3c0-1.2,0.1-1.2,0.1-2.3c0-1.2,0-1.2,0-2.3c0-1.2,0-1.2,0-2.3c0-1.2-0.1-1.2-0.1-2.3c0-1.2-0.7-1.4,0.1-2.2
					c0.9-0.8,1.1-0.2,2.4-0.2c1.2,0,1.2,0.2,2.5,0.2c1.2,0,1.2,0,2.5,0c1.2,0,1.2-0.2,2.5-0.2c1.2,0,1.2,0.3,2.5,0.3
					c1.2,0,1.2-0.3,2.5-0.3c1.2,0,1.2,0.2,2.5,0.2c1.2,0,1.2,0.1,2.5,0.1c1.2,0,1.2,0.1,2.5,0.1c1.2,0,1.2-0.1,2.5-0.1
					c1.2,0,1.2,0,2.5,0c1.2,0,1.2-0.2,2.5-0.2c1.2,0,1.2,0.2,2.5,0.2s1.5-0.8,2.4,0c0.8,0.8,0.2,1,0.2,2.2c0,1.2-0.2,1.2-0.2,2.3
					s0,1.2,0,2.3c0,1.1,0.2,1.1,0.2,2.3c0,1.2-0.3,1.2-0.3,2.3c0,1.2,0,1.2,0,2.3c0,1.2,0.2,1.2,0.2,2.3c0,1.2-0.3,1.2-0.3,2.3
					c0,1.2,0,1.2,0.2,2.3C38.2,38.7,38.6,39,37.8,39.8z"/>
			</g>
			<g>
				<path class="st0" d="M17.1,20.7c0.9-0.7,1.2,0,2.3,0c1.2,0,1.2,0,2.4,0s1.4-0.7,2.4,0c0.7,0.6,0,0.9,0,1.9s0.8,1.3,0,1.9
					c-0.9,0.7-1.2,0-2.4,0c-1.2,0-1.2,0-2.4,0c-1.2,0-1.5,0.7-2.4,0c-0.7-0.6,0.2-1,0-1.9C16.8,21.5,16.3,21.2,17.1,20.7z"/>
			</g>
			<g>
				<path class="st0" d="M27,20.6c0.9-0.7,1.2,0,2.4,0c1.2,0,1.2,0,2.4,0c1.2,0,1.4-0.8,2.4,0c0.7,0.6,0,0.9,0,1.9s0.8,1.3,0,1.8
					c-0.9,0.7-1.2,0-2.3,0c-1.2,0-1.2,0-2.4,0s-1.4,0.7-2.3,0c-0.7-0.6,0.2-0.9,0-1.8C26.7,21.5,26.2,21.2,27,20.6z"/>
			</g>
			<g>
				<path class="st0" d="M7.2,26.6c0.9-0.7,1.2,0,2.3,0c1.2,0,1.2,0,2.4,0s1.4-0.8,2.4,0c0.7,0.6,0,0.9,0,1.9c0,0.9,0.7,1.3,0,1.8
					c-0.9,0.7-1.2,0-2.3,0c-1.2,0-1.2,0-2.4,0s-1.4,0.7-2.3,0c-0.7-0.6,0.2-0.9,0-1.8C6.9,27.5,6.4,27.2,7.2,26.6z"/>
			</g>
			<g>
				<path class="st0" d="M17,26.6c0.9-0.7,1.2,0,2.4,0c1.2,0,1.2,0,2.4,0s1.4-0.7,2.4,0c0.7,0.6,0,0.9,0,1.9c0,0.9,0.8,1.3,0,1.9
					c-0.9,0.7-1.2,0-2.4,0c-1.2,0-1.2,0-2.4,0c-1.2,0-1.4,0.7-2.4,0c-0.7-0.6,0.2-1,0-1.9C16.8,27.5,16.3,27.2,17,26.6z"/>
			</g>
			<g>
				<path class="st0" d="M26.9,26.6c0.9-0.7,1.2,0,2.4,0c1.2,0,1.2,0,2.4,0c1.2,0,1.4-0.7,2.4,0c0.7,0.6,0,0.9,0,1.8
					c0,0.9,0.7,1.3,0,1.8c-0.9,0.7-1.2,0-2.3,0c-1.2,0-1.2,0-2.4,0s-1.4,0.7-2.3,0c-0.7-0.6,0.2-0.9,0-1.8
					C26.7,27.5,26.2,27.2,26.9,26.6z"/>
			</g>
			<g>
				<path class="st0" d="M7.1,32.6c0.9-0.7,1.2,0,2.4,0c1.2,0,1.2,0,2.4,0s1.4-0.8,2.4,0c0.7,0.6,0,0.9,0,1.9c0,0.9,0.7,1.3,0,1.9
					c-0.9,0.7-1.2,0-2.4,0c-1.2,0-1.2,0-2.4,0S8,37,7.1,36.3c-0.7-0.6,0.3-1,0-1.9C6.9,33.4,6.4,33.1,7.1,32.6z"/>
			</g>
			<g>
				<path class="st0" d="M17,32.6c0.9-0.7,1.2,0,2.4,0c1.2,0,1.2,0,2.4,0s1.4-0.7,2.4,0c0.7,0.6,0,0.9,0,1.8c0,0.9,0.7,1.3,0,1.8
					c-0.9,0.7-1.2,0-2.3,0c-1.2,0-1.2,0-2.4,0c-1.2,0-1.5,0.7-2.4,0c-0.7-0.6,0.2-1,0-1.9C16.8,33.5,16.3,33.1,17,32.6z"/>
			</g>
			<g>
				<path class="st0" d="M27,32.6c0.9-0.7,1.2,0,2.4,0c1.2,0,1.2,0,2.4,0c1.2,0,1.4-0.8,2.4,0c0.7,0.6,0,0.9,0,1.9
					c0,0.9,0.7,1.3,0,1.9c-0.9,0.7-1.2,0-2.4,0c-1.2,0-1.2,0-2.4,0s-1.4,0.8-2.4,0c-0.7-0.6,0.3-1,0-1.9
					C26.8,33.5,26.2,33.2,27,32.6z"/>
			</g>
		</g>
	</g>
</g>
</svg>
