<svg xmlns="http://www.w3.org/2000/svg" width="40" height="48" viewBox="0 0 40 48"><title>globe_conf</title><path d="M27.10817,29.71383v2.92084l-.36585,2.92085a18.87658,18.87658,0,0,1-.60976,2.79914,8.63541,8.63541,0,0,1-3.04878.2434c-1.58537,0-1.58537-.3651-3.04878-.3651H16.98622c-1.46342,0-1.58537.48681-3.04878.1217a22.98045,22.98045,0,0,1-.60976-2.79914l-.36585-2.92085a23.31927,23.31927,0,0,1,0-2.92084c1.34146-.48681,1.46341-.24341,2.80488-.24341,1.46341,0,1.46341.36511,2.92683.36511h2.92682a23.7273,23.7273,0,0,0,2.92683-.24341A3.76473,3.76473,0,0,1,27.10817,29.71383ZM14.66914,9.02452a15.3692,15.3692,0,0,0-1.58536,3.16425c-.48781,1.09532-.97561,2.31234-1.34147,3.40765-1.70731.48681-1.82926-.1217-3.65853-.1217s-1.95122.73021-3.65854.2434a19.71337,19.71337,0,0,1,2.31707-2.19063,11.595,11.595,0,0,1,2.439-1.82552,29.18618,29.18618,0,0,1,2.561-1.58213A28.58,28.58,0,0,1,14.66914,9.02452ZM2.596,18.27386c1.34147-.36511,1.34147-.1217,2.80488-.1217H8.20573c1.46341,0,1.46341-.36511,2.80488.1217-.2439.97361-.12195,1.94723-.36586,2.92084-.12195.97361-.60975,1.94723-.7317,2.92084a21.43925,21.43925,0,0,0,0,2.79914c-1.58537.48681-1.58537.1217-3.29269.1217a29.69773,29.69773,0,0,0-3.29268,0c-1.70732,0-1.82927.48681-3.41463,0A24.25852,24.25852,0,0,1,.5228,23.87214a27.55266,27.55266,0,0,1,.73171-3.04254A12.88882,12.88882,0,0,1,2.596,18.27386Zm-2.68292,11.44c1.58536-.48681,1.70731-.1217,3.41463-.1217H6.74232c1.70731,0,1.70731-.36511,3.41463.1217a23.89264,23.89264,0,0,0,.36585,2.92084c.122.97362-.2439,2.06893-.12195,2.92085.122.97361.48781,1.82552.60976,2.67744-1.34147.48681-1.34147.1217-2.68293.1217s-1.34146.1217-2.80488.1217-1.46341.3651-2.80488,0a20.97348,20.97348,0,0,1-1.21951-2.92085A20.69837,20.69837,0,0,1,.40085,32.63467,11.26041,11.26041,0,0,1-.08695,29.71383Zm4.63414,11.44c1.70732-.48681,1.82927-.1217,3.53659-.1217s1.82927-.3651,3.65854,0a18.78252,18.78252,0,0,0,.85365,2.79914,23.343,23.343,0,0,0,2.19513,3.89446,21.06168,21.06168,0,0,1-2.92683-1.217,11.482,11.482,0,0,1-2.68293-1.46042c-.85366-.60851-1.70732-1.09532-2.561-1.70383C5.88866,42.61421,5.157,41.884,4.54719,41.15379ZM19.913,48.2125a3.75413,3.75413,0,0,1-2.68293-1.46042,11.10619,11.10619,0,0,1-1.58537-2.67744q-.54878-1.27788-1.09756-2.92085c1.21952-.60851,1.34147-.2434,2.68293-.2434s1.34147.3651,2.68293.3651H22.596c1.34146,0,1.46341-.73021,2.68292-.1217a16.24984,16.24984,0,0,1-1.09756,2.92085A11.25653,11.25653,0,0,1,22.474,46.75208,3.34074,3.34074,0,0,1,19.913,48.2125Zm5.2439-.60851a19.315,19.315,0,0,0,1.95122-3.89446,23.64182,23.64182,0,0,0,.97561-2.67744c1.70731-.48681,1.82927.1217,3.65853.1217s1.95122-.73021,3.65854-.2434A19.7118,19.7118,0,0,1,33.08378,43.101a11.59558,11.59558,0,0,1-2.439,1.82553,29.18855,29.18855,0,0,1-2.561,1.58212A14.31659,14.31659,0,0,1,25.15695,47.604Zm11.95122-9.24934c-1.34147.36511-1.34147.1217-2.80488.1217H31.49841c-1.34146,0-1.46341.36511-2.80487-.1217.2439-.97361.122-1.94722.36585-2.92084.12195-.97362.60975-1.94723.73171-2.92085a21.43925,21.43925,0,0,0,0-2.79914c1.58536-.48681,1.58536-.1217,3.29268-.1217s1.70732-.1217,3.41463-.1217,1.82927-.48681,3.41464,0a24.2585,24.2585,0,0,1-.60976,3.16425,27.55034,27.55034,0,0,1-.7317,3.04254A11.44464,11.44464,0,0,1,37.10817,38.35465Z" transform="translate(0.08695 -0.2125)" style="fill:#ea3a32"/><path d="M19.40473,6.90008a1.30122,1.30122,0,0,0,1.31038-1.24232V4.28468c0-.71924-.06552-.71924-.06552-1.37309V1.5385A1.31289,1.31289,0,0,0,19.33921.2308a1.11509,1.11509,0,0,0-1.24486,1.17693c0,.71924-.06552.71924-.06552,1.37309V4.15391c0,.65385.06552.78462.06552,1.43847A1.31289,1.31289,0,0,0,19.40473,6.90008Z" transform="translate(0.08695 -0.2125)" style="fill:#2d424c"/><path d="M31.91887,6.90008a1.25854,1.25854,0,0,0,1.31038-1.24232V1.5385A1.31289,1.31289,0,0,0,31.91887.2308,1.25825,1.25825,0,0,0,30.674,1.5385c0,.71924-.06552.71924-.06552,1.37309V4.28468c0,.65385.06552.71923.06552,1.37308A1.20237,1.20237,0,0,0,31.91887,6.90008Z" transform="translate(0.08695 -0.2125)" style="fill:#2d424c"/><path d="M38.01215,3.10774c-.85175,0-.85175.13077-1.70349.13077s-.91727-.39231-1.638.06539c-.52415.32692,0,.52308,0,1.11155s.06552.58846.06552,1.17693a3.10538,3.10538,0,0,1-.45864,1.37308,3.02933,3.02933,0,0,1-.98278,1.04617,2.61382,2.61382,0,0,1-1.44143.32692A2.33083,2.33083,0,0,1,30.543,7.81547a2.99511,2.99511,0,0,1-1.11382-.91539,2.50985,2.50985,0,0,1-.3276-1.37309c0-.58846-.06552-.58846-.06552-1.17693s.45864-.78462,0-1.11154c-.72071-.52309-.78623,0-1.70349,0-.85175,0-.85175-.19616-1.769-.19616-.85175,0-.85175-.06539-1.769-.06539s-.91726-.26154-1.638.26154c-.52415.32693,0,.58847,0,1.17694V5.59238a2.41359,2.41359,0,0,1-.39312,1.37308,3.03025,3.03025,0,0,1-1.0483.98078,2.39181,2.39181,0,0,1-1.3759.32693,2.21692,2.21692,0,0,1-1.31038-.39231,3.53022,3.53022,0,0,1-1.04831-.9154,3.02719,3.02719,0,0,1-.26208-1.37308c0-.58847-.19655-.58847-.19655-1.17693s.58967-.85.06552-1.24232c-.6552-.4577-.85175,0-1.638,0s-.78623.13077-1.638.13077a.99013.99013,0,0,0-1.11382.91539c0,.78462.19655.78462.19655,1.50386,0,.78462-.131.78462-.131,1.50386,0,.78462-.06552.78462-.06552,1.50385,0,.78462-.06552.78462-.06552,1.50386,0,.78462.06552.78462.06552,1.50386v1.50385c0,.78462.131.78462.131,1.50386,0,.78462-.131.78462-.131,1.50386,0,.78462-.06552.78462-.06552,1.50385,0,.78462.19655.78462.19655,1.50386,0,.78462-.131.78462-.131,1.50386v1.50385c0,.78462.131.78462.131,1.50386a12.0492,12.0492,0,0,1-.131,1.89617v1.56924a1.13164,1.13164,0,0,0,1.11382.98078c.78623,0,.78623.19615,1.57246.19615s.78623-.13077,1.57246-.13077.78623-.06538,1.57246-.06538.78623.13077,1.57246.13077h1.57245c.78623,0,.78623.06538,1.57246.06538s.78623-.13077,1.57246-.13077h1.57246c.78623,0,.78623.06539,1.57246.06539S28.2498,28.281,29.036,28.281s.78623.06539,1.57246.06539.78623.06538,1.57246.06538.78623-.06538,1.57246-.06538.78623-.13077,1.57246-.13077.78623.13077,1.57246.13077h1.57245a1.07644,1.07644,0,0,0,1.04831-1.04616c0-.78463-.131-.78463-.131-1.50386,0-.78462.19656-.78462.19656-1.50386,0-.78462-.06552-.78462-.06552-1.50385,0-.78463-.06552-.78463-.06552-1.50386,0-.78462.06552-.78462.06552-1.50386,0-.78462.06552-.78462.06552-1.50385,0-.78463-.131-.78463-.131-1.50386,0-.78462-.131-.78462-.131-1.50386,0-.78462.06552-.78462.06552-1.50385,0-.78462.06552-.78462.06552-1.50386,0-.78462-.131-.78462-.131-1.50386,0-.78462.131-.78462.131-1.50385,0-.78462-.131-.78462-.131-1.50386,0-.78462.06552-.78462.06552-1.56924s.131-.78462.131-1.56924C39.19149,3.63083,38.60182,3.10774,38.01215,3.10774ZM36.96384,26.12329c-.58967.52308-.72071.06539-1.50693.06539s-.78623.06538-1.638.06538c-.78623,0-.78623-.06538-1.638-.06538-.78623,0-.78623.06538-1.638.06538-.78623,0-.78623-.06538-1.638-.06538-.78623,0-.78623.06538-1.638.06538H25.629c-.78623,0-.78623-.19615-1.638-.19615-.78623,0-.78623.13077-1.638.13077-.78623,0-.78623-.06539-1.638-.06539a9.218,9.218,0,0,1-1.50694.13078c-.78623,0-.78623.06538-1.638.06538h-1.638c-.85174,0-.98278.39231-1.57245-.19616-.52416-.52308.06552-.71923.06552-1.43847,0-.78462-.131-.78462-.131-1.50385V18.6694c0-.78463.06552-.78463.06552-1.50386V14.15783c0-.78463-.06552-.78463-.06552-1.50386,0-.78462-.45864-.91539.06552-1.43847.58967-.52308.72071-.13077,1.57245-.13077.78623,0,.78623.13077,1.638.13077h1.638c.78623,0,.78623-.13077,1.638-.13077.78623,0,.78623.19615,1.638.19615.78623,0,.78623-.19615,1.638-.19615.78623,0,.78623.13077,1.638.13077.78623,0,.78623.06538,1.638.06538.78623,0,.78623.06539,1.638.06539.78623,0,.78623-.06539,1.638-.06539h1.638c.78623,0,.78623-.13077,1.638-.13077.78623,0,.78623.13077,1.638.13077s.98279-.52308,1.57246,0c.52416.52308.131.65385.131,1.43848s-.131.78462-.131,1.50385v1.50386c0,.71923.131.71923.131,1.50385s-.19656.78463-.19656,1.50386v1.50386c0,.78462.131.78462.131,1.50386,0,.78462-.19655.78462-.19655,1.50385a5.59776,5.59776,0,0,0,.131,1.50386C37.22592,25.40406,37.488,25.60021,36.96384,26.12329Z" transform="translate(0.08695 -0.2125)" style="fill:#2d424c"/><path d="M23.40139,13.63474c.58967-.45769.78623,0,1.50694,0h1.57246c.78623,0,.91727-.45769,1.57246,0,.45863.39231,0,.58847,0,1.24232s.52415.85,0,1.24232c-.58967.45769-.78623,0-1.57246,0H24.90833c-.78623,0-.98279.45769-1.57246,0-.45863-.39231.131-.65385,0-1.24232C23.20483,14.15782,22.87724,13.96167,23.40139,13.63474Z" transform="translate(0.08695 -0.2125)" style="fill:#2d424c"/><path d="M29.88778,13.56936c.58967-.4577.78623,0,1.57246,0H33.0327c.78623,0,.91727-.52308,1.57246,0,.45863.39231,0,.58846,0,1.24231s.52415.85,0,1.17694c-.58968.45769-.78623,0-1.50694,0H31.52576c-.78623,0-.91727.45769-1.50694,0-.45863-.39231.131-.58847,0-1.17694C29.69123,14.15782,29.36363,13.96167,29.88778,13.56936Z" transform="translate(0.08695 -0.2125)" style="fill:#2d424c"/><path d="M16.915,17.49246c.58967-.45769.78623,0,1.50694,0H19.9944c.78623,0,.91727-.52308,1.57246,0,.45863.39231,0,.58847,0,1.24232,0,.58847.45863.85,0,1.17693-.58967.4577-.78623,0-1.50694,0H18.48746c-.78623,0-.91727.4577-1.50694,0-.45863-.39231.131-.58846,0-1.17693C16.71844,18.08093,16.39085,17.88477,16.915,17.49246Z" transform="translate(0.08695 -0.2125)" style="fill:#2d424c"/><path d="M23.33587,17.49246c.58967-.45769.78623,0,1.57246,0h1.57246c.78623,0,.91727-.45769,1.57246,0,.45863.39231,0,.58847,0,1.24232,0,.58847.52415.85,0,1.24232-.58967.45769-.78623,0-1.57246,0H24.90833c-.78623,0-.91727.45769-1.57246,0-.45863-.39231.131-.65385,0-1.24232C23.20483,18.08093,22.87724,17.88477,23.33587,17.49246Z" transform="translate(0.08695 -0.2125)" style="fill:#2d424c"/><path d="M29.82226,17.49246c.58967-.45769.78623,0,1.57246,0h1.57246c.78623,0,.91727-.45769,1.57246,0,.45863.39231,0,.58847,0,1.17693s.45863.85,0,1.17694c-.58968.45769-.78623,0-1.50694,0H31.46024c-.78623,0-.91727.45769-1.50694,0-.45863-.39231.131-.58847,0-1.17694C29.69123,18.08093,29.36363,17.88477,29.82226,17.49246Z" transform="translate(0.08695 -0.2125)" style="fill:#2d424c"/><path d="M16.84948,21.41557c.58967-.4577.78623,0,1.57246,0H19.9944c.78623,0,.91727-.52308,1.57246,0,.45863.39231,0,.58846,0,1.24232,0,.58846.45863.85,0,1.24231-.58967.4577-.78623,0-1.57246,0H18.42194c-.78623,0-.98279.39231-1.57246-.06538-.45863-.39231.19656-.65385,0-1.24232C16.71844,21.93865,16.39085,21.74249,16.84948,21.41557Z" transform="translate(0.08695 -0.2125)" style="fill:#2d424c"/><path d="M23.33587,21.41557c.58967-.4577.78623,0,1.57246,0h1.57246c.78623,0,.91727-.4577,1.57246,0,.45863.39231,0,.58846,0,1.17693s.45863.85,0,1.17693c-.58967.4577-.78623,0-1.50694,0H24.97385c-.78623,0-.98279.4577-1.57246,0-.45863-.39231.131-.65385,0-1.24232C23.20483,22.004,22.87724,21.74249,23.33587,21.41557Z" transform="translate(0.08695 -0.2125)" style="fill:#2d424c"/><path d="M29.88778,21.41557c.58967-.4577.78623,0,1.57246,0H33.0327c.78623,0,.91727-.52308,1.57246,0,.45863.39231,0,.58846,0,1.24232,0,.58846.45863.85,0,1.24231-.58968.4577-.78623,0-1.57246,0H31.46024c-.78623,0-.91727.52308-1.57246,0-.45863-.39231.19656-.65385,0-1.24231C29.75674,22.004,29.36363,21.80788,29.88778,21.41557Z" transform="translate(0.08695 -0.2125)" style="fill:#2d424c"/></svg>