<svg xmlns="http://www.w3.org/2000/svg" width="40.3" height="54.2" viewBox="0 0 40.3 54.2"><title>calendar-conf-icon</title><path d="M26.1,35.2v2.4L25.8,40a15.53646,15.53646,0,0,1-.5,2.3,7.06694,7.06694,0,0,1-2.5.2c-1.3,0-1.3-.3-2.5-.3H17.8c-1.2,0-1.3.4-2.5.1a18.91545,18.91545,0,0,1-.5-2.3l-.3-2.4a19.2,19.2,0,0,1,0-2.4,4.5326,4.5326,0,0,1,2.3-.2c1.2,0,1.2.3,2.4.3h2.4a19.4189,19.4189,0,0,0,2.4-.2A3.08116,3.08116,0,0,1,26.1,35.2Zm-10.2-17a12.63844,12.63844,0,0,0-1.3,2.6c-.4.9-.8,1.9-1.1,2.8-1.4.4-1.5-.1-3-.1s-1.6.6-3,.2a16.178,16.178,0,0,1,1.9-1.8,9.5096,9.5096,0,0,1,2-1.5,23.924,23.924,0,0,1,2.1-1.3A23.4043,23.4043,0,0,1,15.9,18.2ZM6,25.8a5.86269,5.86269,0,0,1,2.3-.1h2.3c1.2,0,1.2-.3,2.3.1-.2.8-.1,1.6-.3,2.4-.1.8-.5,1.6-.6,2.4a17.65208,17.65208,0,0,0,0,2.3c-1.3.4-1.3.1-2.7.1a24.3,24.3,0,0,0-2.7,0c-1.4,0-1.5.4-2.8,0a19.96885,19.96885,0,0,1,.5-2.6,22.67619,22.67619,0,0,1,.6-2.5A10.598,10.598,0,0,1,6,25.8ZM3.8,35.2c1.3-.4,1.4-.1,2.8-.1H9.4c1.4,0,1.4-.3,2.8.1a19.67007,19.67007,0,0,0,.3,2.4c.1.8-.2,1.7-.1,2.4.1.8.4,1.5.5,2.2-1.1.4-1.1.1-2.2.1s-1.1.1-2.3.1-1.2.3-2.3,0a17.25175,17.25175,0,0,1-1-2.4,17.0295,17.0295,0,0,1-.9-2.4A9.26963,9.26963,0,0,1,3.8,35.2Zm3.8,9.4c1.4-.4,1.5-.1,2.9-.1s1.5-.3,3,0a15.45683,15.45683,0,0,0,.7,2.3A19.19089,19.19089,0,0,0,16,50a17.25175,17.25175,0,0,1-2.4-1,9.40949,9.40949,0,0,1-2.2-1.2c-.7-.5-1.4-.9-2.1-1.4C8.7,45.8,8.1,45.2,7.6,44.6Zm12.6,5.8A3.07647,3.07647,0,0,1,18,49.2,9.1297,9.1297,0,0,1,16.7,47q-.45-1.05-.9-2.4c1-.5,1.1-.2,2.2-.2s1.1.3,2.2.3h2.2c1.1,0,1.2-.6,2.2-.1a13.36962,13.36962,0,0,1-.9,2.4,9.25148,9.25148,0,0,1-1.4,2.2A2.738,2.738,0,0,1,20.2,50.4Zm4.3-.5a15.88319,15.88319,0,0,0,1.6-3.2,19.45219,19.45219,0,0,0,.8-2.2c1.4-.4,1.5.1,3,.1s1.6-.6,3-.2A16.178,16.178,0,0,1,31,46.2a9.5096,9.5096,0,0,1-2,1.5A23.924,23.924,0,0,1,26.9,49,11.72481,11.72481,0,0,1,24.5,49.9Zm9.8-7.6a5.86269,5.86269,0,0,1-2.3.1H29.7c-1.1,0-1.2.3-2.3-.1.2-.8.1-1.6.3-2.4.1-.8.5-1.6.6-2.4a17.65208,17.65208,0,0,0,0-2.3c1.3-.4,1.3-.1,2.7-.1s1.4-.1,2.8-.1,1.5-.4,2.8,0a19.96885,19.96885,0,0,1-.5,2.6,22.67619,22.67619,0,0,1-.6,2.5A9.40949,9.40949,0,0,1,34.3,42.3Z" style="fill:#ea3a32"/><path d="M19.78318,16.45438a1.068,1.068,0,0,0,1.07451-1.02078V14.30536c0-.591-.05372-.591-.05372-1.12824V12.04888a1.07768,1.07768,0,0,0-1.07452-1.07451.91515.91515,0,0,0-1.02079.96706c0,.591-.05372.591-.05372,1.12824v1.12824c0,.53725.05372.64471.05372,1.182A1.07768,1.07768,0,0,0,19.78318,16.45438Z" style="fill:#2d424c"/><path d="M30.04478,16.45438a1.03293,1.03293,0,0,0,1.07451-1.02078V12.04888a1.07767,1.07767,0,0,0-1.07451-1.07451A1.03294,1.03294,0,0,0,29.024,12.04888c0,.591-.05372.591-.05372,1.12824v1.12824c0,.53726.05372.591.05372,1.12824A.987.987,0,0,0,30.04478,16.45438Z" style="fill:#2d424c"/><path d="M35.04127,13.3383c-.69844,0-.69844.10745-1.39687.10745s-.75216-.32236-1.34314.05372c-.42981.26863,0,.42981,0,.91334s.05372.48353.05372.96706a2.55513,2.55513,0,0,1-.37608,1.12824,2.48706,2.48706,0,0,1-.80588.85961,2.1398,2.1398,0,0,1-1.182.26863,1.90906,1.90906,0,0,1-1.07451-.42981,2.4572,2.4572,0,0,1-.91334-.75215,2.06574,2.06574,0,0,1-.26862-1.12824c0-.48353-.05373-.48353-.05373-.96707s.37608-.6447,0-.91333c-.591-.42981-.64471,0-1.39687,0-.69843,0-.69843-.16118-1.45059-.16118-.69843,0-.69843-.05372-1.45059-.05372s-.75216-.21491-1.34314.2149c-.42981.26863,0,.48353,0,.96706v.96706a1.98622,1.98622,0,0,1-.32236,1.12824,2.48709,2.48709,0,0,1-.85961.80589,1.95809,1.95809,0,0,1-1.12824.26862,1.81527,1.81527,0,0,1-1.07451-.32235,2.89647,2.89647,0,0,1-.85961-.75216,2.49179,2.49179,0,0,1-.2149-1.12824c0-.48353-.16118-.48353-.16118-.96706s.48353-.69843.05372-1.02079c-.53725-.37608-.69843,0-1.34314,0s-.6447.10745-1.34314.10745a.81239.81239,0,0,0-.91333.75216c0,.64471.16117.64471.16117,1.23569,0,.64471-.10745.64471-.10745,1.23569,0,.64471-.05372.64471-.05372,1.23569,0,.64471-.05373.64471-.05373,1.23569,0,.64471.05373.64471.05373,1.23569v1.23569c0,.64471.10745.64471.10745,1.23569,0,.64471-.10745.64471-.10745,1.23569,0,.64471-.05373.64471-.05373,1.23569,0,.64471.16118.64471.16118,1.23569,0,.64471-.10745.64471-.10745,1.23569v1.23569c0,.64471.10745.64471.10745,1.23569a9.921,9.921,0,0,1-.10745,1.55805v1.28942a.92861.92861,0,0,0,.91333.80588c.64471,0,.64471.16118,1.28942.16118s.64471-.10745,1.28941-.10745.64471-.05373,1.28942-.05373.64471.10745,1.28942.10745h1.28941c.64471,0,.64471.05373,1.28942.05373s.64471-.10745,1.28941-.10745H25.102c.64471,0,.64471.05372,1.28941.05372s.64471-.05372,1.28942-.05372.64471.05372,1.28942.05372.6447.05372,1.28941.05372.64471-.05372,1.28942-.05372.64471-.10745,1.28941-.10745.64471.10745,1.28942.10745h1.28942a.88357.88357,0,0,0,.85961-.85961c0-.64471-.10746-.64471-.10746-1.23569,0-.64471.16118-.64471.16118-1.23569,0-.64471-.05372-.64471-.05372-1.23569,0-.64471-.05373-.64471-.05373-1.23569,0-.64471.05373-.64471.05373-1.23569,0-.64471.05372-.64471.05372-1.23569,0-.64471-.10745-.64471-.10745-1.23569,0-.64471-.10745-.64471-.10745-1.23569,0-.64471.05372-.64471.05372-1.23569,0-.64471.05373-.64471.05373-1.23569,0-.64471-.10745-.64471-.10745-1.23569,0-.64471.10745-.64471.10745-1.23569,0-.64471-.10745-.64471-.10745-1.23569,0-.64471.05372-.64471.05372-1.28941s.10745-.64471.10745-1.28942C36.00833,13.7681,35.5248,13.3383,35.04127,13.3383Zm-.85962,18.91143c-.48353.4298-.591.05372-1.23568.05372s-.64471.05373-1.34315.05373c-.6447,0-.6447-.05373-1.34314-.05373-.64471,0-.64471.05373-1.34314.05373-.64471,0-.64471-.05373-1.34314-.05373-.64471,0-.64471.05373-1.34314.05373H24.88712c-.64471,0-.64471-.16118-1.34315-.16118-.6447,0-.6447.10745-1.34314.10745-.6447,0-.6447-.05372-1.34314-.05372a7.54389,7.54389,0,0,1-1.23569.10745c-.64471,0-.64471.05373-1.34314.05373H16.93572c-.69844,0-.80589.32235-1.28942-.16118-.4298-.42981.05373-.591.05373-1.182,0-.6447-.10745-.6447-.10745-1.23569V26.125c0-.6447.05372-.6447.05372-1.23569V22.41794c0-.64471-.05372-.64471-.05372-1.23569,0-.64471-.37608-.75216.05372-1.182.48353-.4298.591-.10745,1.28942-.10745.64471,0,.64471.10745,1.34314.10745H19.622c.64471,0,.64471-.10745,1.34314-.10745.64471,0,.64471.16118,1.34314.16118.64471,0,.64471-.16118,1.34315-.16118.6447,0,.6447.10745,1.34314.10745.64471,0,.64471.05373,1.34314.05373.64471,0,.64471.05372,1.34314.05372.64471,0,.64471-.05372,1.34314-.05372h1.34314c.64471,0,.64471-.10746,1.34315-.10746.6447,0,.6447.10746,1.34314.10746s.80588-.42981,1.28941,0c.42981.4298.10746.53725.10746,1.182s-.10746.64471-.10746,1.23569v1.23569c0,.591.10746.591.10746,1.23569s-.16118.64471-.16118,1.23569v1.23569c0,.64471.10745.64471.10745,1.23569,0,.64471-.16118.64471-.16118,1.23569a4.60834,4.60834,0,0,0,.10746,1.23569C34.39656,31.65875,34.61146,31.81992,34.18165,32.24973Z" style="fill:#2d424c"/><path d="M23.06044,21.98813c.48353-.37608.64471,0,1.23569,0h1.28942c.64471,0,.75216-.37608,1.28941,0,.37608.32235,0,.48353,0,1.02079s.42981.69843,0,1.02078c-.48353.37608-.6447,0-1.28941,0H24.29613c-.6447,0-.80588.37608-1.28941,0-.37608-.32235.10745-.53725,0-1.02078C22.89927,22.41793,22.63064,22.25676,23.06044,21.98813Z" style="fill:#2d424c"/><path d="M28.37928,21.9344c.48353-.37608.64471,0,1.28942,0h1.28942c.6447,0,.75216-.4298,1.28941,0,.37608.32236,0,.48353,0,1.02079s.42981.69843,0,.96706c-.48353.37608-.64471,0-1.23569,0H29.72243c-.64471,0-.75216.37608-1.23569,0-.37608-.32235.10745-.48353,0-.96706C28.21811,22.41793,27.94948,22.25676,28.37928,21.9344Z" style="fill:#2d424c"/><path d="M17.7416,25.15794c.48353-.37608.64471,0,1.23569,0h1.28942c.64471,0,.75216-.4298,1.28941,0,.37608.32236,0,.48353,0,1.02079,0,.48353.37608.69843,0,.96706-.48353.37608-.6447,0-1.23569,0H19.031c-.64471,0-.75216.37608-1.23569,0-.37608-.32235.10745-.48353,0-.96706C17.58043,25.64147,17.3118,25.4803,17.7416,25.15794Z" style="fill:#2d424c"/><path d="M23.00672,25.15794c.48353-.37608.64471,0,1.28941,0h1.28942c.64471,0,.75216-.37608,1.28941,0,.37608.32236,0,.48353,0,1.02079,0,.48353.42981.69843,0,1.02079-.48353.37608-.6447,0-1.28941,0H24.29613c-.6447,0-.75216.37608-1.28941,0-.37608-.32236.10745-.53726,0-1.02079C22.89927,25.64147,22.63064,25.4803,23.00672,25.15794Z" style="fill:#2d424c"/><path d="M28.32556,25.15794c.48353-.37608.64471,0,1.28941,0h1.28942c.64471,0,.75216-.37608,1.28942,0,.37608.32236,0,.48353,0,.96706s.37608.69844,0,.96707c-.48354.37608-.64471,0-1.23569,0H29.6687c-.64471,0-.75216.37608-1.23569,0-.37608-.32236.10745-.48354,0-.96707C28.21811,25.64147,27.94948,25.4803,28.32556,25.15794Z" style="fill:#2d424c"/><path d="M17.68788,28.38148c.48353-.37608.64471,0,1.28941,0h1.28942c.64471,0,.75216-.4298,1.28941,0,.37608.32235,0,.48353,0,1.02079,0,.48353.37608.69843,0,1.02079-.48353.37608-.6447,0-1.28941,0H18.97729c-.6447,0-.80588.32235-1.28941-.05373-.37608-.32235.16117-.53726,0-1.02079C17.58043,28.81129,17.3118,28.65011,17.68788,28.38148Z" style="fill:#2d424c"/><path d="M23.00672,28.38148c.48353-.37608.64471,0,1.28941,0h1.28942c.64471,0,.75216-.37608,1.28941,0,.37608.32235,0,.48353,0,.96706s.37608.69844,0,.96706c-.48353.37608-.6447,0-1.23568,0H24.34986c-.64471,0-.80589.37608-1.28942,0-.37608-.32235.10746-.53725,0-1.02078C22.89927,28.865,22.63064,28.65011,23.00672,28.38148Z" style="fill:#2d424c"/><path d="M28.37928,28.38148c.48353-.37608.64471,0,1.28942,0h1.28942c.6447,0,.75216-.4298,1.28941,0,.37608.32235,0,.48353,0,1.02079,0,.48353.37608.69843,0,1.02079-.48353.37608-.64471,0-1.28941,0H29.6687c-.64471,0-.75216.4298-1.28942,0-.37608-.32236.16118-.53726,0-1.02079C28.27183,28.865,27.94948,28.70384,28.37928,28.38148Z" style="fill:#2d424c"/></svg>