<?xml version="1.0" encoding="utf-8"?>
<!-- Generator: Adobe Illustrator 21.0.0, SVG Export Plug-In . SVG Version: 6.00 Build 0)  -->
<svg version="1.1" id="Layer_1" xmlns="http://www.w3.org/2000/svg" xmlns:xlink="http://www.w3.org/1999/xlink" x="0px" y="0px"
	 viewBox="0 0 60.7 60.7" style="enable-background:new 0 0 60.7 60.7;" xml:space="preserve">
<style type="text/css">
	.st0{fill:none;}
	.st1{fill:#FFFFFF;}
</style>
<g id="_x31_28px_boxes">
	<rect x="-33.6" y="-33.6" class="st0" width="128" height="128"/>
</g>
<g id="Production">
	<path class="st1" d="M43.1,30.4l16.6-16.6c1.4-1.4,1.4-3.6,0-4.9L51.9,1c-1.4-1.4-3.6-1.4-4.9,0L30.4,17.6L13.8,1
		c-1.4-1.4-3.6-1.4-5,0L1,8.8c-1.4,1.4-1.4,3.6,0,4.9l16.6,16.6L1,47c-1.4,1.4-1.4,3.6,0,4.9l7.8,7.8c1.4,1.4,3.6,1.4,5,0l16.6-16.6
		L47,59.7c1.4,1.4,3.6,1.4,4.9,0l7.8-7.8c1.4-1.4,1.4-3.6,0-4.9L43.1,30.4z"/>
</g>
</svg>
