<?xml version="1.0" encoding="utf-8"?>
<!-- Generator: Adobe Illustrator 21.0.0, SVG Export Plug-In . SVG Version: 6.00 Build 0)  -->
<svg version="1.1" id="Layer_1" xmlns="http://www.w3.org/2000/svg" xmlns:xlink="http://www.w3.org/1999/xlink" x="0px" y="0px"
	 viewBox="0 0 25.7 27.7" style="enable-background:new 0 0 25.7 27.7;" xml:space="preserve">
<style type="text/css">
	.st0{fill:#EA3A32;}
	.st1{fill:#2D424C;}
	.st2{fill:#8C2222;}
</style>
<g>
	<g>
		<path class="st0" d="M5.6,20.1H0l0-8.4c0-2.3,1.5-3.5,4.4-3.5H9v8C9,18.8,7.9,20.1,5.6,20.1z"/>
		<path class="st1" d="M25.7,0v5.7c0,0.8-0.2,1.4-0.7,1.8c-0.5,0.5-1,0.7-1.6,0.7H9V0L25.7,0z"/>
	</g>
	<path class="st2" d="M0,27.7l0-7.6h5.6c2.3,0,3.5-1.3,3.5-3.9v-8h14.3C24,8.2,24.5,8,25,7.5c0.4-0.4,0.6-1,0.7-1.6v21.8H0z"/>
</g>
</svg>
