<?xml version="1.0" encoding="utf-8"?>
<!-- Generator: Adobe Illustrator 21.0.0, SVG Export Plug-In . SVG Version: 6.00 Build 0)  -->
<svg version="1.1" id="Layer_1" xmlns="http://www.w3.org/2000/svg" xmlns:xlink="http://www.w3.org/1999/xlink" x="0px" y="0px"
	 viewBox="0 0 25.7 27.7" style="enable-background:new 0 0 25.7 27.7;" xml:space="preserve">
<style type="text/css">
	.st0{fill:#EA3A32;}
	.st1{fill:#2D424C;}
	.st2{fill:#8C2222;}
</style>
<g>
	<g>
		<path class="st0" d="M20.1,7.6h5.6v8.4c0,2.3-1.5,3.5-4.4,3.5h-4.6v-8C16.6,8.9,17.8,7.6,20.1,7.6z"/>
		<path class="st1" d="M0,27.7l0-5.7c0-0.8,0.2-1.4,0.7-1.8c0.5-0.5,1-0.7,1.6-0.7h14.3v8.2H0z"/>
	</g>
	<path class="st2" d="M25.7,0v7.6h-5.6c-2.3,0-3.5,1.3-3.5,3.9v8H2.3c-0.6,0-1.2,0.2-1.6,0.7c-0.4,0.4-0.6,1-0.7,1.6L0,0L25.7,0z"/>
</g>
</svg>
