<?xml version="1.0" encoding="utf-8"?>
<!-- Generator: Adobe Illustrator 21.0.0, SVG Export Plug-In . SVG Version: 6.00 Build 0)  -->
<svg version="1.1" id="Layer_1" xmlns="http://www.w3.org/2000/svg" xmlns:xlink="http://www.w3.org/1999/xlink" x="0px" y="0px"
	 viewBox="0 0 46.6 47.1" style="enable-background:new 0 0 46.6 47.1;" xml:space="preserve">
<style type="text/css">
	.st0{fill:#EA3A32;}
</style>
<g id="Production_50_">
	<g>
		<g>
			<g>
				<path class="st0" d="M6.1,16.3c1.2,0.2,2.4-0.1,3.4-0.8c1.3,0.2,1.1,0.7,2.4,1.2c1.2,0.6,1.2,0.6,2.4,1.1c1.2,0.6,1.3,0.4,2.5,1
					s1.3,0.5,2.4,1.1c0,0.2,0.2,0.3,0.2,0.5c0.2,0.9,0.5,1.6,1,2.2c0.6,0.6,1.3,1.1,2.1,1.3c0.8,0.2,1.7,0.3,2.5,0.1
					c0.7-0.2,1.4-0.9,1.9-1.6c0.4-0.5,0.6-1.1,0.8-1.7c0.2-0.6,0.1-1.2,0-1.9l0.2-0.1c0.9-0.8,0.7-1,1.6-1.8s1-0.7,1.8-1.6
					c0.9-0.8,0.9-0.8,1.8-1.6c0.9-0.8,0.7-1,1.6-1.8c0.9-0.8,0.8-0.9,1.7-1.7s0.8-1,1.8-1.6C39,8.9,39.9,9.1,40.6,9
					c0.7-0.2,1.5-0.6,2.1-1.1s1-1.2,1.3-2c0.2-0.7-0.1-1.5-0.2-2.2c-0.2-0.9-0.4-1.7-1-2.3S41.5,0.2,40.6,0c-0.9,0-1.7,0-2.4,0.2
					s-1.4,0.7-1.9,1.2s-0.9,1.2-1.1,1.9c-0.2,0.7,0,1.4,0.1,2.1l-0.1,0.2c-0.9,0.8-0.8,0.9-1.7,1.7s-1.1,0.6-1.9,1.5
					c-0.9,0.8-0.8,0.9-1.7,1.8c-0.9,0.8-1,0.7-1.9,1.5s-0.6,1.1-1.5,1.9c-0.9,0.8-0.9,0.9-1.9,1.5c-0.7-0.2-1.3-0.4-1.9-0.3
					c-0.7,0.1-1.3,0.6-1.8,1c-1.3-0.3-1.2-0.6-2.4-1.2c-1.2-0.6-1.2-0.6-2.4-1.2c-1.2-0.6-1.3-0.5-2.5-1c-1.2-0.6-1.4-0.3-2.4-1.2
					c-0.1-1-0.5-1.9-1.1-2.6C9.6,8.2,8.8,7.7,7.8,7.5c-0.7-0.1-1.5-0.2-2.2,0C5,7.7,4.4,8.3,3.9,8.8s-1,1.1-1.3,1.8
					c-0.2,0.7-0.2,1.4-0.1,2.2c0.2,0.9,0.7,1.6,1.4,2.2C4.5,15.5,5.2,16.1,6.1,16.3z"/>
			</g>
			<g>
				<path class="st0" d="M45.2,43.3c-1.2,0-1.2,0-2.4,0s-1.2,0.2-2.4,0.2s-1.2-0.1-2.4-0.1s-1.2,0-2.4,0s-1.2,0.1-2.4,0.1
					s-1.2,0.1-2.4,0.1c-1.2,0-1.2,0-2.4,0c-1.2,0-1.2,0-2.4,0c-1.2,0-1.2-0.2-2.4-0.2c-1.2,0-1.2,0.3-2.4,0.3
					c-1.2,0-1.2-0.4-2.4-0.4c-1.2,0-1.2,0.3-2.4,0.3s-1.2,0.1-2.4,0.1s-1.2-0.1-2.4-0.1s-1.2,0.1-2.4,0.1S8,43.3,6.8,43.3
					s-1.2,0.1-2.4,0.1S3.2,43.3,2,43.3c-0.9,0-1.9,0.9-1.9,1.9c0,0.9,0.9,1.7,1.9,1.7c1.2,0,1.2,0,2.4,0s1.2-0.1,2.4-0.1
					s1.2,0.1,2.4,0.1s1.2,0.1,2.4,0.1s1.2,0.2,2.4,0.2s1.2-0.2,2.4-0.2s1.2-0.1,2.4-0.1c1.2,0,1.2-0.1,2.4-0.1
					c1.2,0,1.2,0.3,2.4,0.3c1.2,0,1.2-0.2,2.4-0.2c1.2,0,1.2,0.1,2.4,0.1c1.2,0,1.2,0.1,2.4,0.1c1.2,0,1.2-0.2,2.4-0.2
					c1.2,0,1.2-0.1,2.4-0.1s1.2,0.1,2.4,0.1s1.2,0.3,2.4,0.3s1.2,0,2.4,0s1.2,0,2.4,0c0.9,0,1.5-1,1.5-1.9
					C46.6,44.2,46.1,43.3,45.2,43.3z"/>
			</g>
			<g>
				<path class="st0" d="M42.5,18.7c-1.1,0-1.1-0.1-2.2-0.1c-1.1,0-1.1,0-2.2,0c-1.1,0-1.1,0-2.2,0s-1.1,0.1-2.2,0.1
					c-0.8,0-1.6,0.6-1.6,1.4c0,1.2,0.1,1.2,0.1,2.4c0,1.2-0.1,1.2-0.1,2.4c0,1.2,0,1.2,0,2.4c0,1.2,0,1.2,0,2.4c0,1.2,0,1.2,0,2.4
					c0,1.2,0,1.2,0,2.4s0,1.2,0,2.4s0.1,1.2,0.1,2.4s-0.9,1.6,0,2.4c0.8,0.8,1.2,0,2.4,0s1.2,0,2.3,0c1.2,0,1.2-0.1,2.3-0.1
					c1.2,0,1.2,0,2.3,0c1.2,0,1.5,0.9,2.3,0c0.8-0.8,0.1-1.2,0.1-2.3c0-1.2-0.1-1.2-0.1-2.4s0.2-1.2,0.2-2.4s-0.1-1.2-0.1-2.4
					s0-1.2,0-2.4c0-1.2,0-1.2,0-2.4c0-1.2-0.1-1.2-0.1-2.4c0-1.2,0.2-1.2,0.2-2.4s0-1.2,0-2.4C44,19.3,43.3,18.7,42.5,18.7z"/>
			</g>
			<g>
				<path class="st0" d="M19.1,30.3c-0.8,0-1.4,0.7-1.4,1.5c0,1.2,0,1.2,0,2.4s0,1.2,0,2.4s0,1.2,0,2.4s-0.9,1.6-0.1,2.5
					c0.8,0.8,1.2-0.1,2.4-0.1c1.2,0,1.2,0,2.3,0c1.2,0,1.2,0.1,2.3,0.1c1.2,0,1.2,0,2.3,0s1.5,0.8,2.3,0c0.8-0.9,0-1.2,0-2.4
					s0.1-1.2,0.1-2.4s0-1.2,0-2.4s0-1.2,0-2.4c0-0.8-0.7-1.5-1.5-1.5c-1.1,0-1.1,0-2.2,0s-1.1,0-2.2,0s-1.1,0-2.2,0
					C20.2,30.3,20.2,30.3,19.1,30.3z"/>
			</g>
			<g>
				<path class="st0" d="M4.5,24.5C3.7,24.5,3,25.2,3,26c0,1.3,0,1.3,0,2.6c0,1.3,0.1,1.3,0.1,2.6c0,1.3-0.1,1.3-0.1,2.6
					s0,1.3,0,2.6s0,1.3,0,2.6s-0.9,1.6,0,2.6c0.8,0.9,1.2,0.1,2.4,0.1s1.2-0.1,2.3-0.1c1.2,0,1.2-0.1,2.3-0.1c1.2,0,1.2,0,2.3,0
					s1.6,0.9,2.3,0c0.9-1-0.1-1.3-0.1-2.6s0.1-1.3,0.1-2.6s-0.1-1.3-0.1-2.6s0-1.3,0-2.6c0-1.3,0.1-1.3,0.1-2.6c0-1.3,0-1.3,0-2.6
					c0-0.8-0.7-1.5-1.5-1.5c-1.1,0-1.1,0.1-2.2,0.1s-1.1-0.1-2.2-0.1s-1.1,0.1-2.2,0.1C5.6,24.4,5.6,24.5,4.5,24.5z"/>
			</g>
		</g>
	</g>
</g>
</svg>
