<?xml version="1.0" encoding="utf-8"?>
<!-- Generator: Adobe Illustrator 21.0.0, SVG Export Plug-In . SVG Version: 6.00 Build 0)  -->
<svg version="1.1" id="Layer_1" xmlns="http://www.w3.org/2000/svg" xmlns:xlink="http://www.w3.org/1999/xlink" x="0px" y="0px"
	 viewBox="0 0 51.4 45.6" style="enable-background:new 0 0 51.4 45.6;" xml:space="preserve">
<style type="text/css">
	.st0{fill:#4C7E96;}
</style>
<g id="Production_95_">
	<g>
		<g>
			<g>
				<path class="st0" d="M49.5,25.1c-1.1,0.3-0.9,0.8-1.9,1.4c-1,0.6-1.1,0.5-2.1,1.1c-1.1,0.6-1.1,0.6-2.2,1.2
					c-1.1,0.6-1.1,0.6-2.2,1.3c-1.1,0.6-1.2,0.4-2.3,1.1c-1.1,0.6-0.9,1-2,1.6c-1.1,0.6-1.2,0.4-2.3,1c-1.1,0.6-1.1,0.6-2.2,1.2
					c-1.1,0.6-1,0.7-2.1,1.4c-1.1,0.6-1.1,0.6-2.2,1.2c-1.1,0.6-0.9,0.9-2,1.6c-1.1,0.6-1.1,0.7-2.1,1.3c-1.1,0.6-1,0.7-2.3,1
					c-0.9-0.6-1-0.8-1.8-1.4c-0.4-0.3-1.2-0.4-2.2-1.1c-0.5-0.4-1.1-0.9-1.9-1.4c-0.6-0.4-1.1-1-1.9-1.5c-0.6-0.4-1.5-0.5-2.2-0.9
					c-0.6-0.4-1.2-1-1.9-1.4c-0.6-0.4-1.2-1-1.9-1.5c-0.6-0.4-1.2-0.9-1.9-1.4c-0.6-0.4-1.4-0.8-2.1-1.2c-0.6-0.4-1.4-0.6-2.1-1.1
					c-0.7,0.3-1.6,0.6-1.7,1.8c0,0.6,0.3,1.2,0.8,1.6c1,0.7,1,0.6,2,1.2c1,0.7,0.9,0.8,1.9,1.5s1,0.7,1.9,1.4c1,0.7,1,0.7,2,1.3
					c1,0.7,1,0.7,2,1.4c1,0.7,1.1,0.5,2.1,1.2c1,0.7,0.9,0.8,1.9,1.4c1,0.7,1.1,0.5,2.1,1.2c1,0.7,0.8,0.9,1.8,1.6
					c1,0.7,0.9,0.8,1.9,1.5c0.6,0.4,1.4,0,2-0.3c1-0.6,1.2-0.3,2.1-0.9c1-0.6,0.8-0.9,1.8-1.5c1-0.6,1.2-0.2,2.2-0.8
					c1-0.6,0.8-0.8,1.8-1.4c1-0.6,1.1-0.4,2.1-1c1-0.6,0.9-0.7,1.9-1.3s1.1-0.5,2-1.1c1-0.6,1.1-0.5,2.1-1.1c1-0.6,0.8-1,1.8-1.6
					c1-0.6,1.2-0.3,2.1-0.9c1-0.6,0.8-0.9,1.8-1.5c1-0.6,1.1-0.4,2.1-1c1-0.6,1-0.6,2-1.2s1.1-0.5,2.1-1.1c0.6-0.3,1-1,1-1.7
					C51.5,25.8,50.3,25.5,49.5,25.1z"/>
			</g>
			<g>
				<path class="st0" d="M1,24.7c1,0.6,0.9,0.8,1.8,1.5c1,0.6,1.1,0.5,2.1,1.1c1,0.6,1,0.6,2,1.2c1,0.6,0.9,0.8,1.8,1.5
					c1,0.6,1.1,0.4,2.1,1c1,0.6,1,0.7,2,1.3c1,0.6,0.9,0.8,1.9,1.5c1,0.6,1.2,0.3,2.2,0.9c1,0.6,0.9,0.8,1.9,1.5c1,0.6,1,0.6,2,1.2
					c0.6,0.4,1.4,0.6,1.9,0.3c1.1-0.6,1-0.7,2.1-1.3c1.1-0.6,0.9-0.8,2-1.5c1.1-0.6,1.2-0.3,2.3-1c1.1-0.6,0.9-0.9,1.9-1.6
					c1.1-0.6,1.2-0.5,2.2-1.1c1.1-0.6,1.1-0.6,2.2-1.2c1.1-0.6,1.2-0.4,2.3-1c1.1-0.6,1.1-0.7,2.1-1.3c1.1-0.6,0.9-0.9,2-1.5
					c1.1-0.6,1.1-0.6,2.2-1.2c1.1-0.6,1.1-0.6,2.2-1.2c1.1-0.6,1-0.7,2.1-1.3s1.1-0.5,2.2-1.2c0.6-0.3,1.1-0.9,1-1.6
					c0-1.2-1.2-1.7-2.1-2.2c-0.8,0.5-1.3,1.3-1.9,1.7c-0.7,0.4-1.5,0.5-2.3,0.9c-0.6,0.3-1.3,0.7-2.1,1.2c-0.6,0.4-1.2,1-2,1.4
					c-0.6,0.4-1.4,0.6-2.2,1.1c-0.7,0.4-1.4,0.8-2.1,1.2c-0.7,0.4-1.4,0.7-2.2,1.1c-0.7,0.4-1.2,1.1-1.9,1.6
					c-0.7,0.4-1.6,0.5-2.3,0.9c-0.7,0.4-1.3,0.9-2,1.4c-0.7,0.4-1.3,0.9-2.1,1.3c-0.7,0.4-1.4,0.7-2.2,1.2c-0.7,0.4-1.4,1-2.2,1.4
					c-1.2-0.1-0.7-0.7-1.9-1.5c-0.6-0.4-1.2-0.9-1.9-1.4c-0.6-0.4-1.5-0.5-2.2-1c-0.6-0.4-1.2-1-1.8-1.5c-0.6-0.4-1.4-0.7-2.1-1.1
					c-0.7-0.4-1.3-0.9-1.9-1.4c-0.7-0.4-1.2-1.1-1.8-1.5c-0.7-0.4-1.5-0.7-2.1-1.1c-0.7-0.5-1.4-0.9-2-1.2c-1.1-0.7-1.8-1.3-1.9-1.4
					c-0.9,0.4-1.8,0.8-1.8,2C0.2,23.8,0.4,24.3,1,24.7z"/>
			</g>
			<g>
				<path class="st0" d="M0.9,17.1c0,0,0.7,0.4,2.4,1.5C3.9,19,4.7,19.4,5.6,20c0.7,0.4,1.3,1.2,2.2,1.8c0.5,0.3,1.2,0.4,1.8,0.6
					c0.6,0.2,1.2,0.6,1.8,0.6c1.2,0,0.9-0.1,2.4-0.1c0.7,0,1.5-0.1,2.4-0.1c0.7,0,1.6,0,2.4,0c0.8,0,1.6,0.3,2.4,0.3
					c0.8,0,1.6,0,2.4,0c0.8,0,1.6-0.3,2.4-0.3c0.8,0,1.6,0.1,2.4,0.1c0.9,0,1.7,0,2.4,0c1.4,0,2.3-0.1,2.4-0.1
					c0.8,0,1.6,0.1,2.4-0.1c0.8-0.2,1.6-0.4,2.3-0.7c0.8-0.4,1.3-1.2,2-1.6c0.8-0.4,1.5-0.9,2.2-1.3c0.8-0.4,1.5-0.8,2.2-1.2
					c0.8-0.5,1.5-0.9,2.2-1.3c0.8-0.5,1.5-1,2.1-1.4c1.3-0.8,2.2-1.1,2.3-1.1c0.6-0.4,0.8-1.1,0.8-1.7c0-0.6-0.4-1.1-1.1-1.5
					c-1.1-0.6-1.2-0.5-2.3-1.1c-1.1-0.6-1.1-0.6-2.2-1.2c-1.1-0.6-1-0.8-2.1-1.3c-1.1-0.6-1.1-0.6-2.2-1.2c-1.1-0.6-1.2-0.5-2.3-1.1
					c-1.1-0.6-1.2-0.4-2.3-1c-1.1-0.6-1-0.9-2.1-1.5c-1.1-0.6-1.2-0.5-2.3-1.1s-1.2-0.4-2.3-1C29.6,0,29-0.1,28.4,0.1
					c-1.1,0.5-1,0.7-2,1.2c-1.1,0.5-1.1,0.5-2.1,1c-1.1,0.5-0.9,0.8-2,1.3c-1.1,0.5-1,0.6-2.1,1.1C19.1,5.3,19,5.1,18,5.6
					c-1.1,0.5-1,0.6-2.1,1.1c-1.1,0.5-1.2,0.3-2.2,0.8c-1.1,0.5-0.9,0.9-1.9,1.4c-1.1,0.5-1.1,0.4-2.2,0.9c-1.1,0.5-1.1,0.5-2.1,1
					c-1.1,0.5-1.1,0.4-2.2,1c-1.1,0.5-0.9,0.9-2,1.4S2,13.4,1,13.9c-0.6,0.3-0.6,1.1-0.6,1.7C0.3,16.2,0.3,16.7,0.9,17.1z M29.3,3.8
					c1.2,0,1.1,0.4,2.2,1c1,0.5,1.1,0.5,2.1,1c1,0.5,0.9,0.8,1.9,1.3c1,0.5,1.1,0.4,2.2,0.9c1,0.5,0.9,0.8,1.9,1.3
					c1,0.5,1.1,0.5,2.1,1c1,0.5,1.1,0.4,2.2,1c1,0.5,1.3,0.3,2.1,1.1c-0.6,0.4-1.4,0.8-2.2,1.2c-0.6,0.4-1.3,0.8-2,1.2
					c-0.6,0.4-1.2,1-1.9,1.4c-0.7,0.4-1.4,0.7-2.1,1.1c-0.7,0.4-1.4,0.7-2.1,1.1C35,19,34,19.3,33,19.3c-0.8,0-1.5-0.3-2.3-0.5
					c-0.7-0.2-1.4-0.7-2.1-1c-0.7-0.4-1.6-0.4-2.2-0.9c-0.7-0.5-1.4-1-1.9-1.4c-1-0.9-1.6-1.7-1.6-1.7c-0.7-0.8-1.7-0.9-2.5,0
					c-0.4,0.5-1,1.2-1.8,1.9c-0.6,0.5-1.5,0.9-2.3,1.4c-0.7,0.5-1.5,1-2.3,1.4c-0.9,0.4-1.7,0.7-2.5,0.7c-0.7,0-1.3-0.1-1.8-0.4
					c-0.8-0.5-1.5-1-2.2-1.5c-0.9-0.6-1.4-1-2-1.4c0.9-0.8,1.1-0.5,2.2-1c1.1-0.5,1-0.6,2.1-1.2c1.1-0.5,1-0.7,2.1-1.2
					c1.1-0.5,1.2-0.2,2.3-0.8c1.1-0.5,1-0.6,2.1-1.2c1.1-0.5,1-0.7,2.1-1.2c1.1-0.5,1.2-0.4,2.2-0.9c1.1-0.5,1-0.7,2.1-1.2
					c1.1-0.5,1.1-0.5,2.2-1c1.1-0.5,1-0.6,2-1.3C28.1,4.1,28.1,3.8,29.3,3.8z"/>
			</g>
		</g>
	</g>
</g>
</svg>
