<svg xmlns="http://www.w3.org/2000/svg" width="252.38487mm" height="178.53875mm" viewBox="0 0 715.42169 506.0941"><title>dotsmap-grey</title><path d="M292.96932,8.17478l44.507,78.463,117.76-3.687-45.865-17.686m-161.059,20.075,44.657-77.165,116.402,57.09-71.895,21.373L221.90131.13377l71.068,8.041m139.025,445.639-26.643,40.833-206.343-149.845,138.5-67.379m-84.458,154.972,24.579,70.99594m-148.411-28.544,148.411,28.544,17.231-158.58895m12.233-111.175,63.053-126.557,19.596,89.591-132.071,53.439m4.631,14.523,75.206,12.8-.032-190.785,85.013,53.168,23.104,26.442,17.277-33.875m-188.916,1.963,181.282-51.385-65.494,113.71,50.776-9.613,5.075-20.8-55.851,30.413m-183.734,106.918,167.126,44.292-78.274-3.069,42.648-67.379,35.626,70.448,72.459,3.484m42.26-29.645-22.962-50.306m65.164-60.909,71.689-31.417m44.714-67.372-27.005,99.42-46.606,30.491,137.301,5.774-97.632,74.754-57.377-.01-17.691-54.572,64.296,20.656,28.624,90.056-59.59-1.574,2.071-67.544-107.958-37.753-32.897,41.881,59.002,19.587-43.814,9.911,19.575-17.958,106.092-15.668m-60.557-195.267,42.847,73.158m-73.293-49.259,48.125-100.242,25.174,107.901-.006,41.6-46.301-7.974-63.245-12.826,66.699-52.358-3.617,31.558-45.805-13.075-7.634-49.422,74.735-45.404-67.101,94.826m-40.17,244.341,9.294,77.1,32.885-32.948,26.264-10.534m17.692,54.562-76.841-11.08-73.593-68.306,87.192-34.153-42.591-63.083-29.868,59.599,38.707,52.503-134.212,103.017,187.25-82.525Zm74.927-54.559-12.984-33.634-38.793-25.346,112.5-31.743,65.663-72.221-183.619,12.219-139.6,1.339,2.813-64.288,68.306,42.189,46.665-46.786-64.195-5.016-103.01,90.375,94.486,35.862m0,140.529,19.317-56.159-28.611-20.941,63.202-9.521,19.157-35.125-118.13-71.119,77.962-46.621,61.638,45.282,18.514-18.513,33.478,33.478-92.619,92.618-53.908-53.908-9.294,63.429,69.365,7.963,50.102,33.613,19.768-7.969,17.698,14.612-13.579,39.969m46.462-142.757-73.742,55.533-46.709,6.999-40.754,12.978,39.832,12.677,63.996,20.944,85.561,32.115-67.857,22.459-6.789-20.948-57.219-.008-17.692-54.562,47.631-32.654,44.988,32.657,15.775-54.577-134.646-84.354,90.248-84.356,91.319-75.342-91.313,33.742-46.307,33.626-4.125,12.99,68.134,49.553,28.897-62.539,108.404,68.313m-415.288,97.411,63.541,40.706-105.351,46.887-54.042-87.593-17.277,33.875,176.67-59.939-108.239-30.466-56.873,144.123-17.235,62.809,76.996-62.809m0,0,41.81-87.593-107.181-28.539,11.329,28.539h95.852m-95.852-185.107,74.946-25.359,33.139,99.291,79.836,27.322-49.421,16.474m-180.761-88.083,22.962,50.306m-65.163,60.909-71.69,31.417m-38.271,62.924,20.563-94.972,46.606-30.491-57.519-25.947,17.85-54.58106,57.376.01,17.692,54.571-64.297-20.655,2.208-67.539,28.759-20.943-2.071,67.544,107.957,37.753,32.898-41.882-59.003-19.586,43.814-9.911-19.574,17.958-106.092,15.668m60.557,195.267-42.848-73.158m73.294,49.259-33.537,101.586-39.762-109.245.005-41.6,46.301,7.974,63.246,12.826-66.699,52.358,3.453-65.184,45.969,46.701,71.319,53.718-123.832,42.45194,52.513-96.16995m40.17-244.341-9.294-77.1-40.772,26.99-18.378,16.492m-17.691-54.563,76.841,11.081,177.135,139.425-190.734-36.966,42.591,63.083,32.355-88.442-41.195-23.661,104.717-24.037-165.641-2.412Zm-74.927,54.559,12.984,33.635,38.792,25.346-112.499,31.742,14.119,52.049,103.836,7.954,139.6-1.34,37.189,94.702-126.632-58.75-28.341,32.933,47.792-2.722,119.414-82.636-94.486-35.863m0-140.528-19.318,56.15905,28.612,20.941-63.202,9.52-19.158,35.126,118.13,71.118-89.443,35.952-50.157-34.612-18.513,18.513-33.478-33.478,92.619-92.619,53.908,53.908,9.294-63.428-69.366-7.964-50.101-33.612-19.768,7.969-17.699-14.613,49.313-60.91595m-82.195,163.705,73.742-55.534,46.708-6.999,40.754-12.977-39.832-12.677-17.691-54.563-70.799,39.961,42.523-81.863,6.79,20.947,21.486,20.955,17.691,54.56305-47.63,32.653-44.988-32.657-15.775,54.578,134.645,84.354-90.248,84.356-84.876,70.894,84.871-29.294,46.306-33.626,4.125-12.991-68.133-49.552-28.898,62.539-28.621-88.486" transform="translate(0.49584 0.57026)" style="fill:none;stroke:#eaeced;stroke-miterlimit:10"/><path d="M639.51549,458.9705a1.76752,1.76752,0,0,1-.687-.163,1.73782,1.73782,0,0,1-.575-.397c-.17-.169-.403-.308-.496-.533a1.94567,1.94567,0,0,1-.092-.729,1.89781,1.89781,0,0,1,.113-.719,1.94326,1.94326,0,0,1,.394-.625,1.92067,1.92067,0,0,1,.64-.354,1.82417,1.82417,0,0,1,.703-.132,1.76434,1.76434,0,0,1,.684.18,1.89378,1.89378,0,0,1,.653.314,1.92974,1.92974,0,0,1,.398.618,1.89587,1.89587,0,0,1,.121.718,1.84527,1.84527,0,0,1-.155.705,1.915,1.915,0,0,1-.365.631,1.96255,1.96255,0,0,1-.615.405,1.9008,1.9008,0,0,1-.721.081m.007-6.088a4.38174,4.38174,0,0,0-.671.026,4.45666,4.45666,0,0,0-.658.14606,4.26349,4.26349,0,0,0-.57.364,4.10656,4.10656,0,0,0-.591.301,4.63194,4.63194,0,0,0-.897.966,4.35673,4.35673,0,0,0-.399.531,4.26444,4.26444,0,0,0-.263.613,4.315,4.315,0,0,0-.199.643,4.57892,4.57892,0,0,0,.052.673,4.632,4.632,0,0,0,.03.636,3.90548,3.90548,0,0,0,.121.628,3.7356,3.7356,0,0,0,.228.599,4.467,4.467,0,0,0,.372.522c.124.177.251.344.389.505.141.164.258.345.402.501.147.158.329.282.47.441a7.33272,7.33272,0,0,0,.709,1.145,5.2538,5.2538,0,0,1,.272.608,5.86385,5.86385,0,0,1,.263.615c.06.215.097.434.137.657.04.216.053.438.081.665.027.217.105.433.127.662a.5982.5982,0,0,0,.594.583.606.606,0,0,0,.604-.582c.022-.229.028-.454.055-.671.028-.227.096-.443.135-.66.041-.223.133-.428.192-.642a5.84938,5.84938,0,0,1,.186-.641,5.34422,5.34422,0,0,1,.237-.632,6.13479,6.13479,0,0,1,.413-.533c.126-.173.263-.347.419-.523.141-.158.233-.365.38-.523.145-.156.329-.278.469-.442.138-.161.321-.294.446-.471a4.94214,4.94214,0,0,0,.244-.604,3.8062,3.8062,0,0,0,.32-.563,4.063,4.063,0,0,0,.147-.632,4.92082,4.92082,0,0,0-.014-.648,4.16459,4.16459,0,0,0-.103-.654,4.36633,4.36633,0,0,0-.07-.665,4.17829,4.17829,0,0,0-.277-.609,4.25392,4.25392,0,0,0-.355-.562,2.52453,2.52453,0,0,0-1.528-1.237,4.16381,4.16381,0,0,0-.599-.274,4.25284,4.25284,0,0,0-.628-.24,4.40249,4.40249,0,0,0-.672-.022" transform="translate(0.49584 0.57026)" style="fill:#eaeced"/><path d="M601.7202,282.0026a1.76819,1.76819,0,0,1-.687-.163,1.73734,1.73734,0,0,1-.575-.397c-.17-.169-.403-.308-.496-.533a1.94565,1.94565,0,0,1-.092-.729,1.89776,1.89776,0,0,1,.113-.719,1.943,1.943,0,0,1,.394-.625,1.92079,1.92079,0,0,1,.64-.354,1.82382,1.82382,0,0,1,.703-.131,1.76339,1.76339,0,0,1,.684.179,1.89372,1.89372,0,0,1,.653.314,1.92979,1.92979,0,0,1,.398.618,1.89576,1.89576,0,0,1,.121.718,1.84517,1.84517,0,0,1-.155.705,1.915,1.915,0,0,1-.365.631,1.96263,1.96263,0,0,1-.615.405,1.9004,1.9004,0,0,1-.721.081m.007-6.088a4.38052,4.38052,0,0,0-.671.026,4.45411,4.45411,0,0,0-.658.14606,4.26175,4.26175,0,0,0-.57.36395,4.10508,4.10508,0,0,0-.591.301,4.63166,4.63166,0,0,0-.897.966,4.35663,4.35663,0,0,0-.399.531,4.266,4.266,0,0,0-.263.613,4.31478,4.31478,0,0,0-.199.643,4.57861,4.57861,0,0,0,.052.673,4.6322,4.6322,0,0,0,.03.63605,3.90548,3.90548,0,0,0,.121.628,3.738,3.738,0,0,0,.228.599,4.4659,4.4659,0,0,0,.372.522c.124.177.251.344.389.505.141.164.258.345.402.501.147.158.329.282.47.441a7.33717,7.33717,0,0,0,.709,1.145,5.32869,5.32869,0,0,1,.272.608,5.86656,5.86656,0,0,1,.263.615c.06.215.097.434.137.657.04.216.053.438.081.665.027.217.105.433.127.662a.5982.5982,0,0,0,.594.583.606.606,0,0,0,.604-.582c.022-.229.028-.454.055-.671.028-.227.096-.443.135-.66.041-.223.133-.428.192-.642a5.84839,5.84839,0,0,1,.186-.641,5.27109,5.27109,0,0,1,.237-.631,6.00954,6.00954,0,0,1,.413-.534c.126-.173.263-.347.419-.52294.141-.158.233-.36506.38-.523.145-.156.329-.278.469-.442.138-.161.321-.294.446-.471a4.94164,4.94164,0,0,0,.244-.604,3.80666,3.80666,0,0,0,.32-.563,4.06276,4.06276,0,0,0,.147-.632,4.92268,4.92268,0,0,0-.014-.648,4.165,4.165,0,0,0-.103-.654,4.36606,4.36606,0,0,0-.07-.665,4.17941,4.17941,0,0,0-.277-.609,4.25523,4.25523,0,0,0-.355-.562,2.52446,2.52446,0,0,0-1.528-1.237,4.16277,4.16277,0,0,0-.599-.274,4.25422,4.25422,0,0,0-.628-.24,4.40374,4.40374,0,0,0-.672-.022" transform="translate(0.49584 0.57026)" style="fill:#eaeced"/><path d="M710.6628,240.68681a1.768,1.768,0,0,1-.687-.163,1.73736,1.73736,0,0,1-.575-.397c-.17-.169-.403-.309-.496-.533a1.94573,1.94573,0,0,1-.092-.729,1.898,1.898,0,0,1,.113-.719,1.9433,1.9433,0,0,1,.394-.625,1.92064,1.92064,0,0,1,.64-.354,1.82417,1.82417,0,0,1,.703-.132,1.76434,1.76434,0,0,1,.684.18,1.89378,1.89378,0,0,1,.653.314,1.92974,1.92974,0,0,1,.398.618,1.8959,1.8959,0,0,1,.121.718,1.84517,1.84517,0,0,1-.155.705,1.91509,1.91509,0,0,1-.365.631,1.96246,1.96246,0,0,1-.615.405,1.9002,1.9002,0,0,1-.721.081m.007-6.088a4.38174,4.38174,0,0,0-.671.026,4.45481,4.45481,0,0,0-.658.14606,4.26349,4.26349,0,0,0-.57.364,4.10656,4.10656,0,0,0-.591.301,4.63128,4.63128,0,0,0-.897.966,4.35673,4.35673,0,0,0-.399.531,4.2648,4.2648,0,0,0-.263.613,4.31635,4.31635,0,0,0-.199.643,4.58,4.58,0,0,0,.052.673,4.63384,4.63384,0,0,0,.03.636,3.90547,3.90547,0,0,0,.121.628,3.73762,3.73762,0,0,0,.228.599,4.37365,4.37365,0,0,0,.372.521,6.34475,6.34475,0,0,0,.389.506c.141.164.258.345.402.501.147.15795.329.282.47.441a7.33813,7.33813,0,0,0,.709,1.145,5.25242,5.25242,0,0,1,.272.608,5.775,5.775,0,0,1,.263.615c.06.215.097.434.137.657.04.216.053.438.081.665.027.217.105.433.127.662a.59818.59818,0,0,0,.594.583.606.606,0,0,0,.604-.582c.022-.229.028-.454.055-.671.028-.227.096-.444.135-.66.041-.223.133-.428.192-.642a5.84555,5.84555,0,0,1,.186-.641,5.27841,5.27841,0,0,1,.237-.632,6.14418,6.14418,0,0,1,.413-.533c.126-.173.263-.347.419-.52295.141-.158.233-.36505.38-.523.145-.156.329-.278.469-.442.138-.161.321-.294.446-.471a4.9394,4.9394,0,0,0,.244-.604,3.8062,3.8062,0,0,0,.32-.563,4.0625,4.0625,0,0,0,.147-.632,4.92268,4.92268,0,0,0-.014-.648,4.16611,4.16611,0,0,0-.103-.654,4.35571,4.35571,0,0,0-.07-.665,4.17888,4.17888,0,0,0-.277-.609,4.25447,4.25447,0,0,0-.355-.562,2.5246,2.5246,0,0,0-1.528-1.237,4.16381,4.16381,0,0,0-.599-.274,4.25284,4.25284,0,0,0-.628-.24,4.40249,4.40249,0,0,0-.672-.022" transform="translate(0.49584 0.57026)" style="fill:#eaeced"/><path d="M260.46217,164.464a1.768,1.768,0,0,1-.687-.163,1.73731,1.73731,0,0,1-.575-.397c-.17-.169-.403-.309-.496-.533a1.94567,1.94567,0,0,1-.092-.729,1.898,1.898,0,0,1,.113-.719,1.94337,1.94337,0,0,1,.394-.625,1.921,1.921,0,0,1,.64-.354,1.82417,1.82417,0,0,1,.703-.132,1.76452,1.76452,0,0,1,.684.18,1.8937,1.8937,0,0,1,.653.314,1.92968,1.92968,0,0,1,.398.618,1.89573,1.89573,0,0,1,.121.718,1.84512,1.84512,0,0,1-.155.70495,1.91507,1.91507,0,0,1-.365.631,1.96261,1.96261,0,0,1-.615.405,1.9002,1.9002,0,0,1-.721.081m.007-6.088a4.38052,4.38052,0,0,0-.671.026,4.45536,4.45536,0,0,0-.658.14605,4.26182,4.26182,0,0,0-.57.364,4.10508,4.10508,0,0,0-.591.301,4.63194,4.63194,0,0,0-.897.966,4.35673,4.35673,0,0,0-.399.531,4.26556,4.26556,0,0,0-.263.613,4.315,4.315,0,0,0-.199.643,4.57885,4.57885,0,0,0,.052.673,4.632,4.632,0,0,0,.03.636,3.90527,3.90527,0,0,0,.121.628,3.73728,3.73728,0,0,0,.228.599,4.37251,4.37251,0,0,0,.372.521,6.3405,6.3405,0,0,0,.389.506c.141.164.258.345.402.501.147.158.329.282.47.441a7.33717,7.33717,0,0,0,.709,1.145,5.25327,5.25327,0,0,1,.272.608,5.774,5.774,0,0,1,.263.615c.06.215.097.434.137.657.04.216.053.438.081.665.027.217.105.433.127.662a.59819.59819,0,0,0,.594.583.606.606,0,0,0,.604-.582c.022-.229.028-.454.055-.671.028-.227.096-.444.135-.66.041-.223.133-.428.192-.642a5.84775,5.84775,0,0,1,.186-.641,5.28077,5.28077,0,0,1,.237-.632,6.1439,6.1439,0,0,1,.413-.533c.126-.173.263-.347.419-.52295.141-.158.233-.365.38-.523.145-.156.329-.278.469-.442.138-.161.321-.294.446-.471a4.94179,4.94179,0,0,0,.244-.604,3.80564,3.80564,0,0,0,.32-.563,4.06237,4.06237,0,0,0,.147-.632,4.92268,4.92268,0,0,0-.014-.648,4.16508,4.16508,0,0,0-.103-.654,4.35293,4.35293,0,0,0-.07-.665,4.17893,4.17893,0,0,0-.277-.609,4.25426,4.25426,0,0,0-.355-.562,2.52442,2.52442,0,0,0-1.528-1.237,4.16277,4.16277,0,0,0-.599-.274,4.2531,4.2531,0,0,0-.628-.24,4.40246,4.40246,0,0,0-.672-.022" transform="translate(0.49584 0.57026)" style="fill:#eaeced"/><path d="M153.45727,94.41954a1.76815,1.76815,0,0,1-.687-.163,1.7375,1.7375,0,0,1-.575-.397c-.17-.169-.403-.309-.496-.533a1.94593,1.94593,0,0,1-.092-.729,1.89776,1.89776,0,0,1,.113-.719,1.9433,1.9433,0,0,1,.394-.625,1.92089,1.92089,0,0,1,.64-.354,1.82441,1.82441,0,0,1,.703-.132,1.76434,1.76434,0,0,1,.684.18,1.8939,1.8939,0,0,1,.653.314,1.92962,1.92962,0,0,1,.398.618,1.89576,1.89576,0,0,1,.121.718,1.84536,1.84536,0,0,1-.155.705,1.91537,1.91537,0,0,1-.365.631,1.96286,1.96286,0,0,1-.615.405,1.9002,1.9002,0,0,1-.721.081m.007-6.088a4.38042,4.38042,0,0,0-.671.026,4.45481,4.45481,0,0,0-.658.14606,4.26186,4.26186,0,0,0-.57.364,4.10348,4.10348,0,0,0-.591.301,4.63168,4.63168,0,0,0-.897.966,4.35768,4.35768,0,0,0-.399.531,4.2648,4.2648,0,0,0-.263.613,4.31364,4.31364,0,0,0-.199.643,4.57861,4.57861,0,0,0,.052.673,4.63378,4.63378,0,0,0,.03.636,3.90548,3.90548,0,0,0,.121.628,3.738,3.738,0,0,0,.228.599,4.37353,4.37353,0,0,0,.372.521,6.34258,6.34258,0,0,0,.389.506c.141.164.258.345.402.501.147.158.329.282.47.441a6.05177,6.05177,0,0,1,.332.595,6.06611,6.06611,0,0,1,.377.55,5.25063,5.25063,0,0,1,.272.608,5.77281,5.77281,0,0,1,.263.615c.06.215.097.434.137.657.04.216.053.438.081.665.027.217.105.433.127.662a.59818.59818,0,0,0,.594.583.606.606,0,0,0,.604-.582c.022-.229.028-.454.055-.671.028-.227.096-.444.135-.66.041-.223.133-.428.192-.642a5.84781,5.84781,0,0,1,.186-.641,5.2767,5.2767,0,0,1,.237-.632,6.14418,6.14418,0,0,1,.413-.533c.126-.173.263-.347.419-.52295.141-.158.233-.36505.38-.523.145-.156.329-.278.469-.442.138-.161.321-.294.446-.471a4.941,4.941,0,0,0,.244-.604,3.8076,3.8076,0,0,0,.32-.563,4.06277,4.06277,0,0,0,.147-.632,4.92268,4.92268,0,0,0-.014-.648,4.165,4.165,0,0,0-.103-.654,4.35446,4.35446,0,0,0-.07-.665,4.17946,4.17946,0,0,0-.277-.609,4.25485,4.25485,0,0,0-.355-.562,2.52446,2.52446,0,0,0-1.528-1.237,4.16336,4.16336,0,0,0-.599-.274,4.25422,4.25422,0,0,0-.628-.24,4.40365,4.40365,0,0,0-.672-.022" transform="translate(0.49584 0.57026)" style="fill:#eaeced"/><path d="M70.585,224.90119a1.7682,1.7682,0,0,1-.687-.163,1.73734,1.73734,0,0,1-.575-.397c-.17-.169-.403-.309-.496-.533a1.94565,1.94565,0,0,1-.092-.729,1.89776,1.89776,0,0,1,.113-.719,1.943,1.943,0,0,1,.394-.625,1.92079,1.92079,0,0,1,.64-.354,1.82438,1.82438,0,0,1,.703-.132,1.76436,1.76436,0,0,1,.684.18,1.89372,1.89372,0,0,1,.653.314,1.92979,1.92979,0,0,1,.398.618,1.89576,1.89576,0,0,1,.121.718,1.84517,1.84517,0,0,1-.155.705,1.915,1.915,0,0,1-.365.631,1.96263,1.96263,0,0,1-.615.405,1.90035,1.90035,0,0,1-.721.081m.007-6.088a4.38052,4.38052,0,0,0-.671.026,4.45411,4.45411,0,0,0-.658.14606,4.26175,4.26175,0,0,0-.57.36395,4.10508,4.10508,0,0,0-.591.301,4.63166,4.63166,0,0,0-.897.966,4.35766,4.35766,0,0,0-.399.531,4.266,4.266,0,0,0-.263.613,4.31478,4.31478,0,0,0-.199.643,4.57861,4.57861,0,0,0,.052.673,4.6322,4.6322,0,0,0,.03.63605,3.90548,3.90548,0,0,0,.121.628,3.738,3.738,0,0,0,.228.599,4.37239,4.37239,0,0,0,.372.521,6.3405,6.3405,0,0,0,.389.506c.141.164.258.345.402.501.147.158.329.282.47.441a7.33717,7.33717,0,0,0,.709,1.145,5.254,5.254,0,0,1,.272.608,5.77486,5.77486,0,0,1,.263.615c.06.215.097.434.137.657.04.216.053.438.081.665.027.217.105.433.127.662a.5982.5982,0,0,0,.594.583.606.606,0,0,0,.604-.582c.022-.229.028-.454.055-.671.028-.227.096-.444.135-.66.041-.223.133-.428.192-.642a5.84792,5.84792,0,0,1,.186-.641,5.28077,5.28077,0,0,1,.237-.632,6.14542,6.14542,0,0,1,.413-.533c.126-.173.263-.347.419-.52294.141-.158.233-.36506.38-.523.145-.156.329-.278.469-.442.138-.161.321-.294.446-.471a4.94164,4.94164,0,0,0,.244-.604,3.80666,3.80666,0,0,0,.32-.563,4.06276,4.06276,0,0,0,.147-.632,4.92268,4.92268,0,0,0-.014-.648,4.165,4.165,0,0,0-.103-.654,4.35306,4.35306,0,0,0-.07-.665,4.17941,4.17941,0,0,0-.277-.609,4.25523,4.25523,0,0,0-.355-.562,2.52446,2.52446,0,0,0-1.528-1.237,4.16277,4.16277,0,0,0-.599-.274,4.25422,4.25422,0,0,0-.628-.24,4.40374,4.40374,0,0,0-.672-.022" transform="translate(0.49584 0.57026)" style="fill:#eaeced"/><path d="M294.63063,338.27138a1.768,1.768,0,0,1-.687-.163,1.73736,1.73736,0,0,1-.575-.397c-.17-.169-.403-.309-.496-.533a1.94593,1.94593,0,0,1-.092-.729,1.89776,1.89776,0,0,1,.113-.719,1.9433,1.9433,0,0,1,.394-.625,1.92064,1.92064,0,0,1,.64-.354,1.82417,1.82417,0,0,1,.703-.132,1.76434,1.76434,0,0,1,.684.18,1.89365,1.89365,0,0,1,.653.314,1.92959,1.92959,0,0,1,.398.618,1.8959,1.8959,0,0,1,.121.718,1.84536,1.84536,0,0,1-.155.705,1.91527,1.91527,0,0,1-.365.631,1.96269,1.96269,0,0,1-.615.405,1.9002,1.9002,0,0,1-.721.081m.007-6.088a4.38174,4.38174,0,0,0-.671.026,4.45481,4.45481,0,0,0-.658.14606,4.26349,4.26349,0,0,0-.57.364,4.106,4.106,0,0,0-.591.301,4.63168,4.63168,0,0,0-.897.966,4.35768,4.35768,0,0,0-.399.531,4.2648,4.2648,0,0,0-.263.613,4.31517,4.31517,0,0,0-.199.643,4.58,4.58,0,0,0,.052.673,4.63378,4.63378,0,0,0,.03.636,3.90658,3.90658,0,0,0,.121.628,3.73764,3.73764,0,0,0,.228.599,4.37365,4.37365,0,0,0,.372.521,6.34241,6.34241,0,0,0,.389.506c.141.164.258.345.402.501.147.15795.329.282.47.441a7.33688,7.33688,0,0,0,.709,1.145,5.2518,5.2518,0,0,1,.272.608,5.776,5.776,0,0,1,.263.615c.06.215.097.434.137.657.04.216.053.438.081.665.027.217.105.433.127.662a.59817.59817,0,0,0,.594.583.606.606,0,0,0,.604-.582c.022-.229.028-.454.055-.671.028-.227.096-.444.135-.66.041-.223.133-.428.192-.642a5.84781,5.84781,0,0,1,.186-.641,5.27906,5.27906,0,0,1,.237-.632,6.14418,6.14418,0,0,1,.413-.533c.126-.173.263-.347.419-.52295.141-.158.233-.36505.38-.523.145-.156.329-.278.469-.442.138-.161.321-.294.446-.471a4.941,4.941,0,0,0,.244-.604,3.80709,3.80709,0,0,0,.32-.563,4.06224,4.06224,0,0,0,.147-.632,4.92268,4.92268,0,0,0-.014-.648,4.16611,4.16611,0,0,0-.103-.654,4.35571,4.35571,0,0,0-.07-.665,4.17994,4.17994,0,0,0-.277-.609,4.2555,4.2555,0,0,0-.355-.562,2.5246,2.5246,0,0,0-1.528-1.237,4.1643,4.1643,0,0,0-.599-.274,4.25284,4.25284,0,0,0-.628-.24,4.40253,4.40253,0,0,0-.672-.022" transform="translate(0.49584 0.57026)" style="fill:#eaeced"/><path d="M253.16448,425.926a1.768,1.768,0,0,1-.687-.163,1.73736,1.73736,0,0,1-.575-.397c-.17-.169-.403-.309-.496-.533a1.94593,1.94593,0,0,1-.092-.729,1.89776,1.89776,0,0,1,.113-.719,1.9433,1.9433,0,0,1,.394-.625,1.92064,1.92064,0,0,1,.64-.354,1.82417,1.82417,0,0,1,.703-.132,1.76434,1.76434,0,0,1,.684.18,1.89365,1.89365,0,0,1,.653.314,1.92959,1.92959,0,0,1,.398.618,1.8959,1.8959,0,0,1,.121.718,1.84536,1.84536,0,0,1-.155.705,1.91527,1.91527,0,0,1-.365.631,1.96269,1.96269,0,0,1-.615.405,1.9002,1.9002,0,0,1-.721.081m.007-6.088a4.38174,4.38174,0,0,0-.671.026,4.45481,4.45481,0,0,0-.658.14606,4.26349,4.26349,0,0,0-.57.364,4.106,4.106,0,0,0-.591.301,4.63168,4.63168,0,0,0-.897.966,4.35768,4.35768,0,0,0-.399.531,4.2648,4.2648,0,0,0-.263.613,4.31517,4.31517,0,0,0-.199.643,4.58,4.58,0,0,0,.052.673,4.63378,4.63378,0,0,0,.03.636,3.90658,3.90658,0,0,0,.121.628,3.73764,3.73764,0,0,0,.228.599,4.37365,4.37365,0,0,0,.372.521,6.34241,6.34241,0,0,0,.389.506c.141.164.258.345.402.501.147.15795.329.282.47.441a7.33813,7.33813,0,0,0,.709,1.145,5.2518,5.2518,0,0,1,.272.608,5.776,5.776,0,0,1,.263.615c.06.215.097.434.137.657.04.216.053.438.081.665.027.217.105.433.127.662a.59817.59817,0,0,0,.594.583.606.606,0,0,0,.604-.582c.022-.229.028-.454.055-.671.028-.227.096-.444.135-.66.041-.223.133-.428.192-.642a5.84781,5.84781,0,0,1,.186-.641,5.27906,5.27906,0,0,1,.237-.632,6.14418,6.14418,0,0,1,.413-.533c.126-.173.263-.347.419-.52295.141-.158.233-.365.38-.523.145-.156.329-.278.469-.442.138-.161.321-.294.446-.471a4.941,4.941,0,0,0,.244-.604,3.80709,3.80709,0,0,0,.32-.563,4.06224,4.06224,0,0,0,.147-.632,4.92268,4.92268,0,0,0-.014-.648,4.16611,4.16611,0,0,0-.103-.654,4.35571,4.35571,0,0,0-.07-.665,4.17994,4.17994,0,0,0-.277-.609,4.2555,4.2555,0,0,0-.355-.562,2.5246,2.5246,0,0,0-1.528-1.237,4.1643,4.1643,0,0,0-.599-.274,4.25284,4.25284,0,0,0-.628-.24,4.40253,4.40253,0,0,0-.672-.022" transform="translate(0.49584 0.57026)" style="fill:#eaeced"/><path d="M432.71725,447.87824a1.768,1.768,0,0,1-.687-.163,1.7375,1.7375,0,0,1-.575-.397c-.17-.169-.403-.309-.496-.533a1.94588,1.94588,0,0,1-.092-.729,1.89778,1.89778,0,0,1,.113-.719,1.9433,1.9433,0,0,1,.394-.625,1.92087,1.92087,0,0,1,.64-.354,1.82423,1.82423,0,0,1,.703-.132,1.76434,1.76434,0,0,1,.684.18,1.89374,1.89374,0,0,1,.653.314,1.9294,1.9294,0,0,1,.398.618,1.89573,1.89573,0,0,1,.121.718,1.84531,1.84531,0,0,1-.155.70495,1.91527,1.91527,0,0,1-.365.631,1.96269,1.96269,0,0,1-.615.405,1.9002,1.9002,0,0,1-.721.081m.007-6.088a4.38169,4.38169,0,0,0-.671.026,4.45481,4.45481,0,0,0-.658.14606,4.26286,4.26286,0,0,0-.57.36395,4.10552,4.10552,0,0,0-.591.301,4.63168,4.63168,0,0,0-.897.966,4.35768,4.35768,0,0,0-.399.531,4.2648,4.2648,0,0,0-.263.613,4.31437,4.31437,0,0,0-.199.643,4.57861,4.57861,0,0,0,.052.673,4.63378,4.63378,0,0,0,.03.63605,3.90548,3.90548,0,0,0,.121.628,3.73764,3.73764,0,0,0,.228.599,4.37365,4.37365,0,0,0,.372.521,6.3406,6.3406,0,0,0,.389.506c.141.164.258.345.402.501.147.158.329.282.47.441a7.33741,7.33741,0,0,0,.709,1.145,5.25,5.25,0,0,1,.272.608,5.77194,5.77194,0,0,1,.263.615c.06.215.097.434.137.657.04.216.053.438.081.665.027.217.105.433.127.662a.59817.59817,0,0,0,.594.583.606.606,0,0,0,.604-.582c.022-.229.028-.454.055-.671.028-.227.096-.444.135-.66.041-.223.133-.428.192-.642a5.84781,5.84781,0,0,1,.186-.641,5.27734,5.27734,0,0,1,.237-.632,6.1457,6.1457,0,0,1,.413-.533c.126-.173.263-.347.419-.52295.141-.158.233-.365.38-.523.145-.156.329-.278.469-.442.138-.161.321-.294.446-.471a4.94179,4.94179,0,0,0,.244-.604,3.80709,3.80709,0,0,0,.32-.563,4.06224,4.06224,0,0,0,.147-.632,4.92272,4.92272,0,0,0-.014-.648,4.16514,4.16514,0,0,0-.103-.654,4.35446,4.35446,0,0,0-.07-.665,4.17935,4.17935,0,0,0-.277-.609,4.255,4.255,0,0,0-.355-.562,2.52457,2.52457,0,0,0-1.528-1.237,4.16331,4.16331,0,0,0-.599-.274,4.252,4.252,0,0,0-.628-.24,4.40236,4.40236,0,0,0-.672-.022" transform="translate(0.49584 0.57026)" style="fill:#eaeced"/><path d="M402.63672,281.0026a1.76824,1.76824,0,0,1-.687-.163,1.73734,1.73734,0,0,1-.575-.397c-.17-.169-.403-.308-.496-.533a1.94585,1.94585,0,0,1-.092-.729,1.89756,1.89756,0,0,1,.113-.719,1.94327,1.94327,0,0,1,.394-.625,1.921,1.921,0,0,1,.64-.354,1.82375,1.82375,0,0,1,.703-.131,1.76339,1.76339,0,0,1,.684.179,1.89341,1.89341,0,0,1,.653.314,1.92945,1.92945,0,0,1,.398.618,1.89576,1.89576,0,0,1,.121.718,1.84553,1.84553,0,0,1-.155.705,1.91537,1.91537,0,0,1-.365.631,1.963,1.963,0,0,1-.615.405,1.90032,1.90032,0,0,1-.721.081m.007-6.088a4.38034,4.38034,0,0,0-.671.026,4.454,4.454,0,0,0-.658.14606,4.261,4.261,0,0,0-.57.36395,4.104,4.104,0,0,0-.591.301,4.63166,4.63166,0,0,0-.897.966,4.35774,4.35774,0,0,0-.399.531,4.26717,4.26717,0,0,0-.263.613,4.31123,4.31123,0,0,0-.199.643,4.5758,4.5758,0,0,0,.052.673,4.63051,4.63051,0,0,0,.03.63605,3.90551,3.90551,0,0,0,.121.628,3.73709,3.73709,0,0,0,.228.599,4.46694,4.46694,0,0,0,.372.522c.124.177.251.344.389.505.141.164.258.345.402.501.147.158.329.282.47.441a7.33908,7.33908,0,0,0,.709,1.145,5.32345,5.32345,0,0,1,.272.608,5.86242,5.86242,0,0,1,.263.615c.06.215.097.434.137.657.04.216.053.438.081.665.027.217.105.433.127.662a.59819.59819,0,0,0,.594.583.606.606,0,0,0,.604-.582c.022-.229.028-.454.055-.671.028-.227.096-.443.135-.66.041-.223.133-.428.192-.642a5.85286,5.85286,0,0,1,.186-.641,5.2728,5.2728,0,0,1,.237-.631,6.00971,6.00971,0,0,1,.413-.534c.126-.173.263-.347.419-.52294.141-.158.233-.36506.38-.523.145-.156.329-.278.469-.442.138-.161.321-.294.446-.471a4.94159,4.94159,0,0,0,.244-.604,3.80581,3.80581,0,0,0,.32-.563,4.06162,4.06162,0,0,0,.147-.632,4.92448,4.92448,0,0,0-.014-.648,4.16611,4.16611,0,0,0-.103-.654,4.36606,4.36606,0,0,0-.07-.665,4.18148,4.18148,0,0,0-.277-.609,4.25529,4.25529,0,0,0-.355-.562,2.5245,2.5245,0,0,0-1.528-1.237,4.16216,4.16216,0,0,0-.599-.274,4.25349,4.25349,0,0,0-.628-.24,4.40356,4.40356,0,0,0-.672-.022" transform="translate(0.49584 0.57026)" style="fill:#eaeced"/><path d="M463.76752,210.199a1.7682,1.7682,0,0,1-.687-.163,1.73748,1.73748,0,0,1-.575-.397c-.17-.169-.403-.308-.496-.53295a1.94572,1.94572,0,0,1-.092-.729,1.89756,1.89756,0,0,1,.113-.719,1.9431,1.9431,0,0,1,.394-.625,1.921,1.921,0,0,1,.64-.354,1.82368,1.82368,0,0,1,.703-.131,1.76339,1.76339,0,0,1,.684.179,1.89349,1.89349,0,0,1,.653.314,1.92945,1.92945,0,0,1,.398.618,1.89576,1.89576,0,0,1,.121.718,1.84553,1.84553,0,0,1-.155.705,1.91554,1.91554,0,0,1-.365.631,1.963,1.963,0,0,1-.615.405,1.90012,1.90012,0,0,1-.721.081m.007-6.088a4.38029,4.38029,0,0,0-.671.026,4.454,4.454,0,0,0-.658.14606,4.26175,4.26175,0,0,0-.57.36395,4.10348,4.10348,0,0,0-.591.301,4.63128,4.63128,0,0,0-.897.966,4.35851,4.35851,0,0,0-.399.531,4.26657,4.26657,0,0,0-.263.613,4.31357,4.31357,0,0,0-.199.643,4.5772,4.5772,0,0,0,.052.673,4.63051,4.63051,0,0,0,.03.63605,3.90551,3.90551,0,0,0,.121.628,3.738,3.738,0,0,0,.228.599,4.46617,4.46617,0,0,0,.372.522c.124.177.251.344.389.505.141.164.258.345.402.501.147.158.329.282.47.441a7.33908,7.33908,0,0,0,.709,1.145,5.32423,5.32423,0,0,1,.272.608,5.86233,5.86233,0,0,1,.263.615c.06.215.097.434.137.65705.04.216.053.438.081.665.027.217.105.433.127.662a.5982.5982,0,0,0,.594.583.606.606,0,0,0,.604-.582c.022-.229.028-.454.055-.671.028-.227.096-.443.135-.66.041-.223.133-.428.192-.642a5.84861,5.84861,0,0,1,.186-.641,5.26938,5.26938,0,0,1,.237-.631,6.00987,6.00987,0,0,1,.413-.534c.126-.173.263-.347.419-.523.141-.158.233-.365.38-.523.145-.156.329-.278.469-.442.138-.161.321-.294.446-.471a4.94,4.94,0,0,0,.244-.604,3.80577,3.80577,0,0,0,.32-.563,4.06162,4.06162,0,0,0,.147-.632,4.92448,4.92448,0,0,0-.014-.648,4.165,4.165,0,0,0-.103-.654,4.36607,4.36607,0,0,0-.07-.665,4.18047,4.18047,0,0,0-.277-.609,4.25485,4.25485,0,0,0-.355-.562,2.5245,2.5245,0,0,0-1.528-1.237,4.16178,4.16178,0,0,0-.599-.274,4.25337,4.25337,0,0,0-.628-.24,4.40361,4.40361,0,0,0-.672-.022" transform="translate(0.49584 0.57026)" style="fill:#eaeced"/><path d="M307.39328,227.62563a1.76829,1.76829,0,0,1-.687-.163,1.73754,1.73754,0,0,1-.575-.397c-.17-.169-.403-.308-.496-.53295a1.94573,1.94573,0,0,1-.092-.729,1.89756,1.89756,0,0,1,.113-.719,1.9431,1.9431,0,0,1,.394-.625,1.921,1.921,0,0,1,.64-.354,1.82368,1.82368,0,0,1,.703-.131,1.76343,1.76343,0,0,1,.684.179,1.89349,1.89349,0,0,1,.653.314,1.92945,1.92945,0,0,1,.398.618,1.89576,1.89576,0,0,1,.121.718,1.84553,1.84553,0,0,1-.155.705,1.91554,1.91554,0,0,1-.365.631,1.963,1.963,0,0,1-.615.405,1.90025,1.90025,0,0,1-.721.081m.007-6.088a4.3802,4.3802,0,0,0-.671.026,4.45409,4.45409,0,0,0-.658.14606,4.26228,4.26228,0,0,0-.57.364,4.10348,4.10348,0,0,0-.591.301,4.63168,4.63168,0,0,0-.897.966,4.35979,4.35979,0,0,0-.399.531,4.26717,4.26717,0,0,0-.263.613,4.31357,4.31357,0,0,0-.199.643,4.5772,4.5772,0,0,0,.052.673,4.63057,4.63057,0,0,0,.03.636,3.9055,3.9055,0,0,0,.121.628,3.738,3.738,0,0,0,.228.599,4.465,4.465,0,0,0,.372.522c.124.177.251.344.389.505.141.164.258.345.402.501.147.158.329.282.47.441a7.33908,7.33908,0,0,0,.709,1.145,5.326,5.326,0,0,1,.272.608,5.86233,5.86233,0,0,1,.263.615c.06.215.097.434.137.657.04.216.053.438.081.665.027.217.105.433.127.662a.5982.5982,0,0,0,.594.583.606.606,0,0,0,.604-.582c.022-.229.028-.454.055-.671.028-.227.096-.443.135-.66.041-.223.133-.428.192-.642a5.85076,5.85076,0,0,1,.186-.641,5.2728,5.2728,0,0,1,.237-.631,6.01,6.01,0,0,1,.413-.534c.126-.173.263-.347.419-.52295.141-.158.233-.36506.38-.523.145-.156.329-.278.469-.442.138-.161.321-.294.446-.471a4.94161,4.94161,0,0,0,.244-.604,3.80577,3.80577,0,0,0,.32-.563,4.06276,4.06276,0,0,0,.147-.632,4.92448,4.92448,0,0,0-.014-.648,4.165,4.165,0,0,0-.103-.654,4.3648,4.3648,0,0,0-.07-.665,4.18042,4.18042,0,0,0-.277-.609,4.25692,4.25692,0,0,0-.355-.562,2.5245,2.5245,0,0,0-1.528-1.237,4.16178,4.16178,0,0,0-.599-.274,4.25337,4.25337,0,0,0-.628-.24,4.40369,4.40369,0,0,0-.672-.022" transform="translate(0.49584 0.57026)" style="fill:#eaeced"/><path d="M372.59934,341.50221a1.768,1.768,0,0,1-.687-.163,1.7376,1.7376,0,0,1-.575-.397c-.17-.169-.403-.308-.496-.533a1.94572,1.94572,0,0,1-.092-.729,1.89756,1.89756,0,0,1,.113-.719,1.9431,1.9431,0,0,1,.394-.625,1.92079,1.92079,0,0,1,.64-.354,1.8235,1.8235,0,0,1,.703-.13105,1.76339,1.76339,0,0,1,.684.179,1.89367,1.89367,0,0,1,.653.314,1.92938,1.92938,0,0,1,.398.618,1.89571,1.89571,0,0,1,.121.718,1.84553,1.84553,0,0,1-.155.705,1.91544,1.91544,0,0,1-.365.631,1.96278,1.96278,0,0,1-.615.405,1.9,1.9,0,0,1-.721.081m.007-6.088a4.38156,4.38156,0,0,0-.671.026,4.45523,4.45523,0,0,0-.658.14606,4.26275,4.26275,0,0,0-.57.364,4.10552,4.10552,0,0,0-.591.301,4.63128,4.63128,0,0,0-.897.966,4.359,4.359,0,0,0-.399.531,4.267,4.267,0,0,0-.263.613,4.31357,4.31357,0,0,0-.199.643,4.5772,4.5772,0,0,0,.052.673,4.63051,4.63051,0,0,0,.03.636,3.90551,3.90551,0,0,0,.121.628,3.738,3.738,0,0,0,.228.599,4.46532,4.46532,0,0,0,.372.522c.124.177.251.344.389.505.141.164.258.345.402.501.147.158.329.282.47.441a7.33908,7.33908,0,0,0,.709,1.145,5.326,5.326,0,0,1,.272.608,5.86323,5.86323,0,0,1,.263.615c.06.215.097.434.137.65705.04.216.053.438.081.665.027.217.105.433.127.662a.5982.5982,0,0,0,.594.583.60594.60594,0,0,0,.604-.582c.022-.229.028-.454.055-.671.028-.227.096-.443.135-.66.041-.223.133-.428.192-.642a5.84781,5.84781,0,0,1,.186-.641,5.27051,5.27051,0,0,1,.237-.631,6.01192,6.01192,0,0,1,.413-.534c.126-.173.263-.347.419-.52295.141-.158.233-.36505.38-.523.145-.156.329-.278.469-.442.138-.161.321-.294.446-.471a4.93937,4.93937,0,0,0,.244-.604,3.80526,3.80526,0,0,0,.32-.563,4.06276,4.06276,0,0,0,.147-.632,4.92448,4.92448,0,0,0-.014-.648,4.165,4.165,0,0,0-.103-.654,4.36634,4.36634,0,0,0-.07-.665,4.18047,4.18047,0,0,0-.277-.609,4.2555,4.2555,0,0,0-.355-.562,2.5245,2.5245,0,0,0-1.528-1.237,4.16281,4.16281,0,0,0-.599-.274,4.2523,4.2523,0,0,0-.628-.24,4.40361,4.40361,0,0,0-.672-.022" transform="translate(0.49584 0.57026)" style="fill:#eaeced"/><path d="M178.2839,232.9459a1.7682,1.7682,0,0,1-.687-.163,1.73748,1.73748,0,0,1-.575-.397c-.17-.169-.403-.308-.496-.533a1.94585,1.94585,0,0,1-.092-.729,1.89756,1.89756,0,0,1,.113-.719,1.94327,1.94327,0,0,1,.394-.625,1.921,1.921,0,0,1,.64-.354,1.82368,1.82368,0,0,1,.703-.131,1.76339,1.76339,0,0,1,.684.179,1.89349,1.89349,0,0,1,.653.314,1.92945,1.92945,0,0,1,.398.618,1.89576,1.89576,0,0,1,.121.718,1.84553,1.84553,0,0,1-.155.705,1.91554,1.91554,0,0,1-.365.631,1.963,1.963,0,0,1-.615.405,1.90032,1.90032,0,0,1-.721.081m.007-6.088a4.38029,4.38029,0,0,0-.671.026,4.454,4.454,0,0,0-.658.14606,4.26175,4.26175,0,0,0-.57.36395,4.10445,4.10445,0,0,0-.591.301,4.63166,4.63166,0,0,0-.897.966,4.35774,4.35774,0,0,0-.399.531,4.26721,4.26721,0,0,0-.263.613,4.31236,4.31236,0,0,0-.199.643,4.5758,4.5758,0,0,0,.052.673,4.63051,4.63051,0,0,0,.03.636,3.90551,3.90551,0,0,0,.121.628,3.738,3.738,0,0,0,.228.599,4.46617,4.46617,0,0,0,.372.522c.124.177.251.344.389.505.141.164.258.345.402.501.147.158.329.282.47.441a7.33908,7.33908,0,0,0,.709,1.145,5.32423,5.32423,0,0,1,.272.608,5.86233,5.86233,0,0,1,.263.615c.06.215.097.434.137.657.04.216.053.438.081.665.027.217.105.433.127.662a.5982.5982,0,0,0,.594.583.606.606,0,0,0,.604-.582c.022-.229.028-.454.055-.671.028-.227.096-.443.135-.66.041-.223.133-.428.192-.642a5.848,5.848,0,0,1,.186-.641,5.26938,5.26938,0,0,1,.237-.631,6.00971,6.00971,0,0,1,.413-.534c.126-.173.263-.347.419-.52294.141-.158.233-.36506.38-.523.145-.156.329-.278.469-.442.138-.161.321-.294.446-.471a4.94,4.94,0,0,0,.244-.604,3.80671,3.80671,0,0,0,.32-.563,4.06276,4.06276,0,0,0,.147-.632,4.92448,4.92448,0,0,0-.014-.648,4.165,4.165,0,0,0-.103-.654,4.3648,4.3648,0,0,0-.07-.665,4.18047,4.18047,0,0,0-.277-.609,4.25419,4.25419,0,0,0-.355-.562,2.5245,2.5245,0,0,0-1.528-1.237,4.16178,4.16178,0,0,0-.599-.274,4.25337,4.25337,0,0,0-.628-.24,4.40361,4.40361,0,0,0-.672-.022" transform="translate(0.49584 0.57026)" style="fill:#eaeced"/><path d="M506.44914,187.47392a1.76807,1.76807,0,0,1-.687-.163,1.73746,1.73746,0,0,1-.575-.397c-.17-.169-.403-.308-.496-.533a1.94593,1.94593,0,0,1-.092-.729,1.89736,1.89736,0,0,1,.113-.719,1.94325,1.94325,0,0,1,.394-.625,1.92088,1.92088,0,0,1,.64-.354,1.82359,1.82359,0,0,1,.703-.131,1.76343,1.76343,0,0,1,.684.179,1.89376,1.89376,0,0,1,.653.314,1.92972,1.92972,0,0,1,.398.618,1.8959,1.8959,0,0,1,.121.718,1.84535,1.84535,0,0,1-.155.705,1.91509,1.91509,0,0,1-.365.631,1.96273,1.96273,0,0,1-.615.405,1.90007,1.90007,0,0,1-.721.081m.007-6.088a4.38166,4.38166,0,0,0-.671.026,4.45523,4.45523,0,0,0-.658.14606,4.26265,4.26265,0,0,0-.57.36395,4.10511,4.10511,0,0,0-.591.301,4.63128,4.63128,0,0,0-.897.966,4.35887,4.35887,0,0,0-.399.531,4.267,4.267,0,0,0-.263.613,4.3124,4.3124,0,0,0-.199.643,4.57717,4.57717,0,0,0,.052.673,4.63051,4.63051,0,0,0,.03.63605,3.9055,3.9055,0,0,0,.121.628,3.738,3.738,0,0,0,.228.599,4.46525,4.46525,0,0,0,.372.522c.124.177.251.344.389.505.141.164.258.345.402.501.147.158.329.282.47.441a7.33908,7.33908,0,0,0,.709,1.145,5.32607,5.32607,0,0,1,.272.608,5.86535,5.86535,0,0,1,.263.615c.06.215.097.434.137.657.04.216.053.438.081.665.027.217.105.433.127.662a.59819.59819,0,0,0,.594.583.606.606,0,0,0,.604-.582c.022-.229.028-.454.055-.671.028-.227.096-.443.135-.66.041-.223.133-.428.192-.642a5.85222,5.85222,0,0,1,.186-.641,5.2723,5.2723,0,0,1,.237-.631,6.00816,6.00816,0,0,1,.413-.534c.126-.173.263-.347.419-.523.141-.158.233-.365.38-.523.145-.156.329-.278.469-.442.138-.161.321-.294.446-.471a4.94094,4.94094,0,0,0,.244-.604,3.80441,3.80441,0,0,0,.32-.563,4.06276,4.06276,0,0,0,.147-.632,4.92629,4.92629,0,0,0-.014-.648,4.16611,4.16611,0,0,0-.103-.654,4.36633,4.36633,0,0,0-.07-.665,4.18148,4.18148,0,0,0-.277-.609,4.25757,4.25757,0,0,0-.355-.562,2.52457,2.52457,0,0,0-1.528-1.237,4.16331,4.16331,0,0,0-.599-.274,4.2523,4.2523,0,0,0-.628-.24,4.40369,4.40369,0,0,0-.672-.022" transform="translate(0.49584 0.57026)" style="fill:#eaeced"/><path d="M370.17235,102.71934a1.76825,1.76825,0,0,1-.687-.163,1.73734,1.73734,0,0,1-.575-.397c-.17-.169-.403-.308-.496-.533a1.94585,1.94585,0,0,1-.092-.729,1.89736,1.89736,0,0,1,.113-.719,1.94307,1.94307,0,0,1,.394-.625,1.92108,1.92108,0,0,1,.64-.354,1.82358,1.82358,0,0,1,.703-.131,1.76343,1.76343,0,0,1,.684.179,1.89358,1.89358,0,0,1,.653.314,1.92979,1.92979,0,0,1,.398.618,1.896,1.896,0,0,1,.121.718,1.84535,1.84535,0,0,1-.155.705,1.91547,1.91547,0,0,1-.365.631,1.96308,1.96308,0,0,1-.615.405,1.90027,1.90027,0,0,1-.721.081m.007-6.088a4.38039,4.38039,0,0,0-.671.026,4.454,4.454,0,0,0-.658.14606,4.26165,4.26165,0,0,0-.57.364,4.104,4.104,0,0,0-.591.301,4.63166,4.63166,0,0,0-.897.966,4.358,4.358,0,0,0-.399.531,4.26717,4.26717,0,0,0-.263.613,4.31264,4.31264,0,0,0-.199.643,4.5773,4.5773,0,0,0,.052.673,4.63051,4.63051,0,0,0,.03.636,3.90571,3.90571,0,0,0,.121.628,3.73754,3.73754,0,0,0,.228.599,4.46621,4.46621,0,0,0,.372.522c.124.177.251.344.389.505.141.164.258.345.402.501.147.158.329.282.47.441a7.33908,7.33908,0,0,0,.709,1.145,5.32529,5.32529,0,0,1,.272.608,5.86445,5.86445,0,0,1,.263.615c.06.215.097.434.137.657.04.216.053.438.081.665.027.217.105.433.127.662a.5982.5982,0,0,0,.594.583.606.606,0,0,0,.604-.582c.022-.229.028-.454.055-.671.028-.227.096-.443.135-.66.041-.223.133-.428.192-.642a5.85286,5.85286,0,0,1,.186-.641,5.2728,5.2728,0,0,1,.237-.631,6.00971,6.00971,0,0,1,.413-.534c.126-.173.263-.347.419-.523.141-.158.233-.365.38-.523.145-.156.329-.278.469-.442.138-.161.321-.294.446-.471a4.94159,4.94159,0,0,0,.244-.604,3.80581,3.80581,0,0,0,.32-.563,4.06276,4.06276,0,0,0,.147-.632,4.92629,4.92629,0,0,0-.014-.648,4.16611,4.16611,0,0,0-.103-.654,4.36606,4.36606,0,0,0-.07-.665,4.18148,4.18148,0,0,0-.277-.609,4.25626,4.25626,0,0,0-.355-.562,2.52457,2.52457,0,0,0-1.528-1.237,4.16277,4.16277,0,0,0-.599-.274,4.25225,4.25225,0,0,0-.628-.24,4.40241,4.40241,0,0,0-.672-.022" transform="translate(0.49584 0.57026)" style="fill:#eaeced"/></svg>