<?xml version="1.0" encoding="utf-8"?>
<!-- Generator: Adobe Illustrator 21.0.0, SVG Export Plug-In . SVG Version: 6.00 Build 0)  -->
<svg version="1.1" id="Layer_1" xmlns="http://www.w3.org/2000/svg" xmlns:xlink="http://www.w3.org/1999/xlink" x="0px" y="0px"
	 viewBox="0 0 46.7 46.6" style="enable-background:new 0 0 46.7 46.6;" xml:space="preserve">
<style type="text/css">
	.st0{fill:#EA3A32;}
</style>
<g id="Production_4_">
	<g>
		<g>
			<g>
				<path class="st0" d="M45.7,0.2c-0.9,0-0.9,0.2-1.8,0.2c-0.9,0-0.9-0.3-1.8-0.3c-0.9,0-0.9,0.2-1.8,0.2c-0.9,0-0.9-0.2-1.8-0.2
					c-0.9,0-0.9,0-1.8,0c-0.9,0-0.9,0-1.8,0C34,0.1,34,0,33.1,0c-0.9,0-0.9,0.2-1.8,0.2c-0.9,0-0.9,0.1-1.8,0.1
					c-0.9,0-0.9-0.3-1.8-0.3c-0.4,0-0.6,0.5-0.6,1c0,0.8-0.2,0.8-0.2,1.5c0,0.8-0.1,0.8-0.1,1.5s0.1,0.8,0.1,1.5
					c0,0.4,0.4,0.7,0.8,0.7c0.8,0,0.8,0.1,1.6,0.1c0.8,0,0.8-0.1,1.6-0.1c0.8,0,0.8,0.3,1.6,0.3c0.8,0,0.8-0.2,1.6-0.2
					c0.8,0,1.4-0.7,1.7,0.1c0.3,0.9-0.7,0.6-1.3,1.2C34,8.2,34,8.2,33.3,8.9c-0.6,0.6-0.5,0.8-1.1,1.4c-0.6,0.6-0.8,0.4-1.5,1.1
					c-0.6,0.6-0.5,0.7-1.2,1.4c-0.6,0.6-0.8,0.5-1.4,1.1c-0.6,0.6-0.6,0.6-1.3,1.3c-0.3,0.3-0.3,1,0,1.3c0.5,0.5,0.7,0.4,1.2,1
					c0.5,0.5,0.5,0.6,1,1.2c0.5,0.5,0.5,0.6,1.1,1.1c0.3,0.3,0.9,0.4,1.2,0.1c0.6-0.6,0.5-0.8,1.1-1.5c0.6-0.6,0.7-0.6,1.4-1.2
					c0.6-0.6,0.8-0.5,1.4-1.2c0.6-0.6,0.4-0.9,1.1-1.5c0.6-0.6,0.6-0.7,1.2-1.3c0.6-0.6,0.8-0.5,1.4-1.1c0.6-0.6,0.4-1.6,1.3-1.4
					c0.8,0.2,0,0.9,0,1.7c0,0.8,0,0.8,0,1.6c0,0.8,0.1,0.8,0.1,1.6c0,0.8,0.1,0.8,0.1,1.6c0,0.8-0.2,0.8-0.2,1.6
					c0,0.4,0.4,0.7,0.9,0.7c0.8,0,0.8,0.1,1.5,0.1c0.8,0,0.8-0.2,1.5-0.2s0.8,0.3,1.5,0.3c0.4,0,0.6-0.5,0.6-0.9
					c0-0.9,0.2-0.9,0.2-1.8c0-0.9,0-0.9,0-1.8c0-0.9,0.1-0.9,0.1-1.8c0-0.9-0.1-0.9-0.1-1.8c0-0.9-0.3-0.9-0.3-1.8
					c0-0.9,0-0.9,0-1.8c0-0.9,0.2-0.9,0.2-1.8c0-0.9,0-0.9,0-1.8c0-0.9-0.2-0.9-0.2-1.8s0.3-0.9,0.3-1.8C46.6,0.5,46.1,0.2,45.7,0.2
					z"/>
			</g>
			<g>
				<path class="st0" d="M45.7,26.9c-0.8,0-0.8,0-1.5,0c-0.8,0-0.8-0.1-1.5-0.1s-0.8,0.2-1.5,0.2c-0.4,0-0.8,0.2-0.8,0.6
					c0,0.8,0.1,0.8,0.1,1.6c0,0.8-0.3,0.8-0.3,1.6c0,0.8,0.3,0.8,0.3,1.6c0,0.8-0.2,0.8-0.2,1.6s0.8,1.2,0,1.5
					c-0.9,0.3-0.5-0.5-1.2-1.2c-0.6-0.6-0.7-0.6-1.3-1.3c-0.6-0.6-0.6-0.7-1.2-1.3c-0.6-0.6-0.6-0.6-1.3-1.3
					c-0.6-0.6-0.6-0.6-1.3-1.3c-0.6-0.6-0.9-0.4-1.5-1.1c-0.6-0.6-0.6-0.7-1.2-1.4c-0.3-0.3-0.9-0.5-1.2-0.1c-0.5,0.5-0.5,0.6-1,1.1
					c-0.5,0.5-0.6,0.5-1.1,1.1c-0.5,0.5-0.5,0.6-1,1.1c-0.3,0.3-0.2,0.8,0.1,1.1c0.6,0.6,0.5,0.7,1.2,1.4c0.6,0.6,0.7,0.6,1.3,1.3
					c0.6,0.6,0.7,0.6,1.3,1.3c0.6,0.6,0.8,0.5,1.4,1.2c0.6,0.6,0.6,0.7,1.2,1.4c0.6,0.6,0.7,0.6,1.3,1.3c0.6,0.6,1.6,0.5,1.4,1.4
					c-0.2,0.8-1-0.2-1.8-0.2c-0.8,0-0.8,0.1-1.6,0.1c-0.8,0-0.8-0.1-1.6-0.1c-0.8,0-0.8,0-1.6,0c-0.8,0-0.8,0.1-1.6,0.1
					c-0.4,0-0.8,0.4-0.8,0.8c0,0.8-0.1,0.8-0.1,1.5c0,0.8,0.2,0.8,0.2,1.5c0,0.8,0.1,0.8,0.1,1.5c0,0.4,0.3,0.8,0.7,0.8
					c0.9,0,0.9-0.2,1.8-0.2c0.9,0,0.9,0.1,1.8,0.1c0.9,0,0.9-0.1,1.8-0.1c0.9,0,0.9,0.2,1.8,0.2c0.9,0,0.9,0.1,1.8,0.1
					c0.9,0,0.9-0.1,1.8-0.1c0.9,0,0.9,0.1,1.8,0.1c0.9,0,0.9,0,1.8,0c0.9,0,0.9-0.2,1.8-0.2c0.9,0,0.9,0,1.8,0
					c0.4,0,0.6-0.2,0.6-0.6c0-0.9,0.2-0.9,0.2-1.8c0-0.9-0.2-0.9-0.2-1.8c0-0.9,0.2-0.9,0.2-1.8c0-0.9,0-0.9,0-1.8
					c0-0.9,0.1-0.9,0.1-1.8c0-0.9-0.1-0.9-0.1-1.8c0-0.9-0.1-0.9-0.1-1.8c0-0.9,0.2-0.9,0.2-1.8c0-0.9,0-0.9,0-1.8
					c0-0.9-0.1-0.9-0.1-1.8C46.5,27.3,46.1,26.9,45.7,26.9z"/>
			</g>
			<g>
				<path class="st0" d="M10.8,6.4c0.2-0.8,0.8,0,1.6,0c0.8,0,0.8,0,1.6,0c0.8,0,0.8-0.1,1.6-0.1c0.8,0,0.8-0.1,1.6-0.1
					c0.8,0,0.8,0,1.6,0c0.4,0,0.6-0.2,0.6-0.6c0-0.8,0.1-0.8,0.1-1.5c0-0.8,0.1-0.8,0.1-1.5s0-0.8,0-1.5c0-0.4-0.4-0.9-0.8-0.9
					c-0.9,0-0.9,0.1-1.8,0.1c-0.9,0-0.9-0.1-1.8-0.1c-0.9,0-0.9,0.1-1.8,0.1c-0.9,0-0.9,0-1.8,0C10.9,0.1,10.9,0,10,0
					C9.1,0,9.1,0.3,8.2,0.3c-0.9,0-0.9-0.1-1.8-0.1c-0.9,0-0.9-0.1-1.8-0.1c-0.9,0-0.9,0.2-1.8,0.2c-0.9,0-0.9,0-1.8,0
					C0.5,0.3,0,0.5,0,1c0,0.9,0.2,0.9,0.2,1.8C0.2,3.7,0,3.7,0,4.5c0,0.9,0.1,0.9,0.1,1.8c0,0.9,0.2,0.9,0.2,1.8C0.3,9,0,9,0,9.9
					c0,0.9,0,0.9,0,1.8c0,0.9,0,0.9,0,1.8c0,0.9,0.1,0.9,0.1,1.8c0,0.9,0.1,0.9,0.1,1.8c0,0.9,0.1,0.9,0.1,1.8
					c0,0.4,0.2,0.8,0.6,0.8c0.8,0,0.8,0,1.5,0c0.8,0,0.8-0.1,1.5-0.1s0.8,0.2,1.5,0.2c0.4,0,0.8-0.4,0.8-0.8c0-0.8,0.1-0.8,0.1-1.6
					c0-0.8-0.3-0.8-0.3-1.6c0-0.8,0.3-0.8,0.3-1.6c0-0.8-0.1-0.8-0.1-1.6c0-0.8-0.9-1.6-0.1-1.8c0.9-0.3,0.8,0.7,1.5,1.3
					c0.6,0.6,0.6,0.7,1.2,1.3c0.6,0.6,0.5,0.8,1.2,1.4c0.6,0.6,0.7,0.5,1.4,1.2c0.6,0.6,0.5,0.8,1.1,1.5c0.6,0.6,0.8,0.5,1.5,1.1
					c0.6,0.6,0.6,0.7,1.3,1.3c0.3,0.3,0.9,0.4,1.2,0.1c0.5-0.5,0.3-0.8,0.9-1.3c0.5-0.5,0.6-0.4,1.2-1s0.7-0.4,1.2-1
					c0.3-0.3,0.2-0.9-0.1-1.2c-0.6-0.6-0.6-0.7-1.3-1.3c-0.6-0.6-0.5-0.7-1.2-1.4c-0.6-0.6-0.9-0.4-1.5-1.1
					c-0.6-0.6-0.6-0.6-1.3-1.3c-0.6-0.6-0.4-0.9-1-1.5c-0.6-0.6-0.7-0.5-1.5-1C11.1,7.3,10.5,7.3,10.8,6.4z"/>
			</g>
			<g>
				<path class="st0" d="M19.6,30.3c-0.5-0.5-0.5-0.6-1.1-1.1c-0.5-0.5-0.5-0.6-1-1.2c-0.5-0.5-0.6-0.5-1.2-1
					c-0.3-0.3-0.8-0.3-1.1,0c-0.6,0.6-0.7,0.5-1.4,1.2c-0.6,0.6-0.5,0.7-1.2,1.4c-0.6,0.6-0.6,0.7-1.2,1.3c-0.6,0.6-0.8,0.5-1.4,1.1
					c-0.6,0.6-0.6,0.7-1.2,1.3c-0.6,0.6-0.4,0.8-1.1,1.5s-0.5,1.3-1.4,1c-0.8-0.2,0-0.7,0-1.5c0-0.8,0.2-0.8,0.2-1.6
					c0-0.8-0.4-0.8-0.4-1.6c0-0.8,0.3-0.8,0.3-1.6c0-0.8-0.3-0.8-0.3-1.6c0-0.4-0.2-0.8-0.6-0.8c-0.8,0-0.8-0.1-1.5-0.1
					c-0.8,0-0.8,0.1-1.5,0.1S1.7,26.7,1,26.7c-0.4,0-0.7,0.5-0.7,1c0,0.9-0.2,0.9-0.2,1.8c0,0.9,0.2,0.9,0.2,1.8
					c0,0.9-0.2,0.9-0.2,1.8c0,0.9,0.2,0.9,0.2,1.8c0,0.9-0.1,0.9-0.1,1.8c0,0.9,0.1,0.9,0.1,1.8c0,0.9-0.2,0.9-0.2,1.8
					c0,0.9,0.1,0.9,0.1,1.8c0,0.9,0.2,0.9,0.2,1.8c0,0.9-0.2,0.9-0.2,1.8c0,0.4,0.4,0.6,0.9,0.6c0.9,0,0.9,0,1.8,0
					c0.9,0,0.9,0.1,1.8,0.1c0.9,0,0.9,0,1.8,0c0.9,0,0.9,0.1,1.8,0.1c0.9,0,0.9-0.2,1.8-0.2c0.9,0,0.9,0.2,1.8,0.2
					c0.9,0,0.9-0.1,1.8-0.1c0.9,0,0.9,0.1,1.8,0.1c0.9,0,0.9,0.1,1.8,0.1s0.9-0.3,1.8-0.3c0.4,0,0.7-0.2,0.7-0.6
					c0-0.8,0.2-0.8,0.2-1.5c0-0.8-0.1-0.8-0.1-1.5c0-0.8-0.1-0.8-0.1-1.5c0-0.4-0.3-0.7-0.8-0.7c-0.8,0-0.8-0.2-1.6-0.2
					c-0.8,0-0.8,0.3-1.6,0.3c-0.8,0-0.8-0.2-1.6-0.2c-0.8,0-0.8,0.1-1.6,0.1s-1.4,0.7-1.6-0.1c-0.3-0.9,0.5-0.7,1.1-1.4
					c0.6-0.6,0.7-0.6,1.3-1.3c0.6-0.6,0.7-0.6,1.3-1.2c0.6-0.6,0.6-0.7,1.3-1.3c0.6-0.6,0.8-0.4,1.5-1.1c0.6-0.6,0.6-0.7,1.2-1.3
					c0.6-0.6,0.7-0.6,1.3-1.3C20.1,31.1,19.9,30.6,19.6,30.3z"/>
			</g>
		</g>
	</g>
</g>
</svg>
