<?xml version="1.0" encoding="utf-8"?>
<!-- Generator: Adobe Illustrator 21.0.0, SVG Export Plug-In . SVG Version: 6.00 Build 0)  -->
<svg version="1.1" id="Layer_1" xmlns="http://www.w3.org/2000/svg" xmlns:xlink="http://www.w3.org/1999/xlink" x="0px" y="0px"
	 viewBox="0 0 40.3 54.2" style="enable-background:new 0 0 40.3 54.2;" xml:space="preserve">
<style type="text/css">
	.st0{fill:#EA3A32;}
</style>
<g id="Production_60_">
	<g>
		<g>
			<g>
				<path class="st0" d="M35,20.5c-0.5,0.5-0.8,1.1-1.3,1.6c-0.4,0.5-0.8,1.1-1.1,1.7S32,25,31.8,25.7c1.2,0.4,1.3-0.5,2.5-0.2
					c0.4,0.7,0.6,1.7,0.9,2.5c0.3,0.8,0.6,1.6,0.8,2.4s0.4,1.6,0.5,2.4c-1.2,0.4-1.2,0.1-2.5,0.1c-1.2,0-1.2,0-2.5,0
					c-1.2,0-1.2-0.2-2.5-0.2c-1.2,0-1.2,0.2-2.5,0.2c-1.2,0-1.2-0.3-2.5-0.3c-1.2,0-1.2,0-2.5,0c-1.2,0-1.2,0.2-2.5,0.2
					c-1.2,0-1.2-0.1-2.5-0.1s-1.3,0.5-2.5,0.1c0-0.8,0-1.7,0.1-2.5s0.4-1.6,0.5-2.4s0.1-1.5,0.3-2.3c1.2-0.3,1.2-0.1,2.5-0.1
					c1.3,0,1.3,0.2,2.5,0.2c1.3,0,1.3,0.3,2.5-0.1c-0.2-0.8-0.6-1.4-0.9-2.1c-1-0.3-1,0-2,0s-1-0.1-2-0.1s-1,0.3-1.9-0.2
					c0.3-0.9,0.4-1.6,0.7-2.3c0.4-0.9,1.1-1.6,1.5-2.1c-0.6-0.7-1-1.4-1.4-2.1c-0.4-0.7-0.9-1.4-1.2-2.3c-0.8,0.2-1.6,0.4-2.3,0.7
					c-0.8,0.3-1.5,0.7-2.2,1c-0.7,0.4-1.3,0.9-2,1.4s-1.4,0.9-2,1.4S5.6,20,5,20.6c-0.5,0.6-1.2,1.1-1.7,1.8c-0.5,0.7-0.6,1.5-1,2.2
					S1.5,26,1.2,26.7c-0.3,0.8-0.5,1.5-0.7,2.3S0.1,30.6,0,31.4c0.1,1,0,1.8,0,2.7c0,0.8,0.2,1.6,0.3,2.4c0.1,0.8,0.4,1.6,0.6,2.4
					c0.2,0.8,0.3,1.6,0.6,2.4c0.3,0.8,0.7,1.5,1.1,2.2s0.6,1.5,1.1,2.2s1.2,1.1,1.7,1.7c0.5,0.6,1,1.3,1.6,1.8s1.3,1,1.9,1.5
					c0.7,0.5,1.4,0.8,2.1,1.2c0.7,0.4,1.4,0.7,2.2,1s1.5,0.7,2.3,0.9c0.8,0.2,1.6,0.1,2.4,0.2c0.8,0.1,1.6,0.2,2.4,0.2
					s1.6,0.2,2.4,0.1c0.8-0.1,1.6-0.3,2.4-0.5s1.5-0.6,2.2-0.9c0.8-0.3,1.6-0.4,2.3-0.8c0.7-0.4,1.3-0.9,2-1.4s1.3-1,1.9-1.5
					c0.6-0.5,1.2-1.1,1.7-1.7c0.5-0.6,1.2-1.1,1.7-1.8s0.6-1.5,1-2.2s0.7-1.4,1-2.2s0.7-1.5,0.9-2.2c0.2-0.8,0.5-1.6,0.6-2.4
					c0.1-0.8-0.1-1.6-0.1-2.4c0-0.8,0.2-1.7,0.1-2.5c-0.1-0.8-0.5-1.6-0.7-2.4s-0.5-1.6-0.8-2.3c-0.3-0.8-0.4-1.6-0.8-2.3
					c-0.4-0.7-1-1.3-1.5-2C35.9,21.9,35.6,21.1,35,20.5z M26.1,35.2c0,0.8,0,1.6,0,2.4c-0.1,0.8-0.2,1.6-0.3,2.4
					c-0.1,0.8-0.3,1.6-0.5,2.3c-1.2,0.3-1.3,0.2-2.5,0.2c-1.3,0-1.3-0.3-2.5-0.3c-1.3,0-1.3,0-2.5,0s-1.3,0.4-2.5,0.1
					c-0.2-0.8-0.4-1.5-0.5-2.3s-0.2-1.6-0.3-2.4c-0.1-0.8,0-1.5,0-2.4c1.1-0.4,1.2-0.2,2.3-0.2c1.2,0,1.2,0.3,2.4,0.3
					c1.2,0,1.2,0,2.4,0c1.2,0,1.2-0.1,2.4-0.2C24.9,35,25,34.8,26.1,35.2z M15.9,18.2c-0.6,0.8-0.9,1.7-1.3,2.6
					c-0.4,0.9-0.8,1.9-1.1,2.8c-1.4,0.4-1.5-0.1-3-0.1s-1.6,0.6-3,0.2c0.5-0.6,1.3-1.3,1.9-1.8c0.6-0.6,1.3-1.1,2-1.5
					c0.7-0.5,1.4-0.9,2.1-1.3C14.3,18.8,15.1,18.4,15.9,18.2z M6,25.8c1.1-0.3,1.1-0.1,2.3-0.1c1.1,0,1.1,0,2.3,0s1.2-0.3,2.3,0.1
					c-0.2,0.8-0.1,1.6-0.3,2.4c-0.1,0.8-0.5,1.6-0.6,2.4s0,1.5,0,2.3c-1.3,0.4-1.3,0.1-2.7,0.1C8,32.9,8,33,6.6,33s-1.5,0.4-2.8,0
					c0.1-0.9,0.3-1.8,0.5-2.6c0.2-0.8,0.3-1.7,0.6-2.5C5.1,27.2,5.6,26.5,6,25.8z M3.8,35.2c1.3-0.4,1.4-0.1,2.8-0.1s1.4,0,2.8,0
					s1.4-0.3,2.8,0.1c0,0.8,0.2,1.6,0.3,2.4c0.1,0.8-0.2,1.7-0.1,2.4c0.1,0.8,0.4,1.5,0.5,2.2c-1.1,0.4-1.1,0.1-2.2,0.1
					s-1.1,0.1-2.3,0.1s-1.2,0.3-2.3,0c-0.4-0.7-0.7-1.6-1-2.4c-0.3-0.8-0.7-1.5-0.9-2.4C3.9,36.9,3.9,36,3.8,35.2z M7.6,44.6
					c1.4-0.4,1.5-0.1,2.9-0.1s1.5-0.3,3,0c0.2,0.8,0.4,1.6,0.7,2.3c0.5,1.2,1.2,2.3,1.8,3.2c-0.8-0.2-1.7-0.7-2.4-1
					c-0.8-0.3-1.5-0.7-2.2-1.2s-1.4-0.9-2.1-1.4C8.7,45.8,8.1,45.2,7.6,44.6z M20.2,50.4c-0.7,0-1.5-0.4-2.2-1.2
					c-0.5-0.6-0.9-1.3-1.3-2.2c-0.3-0.7-0.6-1.5-0.9-2.4c1-0.5,1.1-0.2,2.2-0.2s1.1,0.3,2.2,0.3s1.1,0,2.2,0s1.2-0.6,2.2-0.1
					c-0.3,0.9-0.5,1.7-0.9,2.4c-0.4,0.9-0.9,1.6-1.4,2.2C21.7,50,20.9,50.4,20.2,50.4z M24.5,49.9c0.6-0.9,1.1-1.9,1.6-3.2
					c0.3-0.7,0.6-1.5,0.8-2.2c1.4-0.4,1.5,0.1,3,0.1s1.6-0.6,3-0.2c-0.5,0.6-1.3,1.3-1.9,1.8c-0.6,0.6-1.3,1.1-2,1.5
					c-0.7,0.5-1.4,0.9-2.1,1.3C26.1,49.4,25.3,49.7,24.5,49.9z M34.3,42.3c-1.1,0.3-1.1,0.1-2.3,0.1c-1.1,0-1.1,0-2.3,0
					c-1.1,0-1.2,0.3-2.3-0.1c0.2-0.8,0.1-1.6,0.3-2.4c0.1-0.8,0.5-1.6,0.6-2.4c0.1-0.8,0-1.5,0-2.3c1.3-0.4,1.3-0.1,2.7-0.1
					c1.4,0,1.4-0.1,2.8-0.1s1.5-0.4,2.8,0c-0.1,0.9-0.3,1.8-0.5,2.6s-0.3,1.7-0.6,2.5C35.2,40.9,34.8,41.6,34.3,42.3z"/>
			</g>
			<g>
				<path class="st0" d="M25.6,30c0.1,1,0.9,1.5,1.6,1.5s1.3-0.5,1.4-1.5c0.1-0.8,0.2-1.5,0.3-2.2c0.1-0.8,0.1-1.5,0.3-2.3
					c0.2-0.7,0.6-1.4,0.9-2.1s0.6-1.3,1-2c0.4-0.6,0.8-1.3,1.3-1.9c0.5-0.5,1-1,1.5-1.6c0.5-0.5,1.1-1,1.5-1.5
					c0.4-0.6,0.7-1.2,1-1.9c0.3-0.6,0.7-1.3,0.8-2s0.1-1.4,0.1-2.2S37.2,8.8,37,8s-0.5-1.4-0.8-2.1c-0.2-0.7-0.5-1.3-1-1.9
					s-1-1.2-1.6-1.7s-1.3-0.8-2-1.1s-1.3-0.8-2.1-1C28.8,0.1,28,0,27.3,0c-0.8,0-1.5,0.2-2.3,0.3c-0.8,0.2-1.4,0.5-2.1,0.8
					S21.6,1.8,21,2.3s-1.2,0.9-1.7,1.5s-0.8,1.3-1.1,2c-0.3,0.7-0.8,1.3-1,2.1c-0.2,0.7-0.3,1.5-0.3,2.3s0.2,1.5,0.4,2.1
					c0.2,0.7,0.4,1.4,0.6,2.1c0.3,0.7,0.8,1.2,1.2,1.8c0.4,0.6,0.9,1.1,1.4,1.7c0.5,0.5,0.8,1.2,1.3,1.7c0.5,0.6,1,1.2,1.4,1.7
					c0.4,0.7,0.9,1.3,1.2,1.9c0.3,0.7,0.4,1.5,0.6,2.2s0.4,1.4,0.5,2.2C25.6,28.4,25.6,29.2,25.6,30z M27.2,6c0.8,0,1.5,0.1,2.2,0.5
					s1.3,0.9,1.7,1.5c0.4,0.6,0.5,1.4,0.5,2.2s-0.1,1.6-0.5,2.3S30,13.6,29.3,14c-0.6,0.4-1.4,0.6-2.2,0.6c-0.8,0-1.6-0.1-2.3-0.5
					c-0.7-0.4-1.2-1-1.6-1.7c-0.4-0.6-0.4-1.4-0.4-2.2s0.1-1.6,0.5-2.2c0.4-0.7,1-1.1,1.7-1.5C25.8,6.2,26.4,6,27.2,6z"/>
			</g>
		</g>
	</g>
</g>
</svg>
