<?xml version="1.0" encoding="UTF-8"?>
<svg width="30px" height="79px" viewBox="0 0 30 79" version="1.1" xmlns="http://www.w3.org/2000/svg" xmlns:xlink="http://www.w3.org/1999/xlink">
    <!-- Generator: Sketch 42 (36781) - http://www.bohemiancoding.com/sketch -->
    <title>Group</title>
    <desc>Created with Sketch.</desc>
    <defs></defs>
    <g id="Page-1" stroke="none" stroke-width="1" fill="none" fill-rule="evenodd">
        <g id="Group">
            <path d="M28.471,65.066 L24.088,65.066 L24.088,69.451 C24.088,69.787 23.817,70.058 23.481,70.058 L22.233,70.058 C21.897,70.058 21.626,69.787 21.626,69.451 L21.626,65.066 L17.24,65.066 C16.908,65.066 16.635,64.795 16.635,64.461 L16.635,63.211 C16.635,62.877 16.908,62.604 17.24,62.604 L21.625,62.604 L21.625,58.221 C21.625,57.885 21.896,57.614 22.232,57.614 L23.48,57.614 C23.816,57.614 24.087,57.885 24.087,58.221 L24.087,62.604 L28.47,62.604 C28.804,62.604 29.077,62.877 29.077,63.211 L29.077,64.461 C29.078,64.795 28.805,65.066 28.471,65.066 Z M11.656,77.692 C10.674,77.975 9.615,78.12 8.502,78.12 C7.264,78.12 6.072,77.977 4.962,77.696 C2.812,77.155 1.222,76.126 0.482,74.801 C0.162,74.227 0,73.617 0,72.985 C0,72.333 0.156,71.673 0.463,71.018 C1.643,68.508 4.746,66.821 8.185,66.821 L8.285,66.821 C8.006,66.329 7.869,65.819 7.869,65.284 C7.869,65.016 7.904,64.745 7.974,64.47 C4.368,64.386 1.668,61.745 1.668,58.263 C1.668,55.802 3.633,53.408 6.444,52.439 C7.286,52.148 8.143,52 8.987,52 L16.7,52 C16.964,52 17.194,52.17 17.276,52.42 C17.36,52.672 17.268,52.945 17.055,53.1 L15.33,54.348 C15.226,54.422 15.101,54.463 14.973,54.463 L14.356,54.463 C15.155,55.418 15.622,56.779 15.622,58.311 C15.622,60.002 14.767,61.6 13.212,62.817 C12.011,63.753 11.962,64.008 11.962,64.546 C11.978,64.841 12.816,65.798 13.737,66.45 C15.889,67.973 16.69,69.464 16.69,71.958 C16.69,74.553 14.713,76.805 11.656,77.692 Z M9.311,62.473 C9.94,62.473 10.471,62.225 10.881,61.756 C11.526,61.024 11.809,59.82 11.641,58.541 C11.34,56.254 9.709,54.355 8.004,54.305 L7.936,54.305 C7.332,54.305 6.795,54.551 6.385,55.02 C5.748,55.745 5.482,56.891 5.649,58.166 C5.948,60.449 7.614,62.422 9.284,62.473 L9.311,62.473 Z M11.172,69.36 C11.004,69.247 10.83,69.128 10.651,69.005 C10.126,68.843 9.567,68.759 8.997,68.751 L8.925,68.751 C6.3,68.751 3.996,70.343 3.996,72.157 C3.996,74.128 5.968,75.675 8.487,75.675 C11.809,75.675 13.493,74.53 13.493,72.271 C13.493,72.056 13.468,71.835 13.417,71.615 C13.192,70.735 12.387,70.188 11.172,69.36 Z" id="Combined-Shape-Copy" fill="#80AABE"></path>
            <path d="M29.078,12.461 C29.078,12.795 28.805,13.066 28.471,13.066 L24.088,13.066 L24.088,17.451 C24.088,17.787 23.817,18.058 23.481,18.058 L22.233,18.058 C21.897,18.058 21.626,17.787 21.626,17.451 L21.626,13.066 L17.24,13.066 C16.908,13.066 16.635,12.795 16.635,12.461 L16.635,11.211 C16.635,10.877 16.908,10.604 17.24,10.604 L21.625,10.604 L21.625,6.221 C21.625,5.885 21.896,5.614 22.232,5.614 L23.48,5.614 C23.816,5.614 24.087,5.885 24.087,6.221 L24.087,10.604 L28.47,10.604 C28.804,10.604 29.077,10.877 29.077,11.211 L29.077,12.461 L29.078,12.461 Z M11.656,25.692 C10.674,25.975 9.615,26.12 8.502,26.12 C7.264,26.12 6.072,25.977 4.962,25.696 C2.812,25.155 1.222,24.126 0.482,22.801 C0.162,22.227 0,21.617 0,20.985 C0,20.333 0.156,19.673 0.463,19.018 C1.643,16.508 4.746,14.821 8.185,14.821 L8.285,14.821 C8.006,14.329 7.869,13.819 7.869,13.284 C7.869,13.016 7.904,12.745 7.974,12.47 C4.368,12.386 1.668,9.745 1.668,6.263 C1.668,3.802 3.633,1.408 6.444,0.439 C7.286,0.148 8.143,0 8.987,0 L16.7,0 C16.964,0 17.194,0.17 17.276,0.42 C17.36,0.672 17.268,0.945 17.055,1.1 L15.33,2.348 C15.226,2.422 15.101,2.463 14.973,2.463 L14.356,2.463 C15.155,3.418 15.622,4.779 15.622,6.311 C15.622,8.002 14.767,9.6 13.212,10.817 C12.011,11.753 11.962,12.008 11.962,12.546 C11.978,12.841 12.816,13.798 13.737,14.45 C15.889,15.973 16.69,17.464 16.69,19.958 C16.69,22.553 14.713,24.805 11.656,25.692 Z M9.311,10.473 C9.94,10.473 10.471,10.225 10.881,9.756 C11.526,9.024 11.809,7.82 11.641,6.541 C11.34,4.254 9.709,2.355 8.004,2.305 L7.936,2.305 C7.332,2.305 6.795,2.551 6.385,3.02 C5.748,3.745 5.482,4.891 5.649,6.166 C5.948,8.449 7.614,10.422 9.284,10.473 L9.311,10.473 Z M11.172,17.36 C11.004,17.247 10.83,17.128 10.651,17.005 C10.126,16.843 9.567,16.759 8.997,16.751 L8.925,16.751 C6.3,16.751 3.996,18.343 3.996,20.157 C3.996,22.128 5.968,23.675 8.487,23.675 C11.809,23.675 13.493,22.53 13.493,20.271 C13.493,20.056 13.468,19.835 13.417,19.615 C13.192,18.735 12.387,18.188 11.172,17.36 Z" id="Combined-Shape" fill="#283B44"></path>
        </g>
    </g>
</svg>