<svg xmlns="http://www.w3.org/2000/svg" width="14" height="14.02754" viewBox="0 0 14 14.02754"><title>icon-pie-w</title><path d="M1.24709,11.01131a6.26609,6.26609,0,0,0,.37834.60207,7.20476,7.20476,0,0,0,.57031.50705,7.1539,7.1539,0,0,0,.54589.531,7.1403,7.1403,0,0,0,.62648.43569,7.13662,7.13662,0,0,0,.69738.30845,6.97847,6.97847,0,0,0,.69584.304,7.00569,7.00569,0,0,0,.73827.17724,6.95746,6.95746,0,0,0,.74666.12993,7.08656,7.08656,0,0,0,.7572.02009,7.02361,7.02361,0,0,0,.7443-.03937,6.9604,6.9604,0,0,0,.7375-.11063,6.87,6.87,0,0,0,.70534-.24014,7.28767,7.28767,0,0,0,.73586-.17025,7.15943,7.15943,0,0,0,.613-.44058,7.21954,7.21954,0,0,0,.67183-.338,7.149,7.149,0,0,0,.5388-.52248,7.201,7.201,0,0,0,.57-.49018,7.16915,7.16915,0,0,0,.43941-.60948c.01867-.02654.0334-.08044.0517-.10721-.31369-.196-.35145-.13169-.67342-.31374s-.31375-.19666-.63575-.37872-.293-.23321-.61488-.41523-.31448-.19519-.6364-.37721-.35873-.11711-.68073-.29918-.31925-.18721-.64136-.36934-.30547-.21134-.62748-.39341c-.32224-.1822-.33436-.16075-.6566-.343s-.2707-.38478-.64087-.38485c-.3699-.00008-.342.16082-.664.34288s-.28254.25191-.60457.434-.32533.176-.64727.35807-.31827.18854-.64022.37057-.3144.19558-.63643.37766-.33459.16012-.65674.34226-.33058.167-.65262.34907c-.32226.18221-.32875.169-.662.3301A1.23076,1.23076,0,0,0,1.24709,11.01131Z" style="fill:#fff"/><path d="M6.5622,0a7.26779,7.26779,0,0,0-.76.13725A7.24284,7.24284,0,0,0,5.04539.2164a7.0107,7.0107,0,0,0-.69683.30152,6.94619,6.94619,0,0,0-.66069.36152,7.23922,7.23922,0,0,0-.6928.31427,7.15278,7.15278,0,0,0-.56422.50758,7.15394,7.15394,0,0,0-.57689.49114,7.16487,7.16487,0,0,0-.49428.57618,7.15769,7.15769,0,0,0-.38258.65492,7.02692,7.02692,0,0,0-.371.65849,7.02394,7.02394,0,0,0-.2563.711A6.96,6.96,0,0,0,.1427,5.5186,7.01568,7.01568,0,0,0,.04,6.26577,7.66831,7.66831,0,0,0,.04053,7.83614a6.90146,6.90146,0,0,0,.1816.798,7.21565,7.21565,0,0,0,.1437.81379,6.32722,6.32722,0,0,0,.36512.691A1.37209,1.37209,0,0,0,1.4,9.84935c.32252-.18236.29774-.22619.62026-.40855s.35134-.1312.67378-.31351.309-.20613.63141-.38844.32362-.18042.64615-.36278.29742-.227.62005-.40945.32978-.16955.65232-.35192c.32275-.18249.34816-.13755.67092-.32s.48559-.04868.66939-.37069c.18985-.3326-.05944-.40581-.05944-.78878s.00512-.383.00512-.766.02951-.383.02951-.766-.02162-.3829-.02162-.76579.01879-.383.01879-.766.02326-.38313.02326-.76625-.07043-.383-.07043-.766A4.3469,4.3469,0,0,1,6.51575.76918C6.56238.37941,6.685.36306,6.5622,0Z" style="fill:#fff"/><path d="M7.4673.00708A1.3906,1.3906,0,0,0,7.51171,1.03a5.37551,5.37551,0,0,1,.80171.10079,6.61156,6.61156,0,0,1,.845.30916c-.18225.25871-.33283.0948-.60884.24961-.2762.15492-.2464.20805-.5226.363s-.39447.022-.55973.29214c-.15477.253-.005.29417-.005.59076s-.28149.50278.00292.58689c.38066.11259.34107-.19378.68729-.388s.35342-.18109.69954-.37521c.34635-.19426.33366-.21688.68-.41114s.31568-.27783.69836-.38393a6.12745,6.12745,0,0,1,.612.46c-.25767.28938-.36042.148-.69837.33757s-.335.19508-.67307.3847-.30119.25509-.63915.44465c-.33819.18968-.347.17394-.68521.36362s-.45957.05035-.681.36869c-.16935.24349-.01441.295-.01441.59157s-.25929.46553.02483.55062c.37864.1134.32363-.1657.66835-.359s.36564-.15628.71045-.34968.34591-.19174.69085-.38521.30821-.25868.653-.45208c.34506-.19354.36043-.16614.7055-.35967s.31717-.26493.7011-.36043a5.50368,5.50368,0,0,1,.39735.53513c-.25441.2724-.2905.23226-.61557.41459s-.37073.101-.69581.2833-.2981.23064-.62327.413-.30432.21982-.6296.40226-.37188.09911-.69706.2815c-.32541.18251-.29792.2315-.62333.414s-.47716.02775-.68578.33706a.4929.4929,0,0,0-.008.64353c.1505.25847.261.28606.55954.26873.36952-.02145.332-.162.65485-.343s.31138-.20149.63421-.38256.32635-.175.64927-.35609.31422-.19688.63724-.378l.64583-.36227c.32315-.18124.32652-.17523.64967-.35647s.27781-.32963.641-.40282a6.07588,6.07588,0,0,1,.214.6738,1.89707,1.89707,0,0,1-.61936.45289c-.33787.1895-.37711.11953-.715.309s-.31336.23348-.65135.423-.3666.1383-.70449.3278c-.33811.18964-.32473.2135-.66284.40313s-.60233.0104-.68594.38894c-.06525.2954.29712.12351.56046.2724s.20708.32437.50916.30819c.36788-.01971.33837-.13281.65968-.313s.32792-.16869.64935-.349.28928-.23735.6106-.41757c.32154-.18034.324-.17588.64559-.35622s.29424-.25063.6535-.33339a5.75694,5.75694,0,0,1,.03621.61646c0,.04824-.01374.08585-.01487.1338-.30743.19528-.32845.15753-.64611.33569s-.2831.23953-.60065.41763c-.31777.17823-.32073.173-.6385.35119s-.555-.02222-.61478.33718c-.04966.29841.25259.10051.51593.24941s.199.332.501.3137c.37716-.02286.32557-.16818.65512-.353a1.94344,1.94344,0,0,1,.67029-.338,5.58384,5.58384,0,0,1-.202.60392A6.74565,6.74565,0,0,1,12.338,9.708a1.5647,1.5647,0,0,0,.93415.46349A6.79791,6.79791,0,0,0,13.612,9.4369a7.04408,7.04408,0,0,0,.18744-.79951,6.93906,6.93906,0,0,0,.18941-.79871,7.20389,7.20389,0,0,0-.01313-.82091,6.97841,6.97841,0,0,0-.04274-.74829,7.04258,7.04258,0,0,0-.07653-.74908,7.11289,7.11289,0,0,0-.15287-.74281,7.05075,7.05075,0,0,0-.35717-.6704,7.09729,7.09729,0,0,0-.29761-.69482,7.07452,7.07452,0,0,0-.43483-.61845,7.17,7.17,0,0,0-.45446-.60729,7.25792,7.25792,0,0,0-.61039-.45366,6.91787,6.91787,0,0,0-1.2178-.87521A7.01308,7.01308,0,0,0,9.6716.4869,7.02086,7.02086,0,0,0,8.96034.22262,7.04232,7.04232,0,0,0,8.221.04776,7.10123,7.10123,0,0,0,7.4673.00708Z" style="fill:#fff"/></svg>