<?xml version="1.0" encoding="utf-8"?>
<!-- Generator: Adobe Illustrator 21.0.0, SVG Export Plug-In . SVG Version: 6.00 Build 0)  -->
<svg version="1.1" id="Layer_1" xmlns="http://www.w3.org/2000/svg" xmlns:xlink="http://www.w3.org/1999/xlink" x="0px" y="0px"
	 viewBox="0 0 249.4 209.7" style="enable-background:new 0 0 249.4 209.7;" xml:space="preserve">
<style type="text/css">
	.st0{fill:#283B44;}
</style>
<g>
	<path class="st0" d="M58.3,55.5c-1,1.8-1.4,2.6-1.4,2.6c-0.8,1.6-2.8,2.3-4.4,1.7l-3-1.1c-1.6-0.6-3.5,0.2-4.1,1.9l-2.3,6
		c-0.6,1.6,0.2,3.5,1.9,4.1l3,1.1c1.6,0.6,2.6,2.5,2.2,4.2l-1.3,6.5c-0.3,1.7-1.9,3.1-3.7,3.1L42,85.5c-1.8-0.1-3.2,1.3-3.3,3.1
		L38.5,95c-0.1,1.8,1.3,3.2,3.1,3.3l3.2,0.1c1.8,0.1,3.3,1.5,3.5,3.3l0.9,6.6c0.3,1.7-0.8,3.6-2.5,4.1l-3.1,0.9
		c-1.7,0.5-2.6,2.3-2.1,4l2.8,9.2l17.2-5.3c-7.9-19.3-7.1-41.9,4.1-61.4S96,28.3,116.7,25.5l-4-17.6l-9.3,2.2
		c-1.7,0.4-2.8,2.1-2.4,3.8l0.7,3.2c0.4,1.7-0.6,3.6-2.3,4.2l-6.1,2.5c-1.6,0.7-3.7,0.1-4.6-1.4L87,19.7c-0.9-1.5-2.9-2-4.4-1
		L77,21.9c-1.5,0.9-2,2.9-1,4.4l1.7,2.7c0.9,1.5,0.6,3.6-0.8,4.7l-5,4.4c-1.3,1.2-3.4,1.3-4.8,0.2l-2.5-2c-1.4-1.1-3.4-0.9-4.5,0.5
		l-4,5c-1.1,1.4-0.9,3.4,0.5,4.5l2.5,2c1.4,1.1,1.7,3.2,0.7,4.7C59.8,53,59.3,53.7,58.3,55.5"/>
	<path class="st0" d="M124.8,170.8c2.1,0,2.9-0.1,2.9-0.1c1.8-0.1,3.4,1.2,3.7,3l0.5,3.2c0.3,1.7,1.9,2.9,3.7,2.7l6.3-1
		c1.7-0.3,2.9-1.9,2.6-3.7l-0.5-3.2c-0.3-1.7,0.9-3.6,2.6-4.1l6.3-2.1c1.6-0.6,3.7,0.1,4.5,1.7l1.5,2.8c0.8,1.6,2.8,2.1,4.3,1.3
		l5.6-3c1.6-0.8,2.1-2.8,1.3-4.3l-1.5-2.9c-0.8-1.5-0.3-3.6,1.1-4.7l5.3-4.1c1.3-1.1,3.5-1.1,4.8,0.1l2.4,2.2
		c1.3,1.2,3.3,1.1,4.5-0.2l6.6-7L180,135.3c-12.8,16.5-32.7,27.1-55.2,27.1s-42.4-10.6-55.2-27.1l-13.2,12.3l6.5,7
		c1.2,1.3,3.2,1.4,4.5,0.2l2.4-2.2c1.3-1.2,3.4-1.3,4.8-0.1l5.3,4.1c1.4,1,1.9,3.1,1.1,4.7l-1.5,2.8c-0.8,1.6-0.2,3.5,1.3,4.3l5.6,3
		c1.6,0.8,3.5,0.2,4.3-1.3l1.5-2.8c0.8-1.5,2.8-2.3,4.5-1.7l6.3,2.1c1.7,0.5,2.8,2.3,2.6,4.1l-0.5,3.2c-0.3,1.7,0.9,3.4,2.6,3.7
		l6.3,1c1.7,0.3,3.4-0.9,3.7-2.6l0.5-3.2c0.3-1.7,1.9-3.1,3.7-3C121.9,170.7,122.7,170.8,124.8,170.8"/>
	<path class="st0" d="M191.4,55.5c-1-1.8-1.5-2.5-1.5-2.5c-1-1.5-0.6-3.6,0.7-4.7l2.5-2c1.4-1.1,1.6-3.1,0.5-4.5l-4-4.9
		c-1.1-1.4-3.1-1.6-4.5-0.5l-2.5,2c-1.4,1.1-3.5,1-4.8-0.2l-5-4.4c-1.4-1.1-1.7-3.2-0.8-4.7l1.7-2.7c0.9-1.5,0.5-3.5-1-4.4l-5.4-3.4
		c-1.5-0.9-3.5-0.5-4.4,1l-1.7,2.7c-0.9,1.5-3,2.1-4.6,1.4l-6.1-2.5c-1.7-0.6-2.7-2.5-2.3-4.2l0.7-3.2c0.4-1.7-0.7-3.4-2.4-3.8
		l-9.3-2.2l-4,17.6c20.7,2.8,39.8,14.8,51.1,34.3c11.2,19.5,12,42.1,4.1,61.4l17.2,5.3l2.8-9.2c0.5-1.7-0.4-3.5-2.1-4l-3.1-1
		c-1.7-0.5-2.8-2.4-2.5-4.1l0.9-6.6c0.2-1.7,1.7-3.2,3.5-3.3l3.2-0.1c1.8-0.1,3.1-1.5,3.1-3.3l-0.2-6.4c-0.1-1.8-1.5-3.1-3.3-3.1
		l-3.2,0.1c-1.8,0.1-3.4-1.3-3.7-3.1l-1.3-6.5c-0.4-1.7,0.6-3.6,2.2-4.2l3-1.1c1.6-0.6,2.5-2.5,1.8-4.1l-2.3-6
		c-0.6-1.6-2.5-2.5-4.1-1.9l-3,1.1c-1.6,0.6-3.6-0.1-4.4-1.7C192.8,58.1,192.4,57.3,191.4,55.5"/>
	<path class="st0" d="M24.9,54c0,0.1-0.1,0.1-0.1,0.1S24.9,54.1,24.9,54"/>
	<path class="st0" d="M52.4,17.8l0.2,0.3c0.8-0.5,3.3-2.4,6.5-3.3C76.5,9.9,75.7,3.9,83,0.4L82.8,0c-0.7,0.5-3,1.8-6.1,1.8
		C56.3,2.1,57.8,14,52.4,17.8"/>
	<path class="st0" d="M32.1,40.4l0.4,0.2c4.1-4.6,8.1-5.5,8.8-5.6c16.2-4.8,21.8-15.5,26.2-18.5l-0.2-0.2c-6,4.2-13.1-0.1-25.2,12.9
		c-0.1,0.1-0.4-0.4-0.4-0.4c9.9-11.9,10.1-20,14.7-24.4l-0.2-0.2C27.5,21.3,40,30.6,32.1,40.4"/>
	<path class="st0" d="M33.3,20.6c-27,26.8-10.2,33.6-14.4,46.9l0.3,0.1c2.4-5.6,8.7-8.1,8.9-8.2c11.4-5.3,15-18.6,19.6-22.7
		l-0.2-0.2c-5.6,6.1-14.8,2.7-22.3,17.7c0,0-0.5-0.2-0.5-0.3c6.1-13.1,3.2-24.9,9-33.1C33.5,20.8,33.4,20.7,33.3,20.6"/>
	<path class="st0" d="M13.7,103.1h0.4c-0.1-1.5-0.5-7.9,5.9-13.8c12.8-11.9,10.6-22.4,15.9-30.6l-0.4-0.2c-4.1,7-19,14.6-19.7,25.3
		c0,0-0.6,0-0.6-0.1c2.2-15.3-5.9-25.6-1.5-35.3c-0.1-0.1-0.3-0.2-0.4-0.2C-3.8,83.4,10.5,82.9,13.7,103.1"/>
	<path class="st0" d="M20.3,136.6l0.4-0.1c-3.5-8,2.4-18.8,2.7-19.4c7.8-15.1,5.2-28.8,7-33.6L30,83.4c-4.2,10.4-15.7,16-13.9,33.4
		h-0.6C13.7,106,1.4,95.7,1.8,83.8c-0.1,0-0.1,0-0.2,0C-6,125.8,15.7,125.5,20.3,136.6"/>
	<path class="st0" d="M37.8,167.6l0.3-0.2c-7.3-8.8-5.1-18.5-4.9-19.2c3.6-20.9-3.1-24.7-3.3-34.2h-0.4
		c-0.3,10.6-11.2,22.5-1.3,37.3l-0.5,0.3c-10.8-15.8-19.5-12-24.5-27.7l0,0c-0.2,0-0.4,0.1-0.5,0.1
		C10.3,170.2,30.8,156.3,37.8,167.6"/>
	<path class="st0" d="M80.1,187.7l-0.1-0.4c-14.3,2.9-21.6,0.1-24.2-13c-3.6-18.4-16.2-25.6-17.7-32.9l0,0c-0.2,0-0.3,0-0.4,0.1l0,0
		c2.7,13-3.7,20.8,12.1,36.4l-0.4,0.4c-15.1-12-25.5-7.6-31.5-15.9c-0.1,0.1-0.2,0.2-0.3,0.3C36.4,193.6,56.5,195.3,80.1,187.7"/>
	<path class="st0" d="M44.8,193.1l0.1-0.2c19.2,11.2,39.3-4.4,63.6-5c6.1-0.1,24.4,1,41.1,20.4l-4.4,1.3
		c-5.5-9.6-14.1-16.6-21.8-18.5c-22.1-5.5-22.6,15.1-47.2,15.4C58,206.8,45.5,193.8,44.8,193.1"/>
	<path class="st0" d="M224.4,54c0,0.1,0.1,0.1,0.1,0.1S224.5,54.1,224.4,54"/>
	<path class="st0" d="M224.4,54c0,0.1,0.1,0.1,0.1,0.1S224.5,54.1,224.4,54"/>
	<path class="st0" d="M24.9,54c0,0.1-0.1,0.1-0.1,0.1S24.9,54.1,24.9,54"/>
	<path class="st0" d="M224.4,54c0,0.1,0.1,0.1,0.1,0.1S224.5,54.1,224.4,54"/>
	<path class="st0" d="M197,17.8l-0.2,0.3c-0.8-0.5-3.3-2.4-6.5-3.3c-17.4-4.9-16.5-10.9-23.9-14.5l0.2-0.4c0.7,0.5,3,1.8,6.1,1.8
		C193.1,2.1,191.6,14,197,17.8"/>
	<path class="st0" d="M217.2,40.4l-0.4,0.2c-4.1-4.6-8.1-5.5-8.8-5.6c-16.2-4.8-21.8-15.5-26.2-18.5l0.2-0.2
		c6,4.2,13.1-0.1,25.2,12.9c0.1,0.1,0.4-0.4,0.4-0.4c-9.8-11.9-10-20-14.6-24.4l0.2-0.2C221.9,21.3,209.3,30.6,217.2,40.4"/>
	<path class="st0" d="M216,20.6c27,26.8,10.2,33.6,14.4,46.9l-0.3,0.1c-2.4-5.6-8.7-8.1-8.9-8.2c-11.4-5.3-15-18.6-19.6-22.7
		l0.2-0.2c5.6,6.1,14.8,2.7,22.3,17.7c0,0,0.5-0.2,0.5-0.3c-6.1-13.1-3.2-24.9-9-33.1C215.9,20.8,216,20.7,216,20.6"/>
	<path class="st0" d="M235.7,103.1h-0.4c0.1-1.5,0.5-7.9-5.9-13.8c-12.8-11.9-10.6-22.4-15.9-30.6l0.4-0.2c4.1,7,19,14.6,19.7,25.3
		c0,0,0.6,0,0.6-0.1c-2.2-15.3,5.9-25.6,1.5-35.3c0.2-0.1,0.3-0.2,0.4-0.2C253.1,83.4,238.9,82.9,235.7,103.1"/>
	<path class="st0" d="M229.1,136.6l-0.4-0.1c3.5-8-2.4-18.8-2.6-19.4c-7.8-15.1-5.2-28.8-7-33.6l0.4-0.1c4.2,10.4,15.7,16,13.9,33.4
		h0.6c1.8-10.8,14.1-21.2,13.7-33c0.1,0,0.1,0,0.2,0C255.4,125.8,233.6,125.5,229.1,136.6"/>
	<path class="st0" d="M211.6,167.6l-0.3-0.2c7.3-8.8,5.1-18.5,4.9-19.2c-3.6-20.9,3.1-24.7,3.3-34.2h0.4
		c0.3,10.6,11.2,22.5,1.3,37.3l0.5,0.3c10.8-15.8,19.5-12,24.5-27.7l0,0c0.2,0,0.4,0.1,0.5,0.1C239.1,170.2,218.5,156.3,211.6,167.6
		"/>
	<path class="st0" d="M169.3,187.7l0.1-0.4c14.3,2.9,21.6,0.1,24.2-13c3.6-18.4,16.2-25.6,17.6-32.9l0,0c0.2,0,0.3,0,0.4,0.1l0,0
		c-2.7,13,3.7,20.8-12.1,36.4l0.4,0.4c15.1-12,25.5-7.6,31.5-15.9c0.1,0.1,0.2,0.2,0.3,0.3C213,193.6,192.9,195.3,169.3,187.7"/>
	<path class="st0" d="M204.6,193.1l-0.1-0.2c-19.2,11.2-39.3-4.4-63.6-5c-6.1-0.1-24.4,1-41.1,20.4l4.5,1.3
		c5.5-9.6,14.1-16.6,21.8-18.5c22.1-5.5,22.6,15.1,47.2,15.4C191.4,206.8,203.9,193.8,204.6,193.1"/>
	<path class="st0" d="M24.9,54c0,0.1-0.1,0.1-0.1,0.1S24.9,54.1,24.9,54"/>
	<path class="st0" d="M24.9,54c0,0.1-0.1,0.1-0.1,0.1S24.9,54.1,24.9,54"/>
	<path class="st0" d="M224.4,54c0,0.1,0.1,0.1,0.1,0.1S224.5,54.1,224.4,54"/>
	<path class="st0" d="M168.4,87.8c0,5.8-0.2,10.7-0.2,10.7c-0.4,4.7-0.4,9.4-2.6,12.7c-2.5,3.7-6.4,5.6-10.4,5.6l-0.2,0.1h-0.5
		l-0.1-0.1c-4,0-7.9-1.9-10.4-5.6c-2.2-3.2-2.3-7.9-2.6-12.7c0,0-0.1-4.9-0.2-10.6v-0.3c0-5.8,0.2-10.7,0.2-10.7
		c0.4-4.7,0.4-9.4,2.6-12.7c2.5-3.7,6.4-5.6,10.4-5.6h0.1h0.5h0.2c4,0,7.9,1.9,10.4,5.6c2.2,3.2,2.3,7.9,2.6,12.7
		c0,0,0.1,4.9,0.2,10.6V87.8z M154.6,54.6h-0.3c-9,0-17.6,5.8-21.9,15.4c-2.2,4.9-2.7,11.3-2.7,17.4s0.5,12.5,2.7,17.4
		c4.3,9.6,12.9,16.2,21.9,16.2h0.3c9,0,17.6-6.6,21.9-16.2c2.2-4.9,2.7-11.3,2.7-17.4s-0.5-12.5-2.7-17.4
		C172.2,60.4,163.6,54.6,154.6,54.6"/>
	<path class="st0" d="M161.3,123.8c0,0-1.8,4.6-5,7.4c-1.8,1.5-4.5,1.9-6.6,2.2l-22.1,1.1h-4.9c0,0-3.7-0.2-3.9-3.7V53.4
		c0.2-3.4,3.9-3.6,3.9-3.6h4.9v-4.5H98.1v4.5h4.9c0,0,3.7,0.2,3.9,3.6v77.4c-0.2,3.4-3.9,3.7-3.9,3.7h-4.9v4.5h29.6l32,0.1l3.9-14.3
		v-0.5L161.3,123.8z"/>
	<path class="st0" d="M91.9,63.1c0.2-2.9,3.3-3,3.3-3h4.1v-3.8H74.6v3.8h4.1c0,0,3.1,0.2,3.3,3v49.5c-0.2,2.9-3.3,3-3.3,3h-4.1v3.8
		h24.7v-3.8h-4.1c0,0-3.1-0.2-3.3-3V63.1z"/>
</g>
</svg>
