<?xml version="1.0" encoding="utf-8"?>
<!-- Generator: Adobe Illustrator 21.0.0, SVG Export Plug-In . SVG Version: 6.00 Build 0)  -->
<svg version="1.1" id="Layer_1" xmlns="http://www.w3.org/2000/svg" xmlns:xlink="http://www.w3.org/1999/xlink" x="0px" y="0px"
	 viewBox="0 0 48.5 57.2" style="enable-background:new 0 0 48.5 57.2;" xml:space="preserve">
<style type="text/css">
	.st0{fill:#EA3A32;}
</style>
<g id="Production">
	<g>
		<g>
			<g>
				<path class="st0" d="M22.4,7.7c0,0.4,0.2,0.7,0.4,1c0.2,0.3,0.5,0.5,0.9,0.6c0.3,0.1,0.7,0.2,1.1,0.1c0.3-0.1,0.6-0.4,0.8-0.7
					c0.2-0.3,0.5-0.5,0.5-0.9c0-0.4,0.1-0.8,0.1-1.1c0-0.4,0-0.8,0-1.1c0-0.4,0.2-0.8,0.2-1.1c0-0.5,0-0.9,0-1.1
					c0.1-0.9,0.1-0.9,0.1-1.1c0-0.4-0.2-0.8-0.4-1.1c-0.2-0.3-0.6-0.6-1-0.7C24.9,0,24.5,0,24,0c-0.4,0-0.9,0-1.2,0.3
					c-0.3,0.2-0.5,0.7-0.6,1C22.1,1.7,21.9,2,22,2.4c0,0.5,0.1,0.5,0.1,1c0,0.5,0,0.5,0,1.1c0,0.5,0,0.5,0.1,1c0,0.5,0,0.5,0.1,1.1
					C22.3,7.2,22.4,7.1,22.4,7.7z"/>
			</g>
			<g>
				<path class="st0" d="M42.3,19.1c0.4-0.2,0.8-0.2,1.1-0.4c0.4-0.2,0.7-0.4,1-0.6c0.4-0.2,0.8-0.2,1.1-0.4c0.4-0.2,0.7-0.5,1-0.6
					c0.8-0.4,0.9-0.3,1.1-0.4c0.3-0.2,0.5-0.6,0.7-1c0.2-0.4,0.2-0.7,0.2-1.2c0-0.4-0.1-0.8-0.3-1.2c-0.2-0.3-0.6-0.6-0.9-0.8
					c-0.4-0.2-0.8-0.2-1.2-0.2c-0.4,0-0.8,0.1-1.1,0.4c-0.4,0.3-0.4,0.3-0.8,0.6c-0.4,0.3-0.4,0.3-0.9,0.6c-0.4,0.3-0.5,0.3-0.9,0.6
					c-0.4,0.3-0.4,0.4-0.8,0.7c-0.4,0.3-0.5,0.2-0.9,0.5c-0.3,0.2-0.5,0.6-0.6,0.9c-0.1,0.3-0.2,0.7-0.1,1.1
					c0.1,0.4,0.4,0.6,0.6,0.9c0.3,0.3,0.5,0.5,0.9,0.6C41.6,19.4,42,19.2,42.3,19.1z"/>
			</g>
			<g>
				<path class="st0" d="M47.1,38c-0.5-0.2-0.5-0.2-0.9-0.4c-0.5-0.2-0.5-0.2-1-0.4c-0.5-0.2-0.4-0.3-0.9-0.5
					c-0.5-0.2-0.5-0.2-1-0.4s-0.5-0.3-0.9-0.5c-0.4-0.2-0.8-0.3-1.1-0.2c-0.4,0.1-0.7,0.3-0.9,0.6c-0.3,0.3-0.4,0.6-0.5,0.9
					c-0.1,0.3-0.2,0.7,0,1.1c0.1,0.3,0.4,0.6,0.7,0.8c0.1,0.1,0.4,0.3,0.9,0.7c0.3,0.2,0.6,0.4,1,0.6c0.3,0.2,0.6,0.5,0.9,0.7
					c0.3,0.2,0.6,0.5,0.9,0.7c0.5,0.3,0.9,0.6,1,0.6c0.4,0.2,0.8,0.2,1.2,0.2c0.4,0,0.8-0.2,1.2-0.4c0.3-0.2,0.6-0.6,0.8-1
					c0.2-0.4,0.3-0.8,0.2-1.2c0-0.4-0.3-0.8-0.5-1.1C47.8,38.5,47.5,38.2,47.1,38z"/>
			</g>
			<g>
				<path class="st0" d="M1.3,17c0.5,0.2,0.5,0.1,1,0.3c0.5,0.2,0.5,0.2,1,0.4c0.5,0.2,0.5,0.2,1,0.4c0.5,0.2,0.4,0.3,0.9,0.5
					C5.6,18.9,5.6,19,6,19.2c0.4,0.2,0.8,0.2,1.1,0.1c0.4-0.1,0.7-0.3,1-0.5c0.3-0.3,0.4-0.6,0.5-1c0.1-0.3,0.2-0.7,0-1.1
					c-0.1-0.3-0.4-0.6-0.7-0.8c-0.1-0.1-0.4-0.3-0.9-0.7c-0.3-0.2-0.6-0.4-0.9-0.6c-0.3-0.2-0.7-0.4-1-0.6c-0.3-0.2-0.6-0.5-0.9-0.7
					c-0.5-0.3-0.9-0.5-1-0.6c-0.4-0.2-0.8-0.4-1.2-0.3c-0.4,0-0.8,0.2-1.2,0.4c-0.3,0.2-0.6,0.6-0.8,1C-0.1,14.2,0,14.6,0,15
					c0,0.4,0.1,0.8,0.4,1.1C0.6,16.5,0.9,16.8,1.3,17z"/>
			</g>
			<g>
				<path class="st0" d="M6.1,35.9c-0.4,0.2-0.7,0.4-1,0.5c-0.4,0.2-0.8,0.2-1.1,0.4c-0.4,0.2-0.7,0.4-1,0.5c-0.4,0.2-0.8,0.4-1,0.5
					c-0.8,0.4-0.9,0.3-1.1,0.4c-0.3,0.2-0.6,0.6-0.7,1C0,39.5,0,39.9,0,40.3c0,0.4,0.1,0.8,0.3,1.2c0.2,0.3,0.6,0.5,1,0.7
					c0.4,0.2,0.8,0.3,1.2,0.3c0.4,0,0.8-0.2,1.1-0.5c0.4-0.3,0.5-0.2,0.9-0.5c0.4-0.3,0.4-0.3,0.9-0.6c0.4-0.3,0.4-0.3,0.9-0.6
					c0.4-0.3,0.4-0.3,0.8-0.6c0.4-0.3,0.4-0.4,0.8-0.7c0.3-0.2,0.6-0.5,0.7-0.8c0.1-0.3,0.2-0.7,0.1-1.1c-0.1-0.4-0.3-0.7-0.5-1
					c-0.3-0.3-0.6-0.3-1-0.4C6.8,35.6,6.5,35.7,6.1,35.9z"/>
			</g>
			<g>
				<path class="st0" d="M24.3,13c-0.4,0-0.7,0.1-1,0.2c-0.4,0-0.7-0.1-1.1-0.1c-0.3,0-0.7-0.1-1.1,0c-0.3,0.1-0.6,0.4-1,0.5
					c-0.3,0.1-0.7,0.1-1,0.3c-0.3,0.1-0.6,0.4-0.9,0.5c-0.3,0.1-0.6,0.3-0.9,0.5c-0.3,0.2-0.7,0.2-1,0.4c-0.3,0.2-0.6,0.3-0.9,0.5
					c-0.3,0.2-0.6,0.4-0.8,0.7c-0.3,0.2-0.6,0.4-0.8,0.6c-0.2,0.2-0.4,0.6-0.6,0.9c-0.2,0.3-0.4,0.5-0.6,0.8
					c-0.2,0.3-0.6,0.4-0.8,0.7c-0.2,0.3-0.1,0.8-0.3,1.1c-0.2,0.3-0.6,0.5-0.8,0.8c-0.1,0.3-0.1,0.7-0.3,1c-0.1,0.3,0.1,0.8,0,1.1
					c-0.1,0.3-0.3,0.6-0.4,1c-0.1,0.3,0,0.7,0,1.1c0,0.3-0.2,0.7-0.2,1c0,0.3,0,0.7,0,1c0,0.4-0.1,0.7,0,1c0,0.4-0.1,0.7,0,1
					c0,0.4,0.4,0.6,0.5,1c0.1,0.3-0.1,0.7,0,1.1c0.1,0.3,0,0.7,0.2,1c0.1,0.3,0.1,0.7,0.3,1c0.2,0.3,0.6,0.5,0.8,0.8
					c0.2,0.3,0.1,0.8,0.3,1c0.2,0.3,0.7,0.3,1,0.6c0.2,0.3,0.1,0.8,0.3,1.1c0.2,0.3,0.7,0.3,0.9,0.5c0.2,0.3,0.3,0.6,0.6,0.9
					c0.2,0.3,0.3,0.7,0.5,0.9c0.2,0.3,0.7,0.3,0.9,0.6c0.2,0.3,0.2,0.7,0.4,1c0.2,0.3,0.2,0.6,0.4,0.9c0.1,0.3,0.6,0.5,0.7,0.8
					c0.1,0.3,0,0.7,0,1c0,0.5,0.2,0.5,0.2,0.9c0,0.5-0.3,0.5,0,0.8c0.4,0.3,0.4,0.1,0.9,0.1c0.5,0,0.5,0.1,1,0.1
					c0.5,0,0.5-0.3,1.1-0.3c0.5,0,0.5,0.2,1.1,0.2c0.5,0,0.5,0.2,1.1,0.2c0.5,0,0.5,0,1.1,0c0.5,0,0.5,0.2,1.1,0.2
					c0.5,0,0.5-0.4,1.1-0.4c0.5,0,0.5,0,1,0c0.5,0,0.5-0.2,1.1-0.2c0.5,0,0.5,0.4,1.1,0.4c0.5,0,0.5-0.4,1.1-0.4s0.8,0.8,1.2,0.4
					c0.3-0.3-0.1-0.7-0.1-1.1c0-0.5,0.2-0.5,0.2-0.9c0-0.4-0.4-0.7-0.3-1.1c0.1-0.3,0.1-0.8,0.3-1.1c0.2-0.3,0.9-0.3,1.1-0.5
					c0.2-0.3,0.3-0.6,0.6-0.8c0.2-0.3,0-0.9,0.3-1.1c0.2-0.2,0.8-0.2,1-0.5c0.2-0.2,0.5-0.5,0.7-0.8c0.2-0.3,0.1-0.8,0.3-1.1
					c0.2-0.3,0.9-0.2,1.1-0.4c0.2-0.3,0-0.8,0.2-1.1c0.2-0.3,0.4-0.5,0.6-0.8c0.2-0.3,0.6-0.5,0.7-0.8c0.1-0.3,0.1-0.7,0.2-1
					c0.1-0.3,0-0.7,0.1-1c0.1-0.3,0.6-0.6,0.6-0.9c0.1-0.3,0-0.7,0-1.1c0-0.3,0-0.7,0.1-1c0-0.3-0.1-0.7-0.1-1
					c0-0.4,0.4-0.7,0.4-1.1c0-0.4-0.5-0.7-0.6-1c0-0.3,0.1-0.7,0-1.1c-0.1-0.3-0.5-0.6-0.6-0.9c-0.1-0.3,0.3-0.8,0.2-1.2
					c-0.1-0.3-0.7-0.5-0.8-0.8c-0.1-0.3-0.2-0.7-0.3-1c-0.2-0.3-0.1-0.8-0.3-1c-0.2-0.3-0.6-0.4-0.8-0.7c-0.2-0.3-0.4-0.6-0.6-0.8
					c-0.2-0.3-0.5-0.5-0.7-0.7c-0.2-0.2-0.4-0.6-0.6-0.9c-0.3-0.2-0.6-0.4-0.9-0.6c-0.3-0.2-0.5-0.5-0.8-0.6
					c-0.3-0.2-0.7-0.1-1.1-0.3c-0.3-0.2-0.4-0.9-0.7-1c-0.3-0.1-0.8,0-1.1-0.1c-0.3-0.1-0.6-0.3-1-0.4c-0.3-0.1-0.7-0.1-1-0.2
					c-0.3-0.1-0.7-0.3-1-0.3c-0.3,0-0.7,0-1.1,0C25,12.9,24.7,13,24.3,13z M26.7,19.1c-0.4,0-0.7,0.1-1,0.2c-0.3,0-0.7-0.1-1,0
					c-0.3,0.1-0.7,0-1.1,0.1c-0.3,0.1-0.6,0.4-0.9,0.6c-0.3,0.1-0.7,0.2-1,0.4c-0.3,0.2-0.5,0.4-0.8,0.6c-0.3,0.2-0.5,0.4-0.8,0.6
					c-0.3,0.2-0.6,0.3-0.9,0.5c-0.2,0.2-0.6,0.4-0.8,0.7c-0.2,0.3-0.4,0.5-0.6,0.8c-0.2,0.3-0.5,0.5-0.6,0.8c-0.2,0.3-0.2,0.7-0.3,1
					c-0.1,0.3-0.3,0.6-0.4,1c-0.1,0.3-0.5,0.6-0.6,0.9c-0.1,0.3,0.2,0.7,0.1,1.1c0,0.3-0.4,0.7-0.4,1c0,0.3,0.1,0.7,0.2,1.1
					c0,0.3,0.4,0.7,0.4,1c0.1,0.3,0,0.7,0.1,1c0.1,0.3,0.3,0.6,0.5,0.9c0.1,0.3,0.1,0.7,0.3,1c0.1,0.3,0.3,0.6,0.5,0.9
					c0.2,0.3,0.3,0.7,0.5,1c-0.3-0.2-0.6-0.5-0.8-0.7c-0.3-0.2-0.7-0.2-1-0.5c-0.2-0.2-0.3-0.7-0.5-0.9c-0.2-0.3-0.2-0.6-0.4-0.9
					c-0.2-0.3-0.2-0.6-0.4-0.9c-0.2-0.3-0.6-0.4-0.8-0.8c-0.1-0.3,0-0.7-0.1-1c-0.1-0.3-0.6-0.6-0.7-0.9c-0.1-0.3,0.3-0.7,0.3-1.1
					c0-0.3-0.4-0.7-0.4-1c0-0.4,0.2-0.7,0.2-1.1c0-0.4,0.3-0.7,0.4-1c0.1-0.4-0.2-0.8-0.1-1.1c0.1-0.3,0.4-0.6,0.6-0.9
					c0.1-0.3,0.4-0.6,0.6-0.9c0.2-0.3,0-0.8,0.2-1.1c0.2-0.3,0.5-0.5,0.8-0.8c0.2-0.3,0.3-0.6,0.6-0.9c0.3-0.3,0.5-0.6,0.7-0.8
					c0.3-0.2,0.7-0.3,0.9-0.5c0.3-0.2,0.6-0.3,0.9-0.5c0.3-0.2,0.5-0.6,0.9-0.7c0.3-0.1,0.7,0,1.1-0.1c0.3-0.1,0.7,0,1.1-0.1
					c0.3-0.1,0.7-0.2,1-0.2c0.3,0,0.7,0.1,1.1,0.1c0.3,0,0.7-0.4,1-0.3c0.3,0,0.7,0.1,1,0.2c0.3,0.1,0.7,0,1,0.1
					c0.3,0.1,0.5,0.6,0.8,0.7c0.3,0.1,0.8-0.1,1.1,0c0.3,0.2,0.3,0.8,0.6,0.9c0.3,0.2,0.7,0.2,1,0.4c0.3,0.2,0.4,0.6,0.6,0.8
					c0.2,0.2,0.8,0.2,1,0.4c0.2,0.3,0.6,0.8,0.8,1.1c-0.3-0.2-0.6-0.8-0.9-1c-0.3-0.2-0.6-0.3-0.9-0.4c-0.3-0.1-0.8,0.2-1.1,0.1
					c-0.3-0.1-0.5-0.6-0.8-0.7c-0.3-0.1-0.6-0.2-1-0.2c-0.3-0.1-0.7,0.3-1,0.3C27.3,19.3,27,19.1,26.7,19.1z"/>
			</g>
			<g>
				<path class="st0" d="M17.4,52.8c0,0.3,0.2,0.6,0.4,0.9c0.2,0.3,0.3,0.6,0.6,0.8c0.2,0.2,0.6,0.3,0.9,0.4
					c0.3,0.1,0.6,0.3,0.9,0.4c0.3,0.1,0.5,0.3,0.8,0.3c0,0.5,0.4,0.7,0.7,1c0.3,0.3,0.7,0.5,1.1,0.5c0.5,0,0.5,0,1.1,0
					c0.5,0,0.5,0,1.1,0c0.5,0,0.5,0.1,1.1,0.1c0.3,0,0.6-0.1,0.9-0.3c0.3-0.1,0.4-0.4,0.6-0.7c0.2-0.2,0.3-0.5,0.3-0.8
					c0.4-0.1,0.8-0.1,1.2-0.3c0.4-0.1,0.7-0.4,1-0.6c0.4-0.2,0.6-0.5,0.8-0.8c0.2-0.3,0.4-0.6,0.4-1c0-0.6,0.1-0.6,0.1-1.1
					c0-0.6,0-0.6,0-1.1c0-0.6,0-0.6,0-1.2c0-0.6,0.3-0.7-0.1-1.1c-0.4-0.4-0.5,0-1,0c-0.5,0-0.5-0.1-1-0.1c-0.5,0-0.5,0.1-1.1,0.1
					c-0.5,0-0.5-0.1-1.1-0.1c-0.5,0-0.5,0-1.1,0c-0.5,0-0.5,0-1.1,0c-0.5,0-0.5,0.2-1.1,0.2c-0.5,0-0.5,0-1.1,0
					c-0.5,0-0.5-0.1-1-0.1c-0.5,0-0.5,0-1.1,0c-0.5,0-0.5,0-1.1,0c-0.5,0-0.5,0.1-1.1,0.1c-0.5,0-0.7-0.4-1,0
					c-0.4,0.4-0.1,0.6-0.1,1.1c0,0.6,0,0.6,0,1.1c0,0.6,0.1,0.6,0.1,1.2C17.5,52.2,17.4,52.2,17.4,52.8z"/>
			</g>
		</g>
	</g>
</g>
</svg>
