<?xml version="1.0" encoding="utf-8"?>
<!-- Generator: Adobe Illustrator 21.0.0, SVG Export Plug-In . SVG Version: 6.00 Build 0)  -->
<svg version="1.1" id="Layer_1" xmlns="http://www.w3.org/2000/svg" xmlns:xlink="http://www.w3.org/1999/xlink" x="0px" y="0px"
	 viewBox="0 0 48.8 47.8" style="enable-background:new 0 0 48.8 47.8;" xml:space="preserve">
<style type="text/css">
	.st0{fill:#EA3A32;}
</style>
<g id="Production_58_">
	<g>
		<g>
			<g>
				<path class="st0" d="M33,0.2c-0.9,0-1.7-0.1-2.5,0c-0.9,0.1-1.7,0.1-2.5,0.2c-0.9,0.1-1.7,0.2-2.5,0.4c-0.9,0.2-1.7,0.4-2.5,0.6
					c-0.9,0.3-1.6,0.7-2.3,1c-0.9,0.4-1.5,1-2,1.4c-0.7,0.7-1.2,1.3-1.2,2.1c0,1.5,0,1.5,0,2.9c0,0.7,0.3,1.5,1.2,2.1
					c0.6,0.4,1.4,0.6,2.3,1c0.7,0.3,1.4,0.7,2.3,1c0.7,0.2,1.6,0.4,2.4,0.6c0.8,0.2,1.6,0.2,2.5,0.3c0.8,0.1,1.6,0.2,2.5,0.2
					c0.8,0,1.6,0.2,2.5,0.2c0.8,0,1.7-0.2,2.5-0.3c0.9-0.1,1.7,0,2.5-0.1c0.9-0.1,1.7-0.1,2.5-0.2c0.9-0.2,1.7-0.4,2.4-0.7
					c0.9-0.3,1.6-0.7,2.3-1c0.9-0.4,1.7-0.7,2.2-1.1c0.8-0.7,1.2-1.4,1.2-2c0-1.5,0-1.5,0-2.9c0-0.8-0.3-1.5-1.1-2.2
					c-0.5-0.5-1.2-1.1-2-1.5c-0.7-0.3-1.6-0.4-2.4-0.7c-0.8-0.2-1.6-0.4-2.4-0.6c-0.8-0.2-1.6-0.4-2.5-0.6C37.3,0.2,36.4,0,35.6,0
					C34.7-0.1,33.9,0.2,33,0.2z"/>
			</g>
			<g>
				<path class="st0" d="M29.3,16.4c0.5,0.5,1,1,1.5,1.6c0.5,0.5,1,1.1,1.4,1.7c0.4,0.6,0.9,1.1,1.2,1.8c0.9,0,1.7,0.1,2.5,0
					c0.9-0.1,1.7-0.2,2.5-0.3c0.9-0.1,1.6-0.4,2.4-0.6c0.9-0.2,1.7-0.4,2.4-0.7c0.8-0.3,1.6-0.6,2.3-0.9c0.8-0.4,1.6-0.9,2.1-1.4
					c0.7-0.7,1-1.5,1-2.2c0-1.6,0.4-1.6,0.1-3.1c-0.5,0.5-1.2,0.9-1.9,1.4c-0.6,0.4-1.3,0.8-2.1,1.1c-0.7,0.3-1.4,0.5-2.2,0.8
					c-0.7,0.2-1.5,0.4-2.3,0.6c-0.8,0.1-1.5,0.3-2.3,0.4c-0.8,0.1-1.6,0.1-2.4,0.2c-0.8,0-1.6,0.1-2.4,0.1c-0.6,0-1.2-0.1-1.9-0.2
					C30.5,16.5,29.9,16.5,29.3,16.4z"/>
			</g>
			<g>
				<path class="st0" d="M35.9,31.1c0,0.8,0,1.7-0.1,2.5c-0.1,0.8-0.3,1.6-0.5,2.4c0.9-0.1,1.7-0.1,2.6-0.2c0.9-0.1,1.7-0.3,2.5-0.5
					c0.9-0.2,1.7-0.3,2.5-0.6c0.9-0.3,1.7-0.7,2.4-1.1c0.8-0.5,1.5-1,2.1-1.6c0.7-0.7,1.1-1.4,1.2-2.2c0,0,0,0,0,0c0-1,0.1-1,0.1-2
					c0-1,0.2-1-0.1-2c-0.5,0.6-1,1.1-1.7,1.6c-0.6,0.5-1.2,0.9-2,1.3c-0.7,0.3-1.3,0.7-2.1,1c-0.7,0.3-1.5,0.5-2.2,0.7
					c-0.7,0.2-1.5,0.4-2.3,0.5C37.5,30.9,36.7,31,35.9,31.1z"/>
			</g>
			<g>
				<path class="st0" d="M34.6,23.8c0.3,0.8,0.6,1.5,0.8,2.3c0.2,0.8,0.3,1.7,0.4,2.5c0.9-0.1,1.8-0.2,2.6-0.4
					c0.9-0.2,1.7-0.4,2.5-0.6c0.9-0.2,1.7-0.5,2.5-0.8c0.9-0.3,1.6-0.8,2.3-1.2c0.8-0.5,1.5-1,2-1.6c0.6-0.7,0.9-1.5,0.9-2.4
					c0-1.4,0.3-1.4-0.1-2.8c-0.5,0.6-1.1,1.2-1.8,1.7c-0.7,0.4-1.4,0.8-2.3,1.1c-0.7,0.3-1.5,0.7-2.4,0.9c-0.8,0.2-1.6,0.4-2.5,0.5
					c-0.8,0.2-1.6,0.3-2.5,0.4C36.3,23.7,35.4,23.8,34.6,23.8z"/>
			</g>
			<g>
				<path class="st0" d="M16.7,14.3c-0.8,0-1.6,0.1-2.4,0.2c-0.8,0.1-1.6,0.2-2.4,0.4c-0.8,0.2-1.6,0.4-2.3,0.8
					c-0.7,0.3-1.5,0.7-2.1,1.1c-0.7,0.4-1.3,0.9-1.9,1.4C5,18.7,4.5,19.3,4,19.9c-0.5,0.6-1,1.2-1.5,1.9c-0.4,0.7-0.7,1.4-1,2.2
					c-0.3,0.7-0.6,1.5-0.9,2.2c-0.2,0.8-0.4,1.5-0.5,2.3C0,29.3,0,30.1,0,30.9c0,0.8,0.1,1.6,0.2,2.4c0.1,0.8,0,1.6,0.3,2.4
					c0.2,0.8,0.7,1.5,1,2.2c0.3,0.7,0.6,1.5,1,2.2c0.4,0.7,1.1,1.2,1.6,1.8c0.5,0.6,1.1,1.2,1.7,1.7c0.6,0.5,1.2,1.1,1.9,1.5
					c0.7,0.4,1.4,0.7,2.1,1.1c0.7,0.3,1.5,0.5,2.3,0.7c0.8,0.2,1.5,0.7,2.3,0.8c0.8,0.1,1.6,0.1,2.4,0.1c0.8,0,1.6,0,2.4-0.1
					c0.8-0.1,1.6-0.3,2.4-0.5c0.8-0.2,1.5-0.6,2.2-0.9c0.7-0.3,1.4-0.8,2.1-1.2c0.7-0.4,1.3-1,1.9-1.5c0.6-0.5,1.4-0.9,1.9-1.5
					c0.5-0.6,1-1.3,1.4-2c0.4-0.7,0.8-1.4,1.2-2.1c0.3-0.7,0.6-1.5,0.8-2.3c0.2-0.8,0.2-1.6,0.4-2.4c0.1-0.8,0.4-1.6,0.4-2.4
					c0-0.8-0.3-1.6-0.5-2.4c-0.1-0.8-0.3-1.6-0.5-2.3c-0.2-0.8-0.5-1.5-0.8-2.2c-0.3-0.7-0.6-1.5-1-2.2c-0.4-0.7-0.9-1.3-1.5-1.9
					c-0.5-0.6-1.1-1.2-1.7-1.7c-0.6-0.5-1.2-1.1-1.9-1.5c-0.7-0.4-1.5-0.7-2.2-1c-0.7-0.3-1.5-0.6-2.2-0.8c-0.8-0.2-1.5-0.5-2.3-0.6
					C18.3,14.2,17.5,14.3,16.7,14.3z M16.7,44.4c-0.8,0-1.6,0-2.3-0.2c-0.8-0.1-1.5-0.5-2.2-0.7c-0.7-0.3-1.4-0.7-2.1-1.1
					c-0.7-0.4-1.3-0.9-1.9-1.4c-0.6-0.5-1.1-1.1-1.6-1.6c-0.5-0.6-1-1.2-1.4-1.8c-0.4-0.7-0.7-1.4-0.9-2.1C4,34.8,3.6,34,3.5,33.3
					c-0.1-0.8-0.2-1.5-0.2-2.3c0-0.8,0.1-1.6,0.2-2.3c0.1-0.8,0.3-1.5,0.6-2.3c0.3-0.7,0.6-1.5,1-2.1c0.4-0.7,1-1.2,1.5-1.8
					c0.5-0.6,0.9-1.3,1.5-1.8c0.6-0.5,1.3-0.8,2-1.2c0.7-0.4,1.3-0.9,2-1.2c0.7-0.3,1.5-0.4,2.3-0.6c0.8-0.1,1.5-0.1,2.3-0.1
					c0.8,0,1.6,0,2.3,0.1c0.8,0.1,1.6,0.2,2.3,0.5c0.7,0.3,1.3,0.9,2,1.3c0.7,0.4,1.4,0.7,2,1.2c0.6,0.5,1.1,1.1,1.6,1.7
					c0.5,0.6,0.9,1.2,1.3,1.9c0.4,0.7,0.8,1.3,1.1,2.1c0.3,0.7,0.5,1.5,0.7,2.2c0.1,0.8,0.3,1.5,0.3,2.3c0,0.8-0.4,1.5-0.5,2.3
					c-0.1,0.8-0.3,1.5-0.5,2.3c-0.3,0.7-0.6,1.4-1,2.1c-0.4,0.7-0.8,1.3-1.3,1.9c-0.5,0.6-1,1.3-1.5,1.8c-0.6,0.5-1.4,0.7-2,1.1
					c-0.7,0.4-1.3,1-2,1.2c-0.7,0.3-1.5,0.5-2.3,0.6C18.3,44.4,17.5,44.4,16.7,44.4z"/>
			</g>
			<g>
				<path class="st0" d="M12,25.8c-0.5,1.3-0.7,2.3,0.6,2.7c1.6,0.5,1.5-0.8,3-1.6c0,0,0,0,0,0.1c0,1.1,0,1.1,0,2.2
					c0,1.1,0,1.1,0,2.2c0,1.1,0.1,1.1,0.1,2.2c0,1.1-0.1,1.1-0.1,2.2c0,1.1-0.9,1.7,0,2.2c1.5,0.9,2.1,1,3.6,0c1-0.6,0-1.2,0-2.4
					c0-1.2,0-1.2,0-2.3c0-1.2-0.1-1.2-0.1-2.3c0-1.2,0-1.2,0-2.3c0-1.2,0.1-1.2,0.1-2.3c0-1.2,1-1.7,0-2.4c-1.2-0.9-1.6-0.2-3.1,0.1
					c-1.1,0.2-1,0.6-2.1,0.9C12.9,25,12.5,24.7,12,25.8z"/>
			</g>
		</g>
	</g>
</g>
</svg>
