<?xml version="1.0" encoding="utf-8"?>
<!-- Generator: Adobe Illustrator 21.0.0, SVG Export Plug-In . SVG Version: 6.00 Build 0)  -->
<svg version="1.1" id="Layer_1" xmlns="http://www.w3.org/2000/svg" xmlns:xlink="http://www.w3.org/1999/xlink" x="0px" y="0px"
	 viewBox="0 0 59.5 55.1" style="enable-background:new 0 0 59.5 55.1;" xml:space="preserve">
<style type="text/css">
	.st0{fill:#EA3A32;}
</style>
<g id="Production_74_">
	<g>
		<g>
			<g>
				<path class="st0" d="M43.2,46.3c-0.6-0.6-0.9-0.2-1.6-0.7c-0.7-0.5-0.7-0.5-1.4-1c-0.7-0.5-0.5-0.7-1.2-1.2
					c-0.7-0.5-0.7-0.5-1.4-1c-0.7-0.5-0.8-0.4-1.5-0.9c-0.7-0.5-0.8-0.3-1.5-0.8c-0.7-0.5-0.4-0.9-1.1-1.4c-0.7-0.5-1.1-0.1-1.5-0.8
					c-0.4-0.7,0.1-0.8,0.1-1.6c0-0.8,0-0.8,0-1.6c0-0.8-0.2-0.8-0.2-1.6c0-0.8-0.1-0.8-0.1-1.6c0-0.8,0.6-1,0.1-1.5
					c-0.6-0.6-0.7-0.2-1.5-0.2c-0.8,0-0.8,0.2-1.6,0.2c-0.8,0-0.9-0.5-1.5,0c-0.6,0.6,0,0.7,0,1.5c0,0.8-0.3,0.8-0.3,1.6
					c0,0.8,0.3,0.8,0.3,1.6c0,0.8,0.1,0.8,0.1,1.6c0,0.8,0.3,1-0.1,1.7c-0.4,0.8-0.7,0.6-1.4,1.1c-0.7,0.5-0.7,0.4-1.4,0.9
					c-0.7,0.5-0.7,0.4-1.4,0.9c-0.7,0.5-0.6,0.6-1.3,1.1c-0.7,0.5-0.8,0.3-1.5,0.8c-0.7,0.5-0.5,0.7-1.2,1.2
					c-0.7,0.5-0.9,0.2-1.6,0.7c-0.7,0.5-0.5,0.7-1.1,1.3c0.3,0.1,0.7,0.2,1.4,0.5c0.5,0.2,1,0.6,1.5,0.9c0.5,0.3,1.1,0.5,1.5,0.9
					c0.8-0.3,0.8-0.5,1.5-1c0.7-0.5,0.8-0.4,1.5-0.9c0.7-0.5,0.5-0.9,1.2-1.4c0.7-0.5,0.9-0.3,1.6-0.8c0.7-0.5,0.6-0.7,1.3-1.2
					c0.7-0.5,0.6-1.1,1.5-1.1c0.9,0,0.8,0.6,1.5,1.1c0.7,0.5,0.7,0.5,1.4,1c0.7,0.5,0.7,0.6,1.4,1.1c0.7,0.5,0.6,0.7,1.3,1.2
					c0.7,0.5,0.9,0.3,1.6,0.9c0.7,0.5,0.7,0.6,1.5,0.9c0.5-0.3,0.8-0.6,1.3-0.9c0.5-0.3,1.1-0.6,1.6-0.8
					C42,46.6,42.9,46.4,43.2,46.3z"/>
			</g>
			<g>
				<path class="st0" d="M43.9,28.1c0-0.7,0-1.5-0.1-2.1c-0.1-0.7-0.5-1.2-0.7-1.7c-0.3-0.6-0.7-1-1.2-1.4c-0.4-0.4-0.9-0.7-1.5-1
					c-0.5-0.3-1.1-0.5-1.6-0.8c-0.5-0.3-1.1-0.5-1.6-0.7c-0.6-0.3-0.9-0.9-1.4-1.2c-0.6-0.3-1.1-0.5-1.5-0.9
					c-0.4-0.4-0.5-0.8-0.5-1.5c0-0.6,0-1.2,0.4-1.8c0.3-0.5,0.7-1,1.1-1.6c0.3-0.5,0.7-1,0.9-1.7c0.2-0.5,0.5-1.1,0.6-1.8
					c0.1-0.6-0.1-1.2-0.1-2c0-0.6-0.1-1.2-0.2-1.8c-0.1-0.6-0.3-1.2-0.5-1.7c-0.2-0.6-0.5-1.2-0.8-1.6c-0.4-0.5-0.8-1-1.2-1.4
					c-0.5-0.4-1.2-0.4-1.8-0.6c-0.6-0.2-1.1-0.8-1.7-0.9c-0.6-0.1-1.2,0.3-1.8,0.3c-0.6,0.1-1.2,0.1-1.8,0.3c-0.6,0.2-1.1,0.6-1.6,1
					C25,2,24.7,2.5,24.3,3c-0.4,0.5-0.6,1-0.8,1.6c-0.2,0.5-0.9,1-1,1.6c-0.1,0.6,0.1,1.2,0.1,1.9c0,0.7-0.2,1.4-0.1,1.9
					c0.1,0.7,0.4,1.3,0.6,1.9c0.2,0.7,0.5,1.3,0.8,1.8c0.4,0.6,0.9,1,1.2,1.5c0.4,0.6,0.9,1.1,1,1.7c0.1,0.7-0.4,1.2-0.9,1.7
					c-0.4,0.4-0.9,0.7-1.5,1c-0.5,0.3-1,0.7-1.5,1c-0.5,0.2-1.2,0.3-1.7,0.6c-0.6,0.3-1.1,0.6-1.6,0.9c-0.6,0.3-1.2,0.6-1.6,0.9
					c-0.5,0.4-0.7,1-0.9,1.6c-0.2,0.5-0.4,1-0.5,1.7c-0.1,0.5-0.3,1.2-0.3,1.9c0.8,0.3,0.9-0.1,1.8-0.1c0.9,0,0.9,0.2,1.8,0.2
					c0.9,0,0.9-0.4,1.8-0.4c0.9,0,0.9,0.3,1.8,0.3c0.9,0,0.9-0.4,1.8-0.4c0.9,0,0.9,0.5,1.8,0.5c0.9,0,0.9-0.1,1.8-0.1
					c0.9,0,0.9-0.1,1.8-0.1c0.9,0,0.9-0.2,1.8-0.2c0.9,0,0.9,0.3,1.8,0.3c0.9,0,0.9-0.1,1.8-0.1c0.9,0,0.9-0.1,1.8-0.1
					c0.9,0,0.9,0.3,1.8,0.3c0.9,0,0.9-0.5,1.8-0.5c0.9,0,0.9,0.3,1.7,0.4C42.9,28.3,43.1,28.4,43.9,28.1z"/>
			</g>
			<g>
				<path class="st0" d="M21.4,54.8c0-0.7,0-1.2-0.1-1.6c-0.1-0.7-0.5-1.1-0.8-1.5c-0.3-0.4-0.8-0.6-1.4-1c-0.4-0.3-0.9-0.5-1.5-0.8
					c-0.6-0.3-1.2-0.5-1.8-0.8c-0.7-0.3-1.1-0.8-1.5-1.2c-0.5-0.4-0.7-0.9-0.5-1.6c0.1-0.5,0.2-1.1,0.6-1.8c0.3-0.5,0.5-1,0.7-1.5
					c0.2-0.6,0.4-1.1,0.5-1.6c0.1-0.6,0.3-1.2,0.3-1.7c0-0.6,0.1-1.2-0.1-1.8c-0.2-0.6-0.5-1.1-0.8-1.6c-0.3-0.5-0.7-1-1.1-1.4
					c-0.5-0.4-1-0.6-1.6-0.8c-0.5-0.2-1.2-0.1-1.8-0.1c-0.6,0-1.2,0-1.8,0.2c-0.6,0.2-1.2,0.5-1.6,0.8c-0.5,0.4-0.9,0.9-1.2,1.4
					c-0.3,0.5-0.4,1.1-0.6,1.7c-0.1,0.5-0.3,1.1-0.3,1.8c0,0.6,0.1,1.1,0.2,1.6c0.1,0.6,0.4,1,0.6,1.5c0.2,0.5,0.3,1.1,0.5,1.5
					c0.3,0.5,0.8,0.9,1,1.2c0.3,0.6,0.4,1.2,0.2,1.6c-0.2,0.5-0.8,0.6-1.3,0.9c-0.4,0.3-0.8,0.8-1.3,1c-0.5,0.2-1.2,0.1-1.6,0.3
					c-0.6,0.3-1.1,0.6-1.5,0.9c-0.6,0.3-0.7,0.9-1.1,1.3c-0.3,0.4-0.5,0.8-0.7,1.5C0.3,53.7,0,54.3,0,55c0.8,0.3,0.9-0.2,1.8-0.2
					c0.9,0,0.9,0.2,1.8,0.2c0.9,0,0.9-0.2,1.8-0.2c0.9,0,0.9,0.3,1.8,0.3C8,55,8,54.7,8.9,54.7c0.9,0,0.9,0,1.8,0
					c0.9,0,0.9,0.1,1.8,0.1c0.9,0,0.9,0.1,1.8,0.1c0.9,0,0.9,0,1.8,0c0.9,0,0.9-0.2,1.8-0.2c0.9,0,0.9,0,1.8,0.1
					C20.5,54.9,20.5,55.1,21.4,54.8z"/>
			</g>
			<g>
				<path class="st0" d="M59.5,55c0-0.7,0-1.4-0.1-1.9c-0.1-0.7-0.4-1.2-0.7-1.6c-0.3-0.4-1-0.6-1.5-0.9c-0.4-0.3-1-0.4-1.5-0.7
					c-0.6-0.3-1.1-0.7-1.7-1c-0.7-0.3-1.3-0.5-1.7-0.9c-0.5-0.4-0.6-1-0.4-1.8c0.1-0.5,0.3-1,0.8-1.7c0,0,0,0,0,0
					c0.2-0.4,0.4-0.9,0.7-1.5c0.2-0.4,0.5-0.9,0.6-1.5c0.1-0.5,0-1,0-1.7c0-0.6,0.2-1.2,0-1.8c-0.2-0.6-0.3-1.2-0.6-1.7
					c-0.3-0.5-0.8-1-1.2-1.4c-0.5-0.4-1.1-0.4-1.7-0.6c-0.5-0.2-1.1-0.6-1.7-0.6c-0.6,0-1.2,0.3-1.7,0.5c-0.6,0.2-1.2,0.3-1.7,0.7
					c-0.5,0.4-0.8,0.9-1.1,1.4c-0.3,0.5-0.5,1.1-0.6,1.7c-0.1,0.5-0.2,1.1-0.2,1.8c0,0.6,0.1,1.1,0.2,1.6c0.1,0.6,0.1,1.1,0.3,1.6
					c0.2,0.5,0.4,1.1,0.6,1.5c0.3,0.5,0.7,0.9,0.9,1.3c0.3,0.6,0.4,1,0.3,1.4c-0.2,0.5-0.4,1-0.9,1.3c-0.4,0.3-1,0.5-1.5,0.7
					c-0.5,0.2-1.1,0.3-1.5,0.5c-0.6,0.3-1,0.7-1.4,1c-0.6,0.3-1,0.6-1.3,1c-0.3,0.4-0.5,0.9-0.7,1.5c-0.1,0.5-0.3,1.2-0.3,1.8
					c0.8,0.3,0.9-0.3,1.8-0.3c0.9,0,0.9,0.1,1.8,0.1c0.9,0,0.9,0,1.8,0c0.9,0,0.9,0.3,1.8,0.3c0.9,0,0.9-0.1,1.8-0.1
					c0.9,0,0.9,0.2,1.8,0.2c0.9,0,0.9-0.2,1.8-0.2c0.9,0,0.9,0,1.8,0c0.9,0,0.9,0.1,1.8,0.1c0.9,0,0.9-0.2,1.8-0.2
					c0.9,0,0.9,0,1.8,0.1C58.6,55,58.7,55.3,59.5,55z"/>
			</g>
		</g>
	</g>
</g>
</svg>
