<?xml version="1.0" encoding="utf-8"?>
<!-- Generator: Adobe Illustrator 21.0.0, SVG Export Plug-In . SVG Version: 6.00 Build 0)  -->
<svg version="1.1" id="Layer_1" xmlns="http://www.w3.org/2000/svg" xmlns:xlink="http://www.w3.org/1999/xlink" x="0px" y="0px"
	 viewBox="0 0 147.8 125.2" style="enable-background:new 0 0 147.8 125.2;" xml:space="preserve">
<style type="text/css">
	.st0{fill:#29303A;}
	.st1{fill:#EA3A32;}
	.st2{fill:none;}
	.st3{fill:#283B44;}
	.st4{fill:#541313;}
</style>
<g>
	<g>
		<path class="st0" d="M4,87c-1.3,0-2.2-0.4-2.9-1.1s-1-1.8-1.1-3l2-0.5c0.1,2,0.8,3,2,3c1,0,1.5-0.5,1.5-1.5c0-0.3,0-0.6-0.1-0.8
			S5.2,82.6,5,82.4S4.7,82,4.6,81.9S4.2,81.6,4,81.4l-2.5-2C1,79,0.7,78.6,0.4,78S0,76.9,0,76.1c0-1,0.3-1.9,1-2.5s1.5-0.9,2.5-0.9
			c1.1,0,2,0.3,2.7,0.8s1.1,1.3,1.2,2.4c0,0.1,0,0.3,0.1,0.5l-2,0.5c0-0.1,0-0.2,0-0.4c-0.1-0.6-0.3-1.1-0.6-1.5s-0.8-0.6-1.4-0.6
			c-0.5,0-0.8,0.1-1.1,0.4S2,75.5,2,75.9c0,0.8,0.3,1.4,1,2l2.5,2c1.3,1.1,2,2.4,2,3.9c0,1-0.3,1.8-0.9,2.4S5.1,87,4,87z"/>
		<path class="st0" d="M12.9,87c-0.7,0-1.3-0.1-1.8-0.3c-0.5-0.2-0.9-0.5-1.2-0.9s-0.5-0.9-0.6-1.4S9,83.1,9,82.4v-5.1
			c0-0.7,0.1-1.4,0.2-1.9s0.4-1,0.6-1.4s0.7-0.7,1.2-0.9s1.1-0.3,1.8-0.3c1.4,0,2.3,0.4,3,1.2s0.9,1.9,0.9,3.4v5.1
			c0,0.7-0.1,1.4-0.2,1.9s-0.4,1-0.7,1.5s-0.7,0.7-1.2,0.9S13.6,87,12.9,87z M11.4,84.8c0.3,0.4,0.8,0.6,1.5,0.6s1.2-0.2,1.5-0.6
			s0.4-1,0.4-1.9v-6.1c0-0.8-0.1-1.4-0.4-1.8s-0.8-0.6-1.5-0.6s-1.2,0.2-1.5,0.6S11,76,11,76.8v6.1C11,83.7,11.2,84.4,11.4,84.8z"/>
		<path class="st0" d="M22.4,87c-0.6,0-1.1-0.1-1.6-0.2c-0.4-0.2-0.8-0.4-1.1-0.7S19.2,85.4,19,85s-0.3-0.9-0.4-1.4
			s-0.1-1.1-0.1-1.7v-4c0-0.6,0-1.2,0.1-1.7s0.2-1,0.4-1.4s0.4-0.8,0.7-1.1s0.7-0.5,1.1-0.7s1-0.2,1.6-0.2c0.7,0,1.2,0.1,1.7,0.3
			s0.9,0.5,1.1,0.9s0.5,0.8,0.6,1.3s0.2,1.1,0.3,1.7c0,0.1,0,0.3,0,0.5h-2V77c0-0.3,0-0.5,0-0.7s0-0.4-0.1-0.6s-0.1-0.4-0.2-0.5
			s-0.2-0.3-0.3-0.4s-0.3-0.2-0.5-0.3s-0.4-0.1-0.7-0.1c-0.3,0-0.6,0.1-0.8,0.2S21.1,74.8,21,75s-0.2,0.4-0.3,0.7s-0.1,0.5-0.1,0.8
			s0,0.6,0,1v5c0,0.3,0,0.6,0,0.9s0.1,0.5,0.2,0.8s0.2,0.5,0.3,0.7s0.3,0.3,0.5,0.4s0.5,0.2,0.8,0.2s0.6-0.1,0.8-0.2
			s0.4-0.3,0.5-0.4s0.2-0.4,0.3-0.7s0.1-0.5,0.1-0.8s0-0.6,0-0.9v-0.5h2v0.5c0,0.7-0.1,1.4-0.2,1.9s-0.3,1-0.6,1.4s-0.7,0.7-1.2,1
			S23.1,87,22.4,87z"/>
		<path class="st0" d="M27.8,86.9v-14h2v14H27.8z"/>
		<path class="st0" d="M31.4,86.9l3-14h2l3,14h-2l-0.8-3.5h-2.5l-0.8,3.5H31.4z M34.4,81.9h2l-1-6L34.4,81.9z"/>
		<path class="st0" d="M40.8,86.9v-14h2v12.5h3.5v1.5H40.8z"/>
		<path class="st0" d="M0.4,105.9v-14h2v6h3.5v-6h2v14h-2v-6.5H2.4v6.5H0.4z"/>
		<path class="st0" d="M10.2,105.9v-14h5.5v1.5h-3.5v4.5h2.5v1.5h-2.5v5h3.5v1.5H10.2z"/>
		<path class="st0" d="M16.3,105.9l3-14h2l3,14h-2l-0.8-3.5h-2.5l-0.8,3.5H16.3z M19.3,100.9h2l-1-6L19.3,100.9z"/>
		<path class="st0" d="M25.7,105.9v-14h2v12.5h3.5v1.5H25.7z"/>
		<path class="st0" d="M33.7,105.9V93.7h-2.5v-1.8h7v1.8h-2.5v12.2H33.7z"/>
		<path class="st0" d="M39.5,105.9v-14h2v6H45v-6h2v14h-2v-6.5h-3.5v6.5H39.5z"/>
		<path class="st0" d="M0.4,124.9v-14h3.5c2.3,0,3.5,1.3,3.5,4c0,1.1-0.3,2-0.9,2.6s-1.5,0.9-2.6,0.9H2.4v6.5H0.4z M2.4,116.9h0.5
			c0.5,0,0.8,0,1.1-0.1s0.5-0.1,0.8-0.3s0.4-0.3,0.5-0.6s0.1-0.6,0.1-1c0-0.5,0-0.9-0.1-1.2s-0.2-0.6-0.4-0.8s-0.4-0.3-0.8-0.4
			s-0.7-0.1-1.2-0.1H2.4V116.9z"/>
		<path class="st0" d="M8.8,124.9v-14h2.5c1.5,0,2.6,0.3,3.4,0.9s1.1,1.5,1.1,2.9c0,0.8-0.1,1.5-0.4,2.1s-0.7,0.9-1.3,1.2l2.2,7h-2
			l-2-6.5h-1.5v6.5H8.8z M10.8,116.9h0.5c0.8,0,1.5-0.2,1.9-0.5s0.6-0.9,0.6-1.7s-0.2-1.4-0.6-1.7s-1-0.5-1.9-0.5h-0.5V116.9z"/>
		<path class="st0" d="M21.4,125c-0.7,0-1.3-0.1-1.8-0.3c-0.5-0.2-0.9-0.5-1.2-0.9s-0.5-0.9-0.6-1.4s-0.2-1.2-0.2-1.9v-5.1
			c0-0.7,0.1-1.4,0.2-1.9s0.4-1,0.6-1.4s0.7-0.7,1.2-0.9s1.1-0.3,1.8-0.3c1.4,0,2.3,0.4,3,1.2s0.9,1.9,0.9,3.4v5.1
			c0,0.7-0.1,1.4-0.2,1.9s-0.4,1-0.7,1.5s-0.7,0.7-1.2,0.9S22.1,125,21.4,125z M19.9,122.8c0.3,0.4,0.8,0.6,1.5,0.6s1.2-0.2,1.5-0.6
			s0.4-1,0.4-1.9v-6.1c0-0.8-0.1-1.4-0.4-1.8s-0.8-0.6-1.5-0.6s-1.2,0.2-1.5,0.6s-0.4,1-0.4,1.8v6.1
			C19.5,121.7,19.6,122.4,19.9,122.8z"/>
		<path class="st0" d="M28.8,124.9v-12.2h-2.5v-1.8h7v1.8h-2.5v12.2H28.8z"/>
		<path class="st0" d="M34.6,124.9v-14h5.5v1.5h-3.5v4.5h2.5v1.5h-2.5v5h3.5v1.5H34.6z"/>
		<path class="st0" d="M45.2,125c-0.6,0-1.1-0.1-1.6-0.2c-0.4-0.2-0.8-0.4-1.1-0.7s-0.5-0.7-0.7-1.1s-0.3-0.9-0.4-1.4
			s-0.1-1.1-0.1-1.7v-4c0-0.6,0-1.2,0.1-1.7s0.2-1,0.4-1.4s0.4-0.8,0.7-1.1s0.7-0.5,1.1-0.7s1-0.2,1.6-0.2c0.7,0,1.2,0.1,1.7,0.3
			s0.9,0.5,1.1,0.9s0.5,0.8,0.6,1.3s0.2,1.1,0.3,1.7c0,0.1,0,0.3,0,0.5h-2V115c0-0.3,0-0.5,0-0.7s0-0.4-0.1-0.6s-0.1-0.4-0.2-0.5
			s-0.2-0.3-0.3-0.4s-0.3-0.2-0.5-0.3s-0.4-0.1-0.7-0.1c-0.3,0-0.6,0.1-0.8,0.2s-0.4,0.2-0.5,0.4s-0.2,0.4-0.3,0.7s-0.1,0.5-0.1,0.8
			s0,0.6,0,1v5c0,0.3,0,0.6,0,0.9s0.1,0.5,0.2,0.8s0.2,0.5,0.3,0.7s0.3,0.3,0.5,0.4s0.5,0.2,0.8,0.2s0.6-0.1,0.8-0.2
			s0.4-0.3,0.5-0.4s0.2-0.4,0.3-0.7s0.1-0.5,0.1-0.8s0-0.6,0-0.9v-0.5h2v0.5c0,0.7-0.1,1.4-0.2,1.9s-0.3,1-0.6,1.4s-0.7,0.7-1.2,1
			S45.9,125,45.2,125z"/>
		<path class="st0" d="M52,124.9v-12.2h-2.5v-1.8h7v1.8H54v12.2H52z"/>
		<path class="st0" d="M57.9,124.9v-14h2v14H57.9z"/>
		<path class="st0" d="M66,125c-0.7,0-1.3-0.1-1.8-0.3c-0.5-0.2-0.9-0.5-1.2-0.9s-0.5-0.9-0.6-1.4s-0.2-1.2-0.2-1.9v-5.1
			c0-0.7,0.1-1.4,0.2-1.9s0.4-1,0.6-1.4s0.7-0.7,1.2-0.9s1.1-0.3,1.8-0.3c1.4,0,2.3,0.4,3,1.2s0.9,1.9,0.9,3.4v5.1
			c0,0.7-0.1,1.4-0.2,1.9s-0.4,1-0.7,1.5s-0.7,0.7-1.2,0.9S66.7,125,66,125z M64.5,122.8c0.3,0.4,0.8,0.6,1.5,0.6s1.2-0.2,1.5-0.6
			s0.4-1,0.4-1.9v-6.1c0-0.8-0.1-1.4-0.4-1.8s-0.8-0.6-1.5-0.6s-1.2,0.2-1.5,0.6s-0.4,1-0.4,1.8v6.1
			C64.1,121.7,64.3,122.4,64.5,122.8z"/>
		<path class="st0" d="M71.9,124.9v-14h1.5l3.5,8.7v-8.7h2v14h-1.4l-3.6-9.3v9.3H71.9z"/>
		<path class="st1" d="M84.6,124.9v-14.1h2l3.1,7.4v-7.4h2.4v14.1h-2l-3.1-7.8v7.8H84.6z"/>
		<path class="st1" d="M94.1,124.9v-14.1h5.9v2h-3v3.8H99v2h-2.1v4.3h3v2H94.1z"/>
		<path class="st1" d="M102.6,124.9V113h-2.1v-2.1h6.9v2.1h-2v11.9H102.6z"/>
		<path class="st1" d="M110,124.9l-1.9-14.1h2.4l0.9,9.3l1.2-9.3h2.1l1.2,9.3l0.9-9.3h2.4l-2,14.1h-2.4l-1.2-9.2l-1.2,9.2H110z"/>
		<path class="st1" d="M120.2,120.3v-4.7c0-3.3,1.4-5,4.1-5c2.7,0,4.1,1.7,4.1,5v4.7c0,0.6,0,1.1-0.1,1.6s-0.2,0.9-0.4,1.4
			s-0.5,0.8-0.8,1.1s-0.7,0.5-1.2,0.7s-1,0.3-1.6,0.3c-0.6,0-1.1-0.1-1.6-0.3s-0.9-0.4-1.2-0.7s-0.6-0.6-0.8-1.1s-0.3-0.9-0.4-1.3
			S120.2,120.8,120.2,120.3z M125.6,120.9v-6.1c0-1.4-0.4-2.1-1.3-2.1c-0.3,0-0.5,0.1-0.6,0.2s-0.3,0.3-0.4,0.5s-0.1,0.4-0.2,0.7
			s-0.1,0.5-0.1,0.7v6.1c0,1.4,0.4,2.1,1.3,2.1C125.2,123,125.6,122.3,125.6,120.9z"/>
		<path class="st1" d="M130.3,124.9v-14.1h3.1c0.7,0,1.3,0.1,1.9,0.2s1,0.3,1.4,0.6s0.7,0.7,0.9,1.1s0.3,1.1,0.3,1.7
			c0,0.3,0,0.6,0,0.8s-0.1,0.5-0.1,0.8s-0.2,0.6-0.3,0.8s-0.3,0.4-0.6,0.7s-0.5,0.4-0.9,0.5c0.8,2.7,1.6,4.9,2.2,6.8h-2.9l-1.6-6.5
			h-0.5v6.5H130.3z M133.1,116.7h0.8c0.2,0,0.4-0.1,0.6-0.2s0.3-0.3,0.3-0.6s0.1-0.4,0.1-0.6s0-0.4,0-0.5s0-0.3,0-0.5
			s-0.1-0.4-0.1-0.6s-0.2-0.4-0.3-0.5s-0.3-0.2-0.5-0.2h-0.9V116.7z"/>
		<path class="st1" d="M139.3,124.9v-14.1h2.8v5.3l2.2-5.3h3.2l-2.9,5.8l3.1,8.3h-3l-2.1-6.4l-0.5,1.3v5.1H139.3z"/>
	</g>
</g>
<g>
	<path class="st2" d="M55.3,27.3c-0.2,0-0.6,0.3-1,0.9L38.6,49.8c-0.2,0.4-0.3,0.6-0.3,0.7c0,0.3,0.3,0.4,1,0.4h15.5
		c0.2,0,0.4-0.1,0.6-0.2c0.1-0.1,0.2-0.3,0.2-0.4V28.6C55.5,27.7,55.5,27.3,55.3,27.3z"/>
	<path class="st2" d="M34.5,13.2c-1.9-1.5-4.5-2.3-7.8-2.3H17c-0.6,0-1,0.1-1.3,0.3c-0.3,0.2-0.4,0.6-0.4,1.2v15
		c0,0.6,0.1,1,0.3,1.3s0.5,0.4,1,0.4h10.8c3.1,0,5.5-0.8,7.4-2.5c1.8-1.6,2.7-3.9,2.7-6.7C37.4,17,36.4,14.7,34.5,13.2z"/>
	<path class="st3" d="M49.8,9c-2.2-3-5.3-5.3-9.1-6.8C36.9,0.7,32.5,0,27.7,0H1.4C0.5,0,0,0.6,0,1.7v61.5c0,0.6,0.1,1,0.4,1.3
		S1.2,65,1.9,65h11.2c1.5,0,2.3-0.7,2.3-2V41.1c0-0.6,0.3-1,1-1h13.1c2,0,3.9-0.2,5.7-0.4l17.7-23.4C52.3,13.5,51.3,11.1,49.8,9z
		 M34.7,26.7c-1.8,1.6-4.3,2.5-7.4,2.5H16.6c-0.5,0-0.8-0.1-1-0.4s-0.3-0.7-0.3-1.3v-15c0-0.6,0.1-1,0.4-1.2
		c0.3-0.2,0.7-0.3,1.3-0.3h9.7c3.3,0,5.9,0.8,7.8,2.3c1.9,1.5,2.9,3.8,2.9,6.7C37.4,22.8,36.5,25.1,34.7,26.7z"/>
	<path class="st1" d="M63.3,30h7.6V13.3c0-1-0.5-1.6-1.4-1.6H58.6c-0.9,0-1.6,0.1-2.1,0.3c-0.4,0.2-0.9,0.7-1.5,1.4l-2.2,2.9
		c0.2,1.2,0.3,2.5,0.3,3.9c0,6.3-2.2,11.2-6.5,14.7c-3.1,2.5-7,4.1-11.5,4.8l-6.5,8.6c-0.9,1.2-1.5,2-1.8,2.6
		c-0.3,0.6-0.5,1.1-0.5,1.7v7.3c0,1,0.6,1.6,1.8,1.6h26.3c0.7,0,1.1,0.3,1.1,0.8V75c0,1.2,0.6,1.8,1.8,1.8h4.6v-45
		C61.9,30.6,62.4,30,63.3,30z M55.5,50.4c0,0.2-0.1,0.3-0.2,0.4C55.2,50.9,55,51,54.8,51H39.3c-0.6,0-1-0.1-1-0.4
		c0-0.1,0.1-0.3,0.3-0.7l15.7-21.6c0.4-0.6,0.7-0.9,1-0.9c0.2,0,0.3,0.4,0.3,1.2V50.4z"/>
	<path class="st1" d="M78.6,55.5h2.1v-3.2c0-0.9-0.6-1.3-1.7-1.3h-1.8v3C77.2,55,77.7,55.5,78.6,55.5z"/>
	<path class="st4" d="M53.2,20.2c0-1.4-0.1-2.7-0.3-3.9L35.1,39.7c4.6-0.7,8.4-2.3,11.5-4.8C51,31.4,53.2,26.5,53.2,20.2z"/>
	<path class="st3" d="M114,30h-12.5c-0.9,0-1.3,0.5-1.3,1.6v22.5c0,0.9-0.5,1.4-1.4,1.4H80.7v4.3c0,1-0.6,1.6-1.8,1.6h-7
		c-0.6,0-1,0.4-1,1.1v12.3c0,0.7-0.2,1.2-0.5,1.5c-0.4,0.3-0.9,0.5-1.8,0.5h-6.7v16.4c0,0.6,0.1,1.1,0.4,1.4
		c0.3,0.3,0.8,0.4,1.5,0.4h11c0.8,0,1.4-0.2,1.8-0.5c0.4-0.3,0.6-0.8,0.6-1.5V68.3c0-0.3,0.1-0.6,0.3-0.8c0.2-0.2,0.5-0.3,0.8-0.3
		H99c0.4,0,0.7,0.1,0.9,0.3c0.2,0.2,0.3,0.5,0.3,0.8v24.6c0,0.8,0.2,1.3,0.5,1.6c0.3,0.3,0.9,0.4,1.8,0.4h11.1
		c1.3,0,1.9-0.6,1.9-1.8V31.7C115.5,30.6,115,30,114,30z"/>
	<path class="st3" d="M71.2,50.7c0.2,0.2,0.4,0.3,0.6,0.3h5.4V31.6c0-1-0.5-1.6-1.4-1.6h-4.9v20C70.9,50.3,71,50.5,71.2,50.7z"/>
	<path class="st4" d="M70.4,76.2c0.3-0.3,0.5-0.8,0.5-1.5V62.4c0-0.7,0.3-1.1,1-1.1h7c1.2,0,1.8-0.5,1.8-1.6v-4.3h-2.1
		c-0.9,0-1.3-0.5-1.3-1.5v-3h-5.4c-0.2,0-0.4-0.1-0.6-0.3c-0.2-0.2-0.3-0.4-0.3-0.7V30h-7.6c-0.9,0-1.4,0.6-1.4,1.7v45h6.7
		C69.5,76.7,70.1,76.5,70.4,76.2z"/>
</g>
</svg>
