<?xml version="1.0" encoding="utf-8"?>
<!-- Generator: Adobe Illustrator 21.0.0, SVG Export Plug-In . SVG Version: 6.00 Build 0)  -->
<svg version="1.1" id="Layer_1" xmlns="http://www.w3.org/2000/svg" xmlns:xlink="http://www.w3.org/1999/xlink" x="0px" y="0px"
	 viewBox="0 0 192.2 95" style="enable-background:new 0 0 192.2 95;" xml:space="preserve">
<style type="text/css">
	.st0{fill:#29303A;}
	.st1{fill:#EA3A32;}
	.st2{fill:none;}
	.st3{fill:#283B44;}
	.st4{fill:#8C2222;}
</style>
<g>
	<g>
		<path class="st0" d="M128.7,42.9c-1.1,0-1.9-0.3-2.4-0.9c-0.6-0.6-0.9-1.5-0.9-2.6L127,39c0.1,1.7,0.7,2.5,1.7,2.5
			c0.8,0,1.3-0.4,1.3-1.3c0-0.3,0-0.5-0.1-0.7c-0.1-0.2-0.2-0.4-0.3-0.6c-0.1-0.2-0.3-0.3-0.4-0.4c-0.1-0.1-0.3-0.2-0.5-0.4
			l-2.1-1.7c-0.4-0.3-0.7-0.7-0.9-1.2c-0.2-0.5-0.3-1-0.3-1.6c0-0.9,0.3-1.6,0.8-2.1c0.5-0.5,1.3-0.8,2.2-0.8c1,0,1.7,0.2,2.3,0.7
			c0.6,0.5,0.9,1.1,1.1,2c0,0.1,0,0.2,0,0.4l-1.7,0.4c0-0.1,0-0.2,0-0.3c-0.1-0.5-0.2-1-0.5-1.3c-0.3-0.3-0.6-0.5-1.2-0.5
			c-0.4,0-0.7,0.1-0.9,0.3c-0.2,0.2-0.3,0.5-0.3,1c0,0.7,0.3,1.2,0.8,1.7l2.1,1.7c1.1,0.9,1.7,2,1.7,3.3c0,0.9-0.3,1.6-0.8,2
			C130.3,42.7,129.6,42.9,128.7,42.9z"/>
		<path class="st0" d="M136.2,42.9c-0.6,0-1.1-0.1-1.5-0.3s-0.8-0.4-1-0.8c-0.3-0.3-0.4-0.8-0.6-1.2c-0.1-0.5-0.2-1-0.2-1.6v-4.3
			c0-0.6,0.1-1.2,0.2-1.6c0.1-0.5,0.3-0.9,0.6-1.2c0.3-0.3,0.6-0.6,1-0.8s0.9-0.3,1.5-0.3c1.2,0,2,0.3,2.5,1s0.8,1.6,0.8,2.9V39
			c0,0.6-0.1,1.2-0.2,1.6c-0.1,0.5-0.3,0.9-0.6,1.2c-0.3,0.4-0.6,0.6-1,0.8C137.3,42.8,136.8,42.9,136.2,42.9z M135,41
			c0.2,0.4,0.6,0.5,1.2,0.5s1-0.2,1.2-0.5c0.2-0.4,0.3-0.9,0.3-1.6v-5.2c0-0.7-0.1-1.2-0.3-1.5c-0.2-0.3-0.6-0.5-1.2-0.5
			s-1,0.2-1.2,0.5c-0.2,0.3-0.3,0.9-0.3,1.5v5.2C134.6,40.1,134.7,40.6,135,41z"/>
		<path class="st0" d="M144.3,42.9c-0.5,0-0.9-0.1-1.3-0.2c-0.4-0.1-0.7-0.3-0.9-0.6c-0.2-0.2-0.4-0.6-0.6-0.9
			c-0.2-0.4-0.3-0.8-0.3-1.2c-0.1-0.4-0.1-0.9-0.1-1.4v-3.4c0-0.5,0-1,0.1-1.4c0.1-0.4,0.2-0.8,0.3-1.2c0.2-0.4,0.3-0.7,0.6-0.9
			c0.2-0.2,0.6-0.4,0.9-0.6c0.4-0.1,0.8-0.2,1.3-0.2c0.6,0,1,0.1,1.4,0.2c0.4,0.2,0.7,0.4,1,0.7c0.2,0.3,0.4,0.7,0.5,1.1
			s0.2,0.9,0.2,1.5c0,0.1,0,0.2,0,0.4h-1.7v-0.4c0-0.2,0-0.4,0-0.6c0-0.2,0-0.3-0.1-0.5c0-0.2-0.1-0.3-0.2-0.4
			c-0.1-0.1-0.2-0.2-0.3-0.3c-0.1-0.1-0.2-0.2-0.4-0.2c-0.2,0-0.3-0.1-0.6-0.1c-0.3,0-0.5,0-0.7,0.1s-0.3,0.2-0.5,0.3
			c-0.1,0.1-0.2,0.3-0.3,0.6c-0.1,0.2-0.1,0.5-0.1,0.7c0,0.2,0,0.5,0,0.8V39c0,0.3,0,0.5,0,0.8c0,0.2,0.1,0.5,0.1,0.7
			c0.1,0.2,0.2,0.4,0.3,0.6c0.1,0.2,0.3,0.3,0.5,0.4c0.2,0.1,0.4,0.1,0.7,0.1c0.3,0,0.5,0,0.6-0.1c0.2-0.1,0.3-0.2,0.4-0.4
			c0.1-0.2,0.2-0.3,0.2-0.6c0.1-0.2,0.1-0.5,0.1-0.7c0-0.2,0-0.5,0-0.8v-0.4h1.7V39c0,0.6-0.1,1.2-0.2,1.6c-0.1,0.5-0.3,0.9-0.5,1.2
			c-0.2,0.4-0.6,0.6-1,0.8C145.4,42.8,144.9,42.9,144.3,42.9z"/>
		<path class="st0" d="M148.9,42.8V30.9h1.7v11.9H148.9z"/>
		<path class="st0" d="M151.9,42.8l2.5-11.9h1.7l2.5,11.9H157l-0.6-3h-2.1l-0.6,3H151.9z M154.5,38.6h1.7l-0.8-5.1L154.5,38.6z"/>
		<path class="st0" d="M159.9,42.8V30.9h1.7v10.6h3v1.3H159.9z"/>
		<path class="st0" d="M125.6,60.1V48.2h1.7v5.1h3v-5.1h1.7v11.9h-1.7v-5.5h-3v5.5H125.6z"/>
		<path class="st0" d="M133.9,60.1V48.2h4.7v1.3h-3v3.8h2.1v1.3h-2.1v4.2h3v1.3H133.9z"/>
		<path class="st0" d="M139.1,60.1l2.5-11.9h1.7l2.5,11.9h-1.7l-0.6-3h-2.1l-0.6,3H139.1z M141.7,55.9h1.7l-0.8-5.1L141.7,55.9z"/>
		<path class="st0" d="M147.1,60.1V48.2h1.7v10.6h3v1.3H147.1z"/>
		<path class="st0" d="M153.9,60.1V49.7h-2.1v-1.5h5.9v1.5h-2.1v10.4H153.9z"/>
		<path class="st0" d="M158.8,60.1V48.2h1.7v5.1h3v-5.1h1.7v11.9h-1.7v-5.5h-3v5.5H158.8z"/>
		<path class="st0" d="M125.6,77.4V65.5h3c2,0,3,1.1,3,3.4c0,1-0.3,1.7-0.8,2.2c-0.5,0.5-1.2,0.8-2.2,0.8h-1.3v5.5H125.6z
			 M127.3,70.6h0.4c0.4,0,0.7,0,0.9-0.1c0.2,0,0.5-0.1,0.6-0.2c0.2-0.1,0.3-0.3,0.4-0.5c0.1-0.2,0.1-0.5,0.1-0.9c0-0.4,0-0.8-0.1-1
			c-0.1-0.3-0.2-0.5-0.3-0.6c-0.2-0.2-0.4-0.3-0.6-0.3c-0.3-0.1-0.6-0.1-1-0.1h-0.4V70.6z"/>
		<path class="st0" d="M132.7,77.4V65.5h2.1c1.3,0,2.2,0.2,2.9,0.7c0.6,0.5,1,1.3,1,2.4c0,0.7-0.1,1.3-0.4,1.8
			c-0.3,0.5-0.6,0.8-1.1,1l1.9,5.9h-1.7l-1.7-5.5h-1.3v5.5H132.7z M134.4,70.6h0.4c0.7,0,1.2-0.1,1.6-0.4c0.4-0.3,0.5-0.8,0.5-1.5
			s-0.2-1.2-0.5-1.5c-0.4-0.3-0.9-0.4-1.6-0.4h-0.4V70.6z"/>
		<path class="st0" d="M143.4,77.5c-0.6,0-1.1-0.1-1.5-0.3c-0.4-0.2-0.8-0.4-1-0.8c-0.3-0.3-0.4-0.8-0.6-1.2c-0.1-0.5-0.2-1-0.2-1.6
			v-4.3c0-0.6,0.1-1.2,0.2-1.6c0.1-0.5,0.3-0.9,0.6-1.2c0.3-0.3,0.6-0.6,1-0.8c0.4-0.2,0.9-0.3,1.5-0.3c1.2,0,2,0.3,2.5,1
			s0.8,1.6,0.8,2.9v4.3c0,0.6-0.1,1.2-0.2,1.6c-0.1,0.5-0.3,0.9-0.6,1.2c-0.3,0.4-0.6,0.6-1,0.8C144.5,77.4,144,77.5,143.4,77.5z
			 M142.2,75.6c0.2,0.4,0.6,0.5,1.2,0.5s1-0.2,1.2-0.5s0.3-0.9,0.3-1.6v-5.2c0-0.7-0.1-1.2-0.3-1.5c-0.2-0.3-0.6-0.5-1.2-0.5
			s-1,0.2-1.2,0.5c-0.2,0.3-0.3,0.9-0.3,1.5V74C141.8,74.7,141.9,75.2,142.2,75.6z"/>
		<path class="st0" d="M149.7,77.4V67h-2.1v-1.5h5.9V67h-2.1v10.4H149.7z"/>
		<path class="st0" d="M154.6,77.4V65.5h4.7v1.3h-3v3.8h2.1v1.3h-2.1v4.2h3v1.3H154.6z"/>
		<path class="st0" d="M163.6,77.5c-0.5,0-0.9-0.1-1.3-0.2c-0.4-0.1-0.7-0.3-0.9-0.6c-0.2-0.2-0.4-0.6-0.6-0.9
			c-0.2-0.4-0.3-0.8-0.3-1.2c-0.1-0.4-0.1-0.9-0.1-1.4v-3.4c0-0.5,0-1,0.1-1.4c0.1-0.4,0.2-0.8,0.3-1.2c0.2-0.4,0.3-0.7,0.6-0.9
			c0.2-0.2,0.6-0.4,0.9-0.6c0.4-0.1,0.8-0.2,1.3-0.2c0.6,0,1,0.1,1.4,0.2c0.4,0.2,0.7,0.4,1,0.7s0.4,0.7,0.5,1.1
			c0.1,0.4,0.2,0.9,0.2,1.5c0,0.1,0,0.2,0,0.4h-1.7v-0.4c0-0.2,0-0.4,0-0.6c0-0.2,0-0.3-0.1-0.5c0-0.2-0.1-0.3-0.2-0.4
			c-0.1-0.1-0.2-0.2-0.3-0.3c-0.1-0.1-0.2-0.2-0.4-0.2c-0.2,0-0.3-0.1-0.6-0.1c-0.3,0-0.5,0-0.7,0.1c-0.2,0.1-0.3,0.2-0.5,0.3
			c-0.1,0.1-0.2,0.3-0.3,0.6c-0.1,0.2-0.1,0.5-0.1,0.7c0,0.2,0,0.5,0,0.8v4.2c0,0.3,0,0.5,0,0.8c0,0.2,0.1,0.5,0.1,0.7
			c0.1,0.2,0.2,0.4,0.3,0.6c0.1,0.2,0.3,0.3,0.5,0.4c0.2,0.1,0.4,0.1,0.7,0.1c0.3,0,0.5,0,0.6-0.1c0.2-0.1,0.3-0.2,0.4-0.4
			c0.1-0.1,0.2-0.3,0.2-0.6c0.1-0.2,0.1-0.5,0.1-0.7c0-0.2,0-0.5,0-0.8v-0.4h1.7v0.4c0,0.6-0.1,1.2-0.2,1.6
			c-0.1,0.5-0.3,0.9-0.5,1.2c-0.2,0.4-0.6,0.6-1,0.8C164.7,77.4,164.2,77.5,163.6,77.5z"/>
		<path class="st0" d="M169.4,77.4V67h-2.1v-1.5h5.9V67h-2.1v10.4H169.4z"/>
		<path class="st0" d="M174.4,77.4V65.5h1.7v11.9H174.4z"/>
		<path class="st0" d="M181.3,77.5c-0.6,0-1.1-0.1-1.5-0.3c-0.4-0.2-0.8-0.4-1-0.8c-0.3-0.3-0.4-0.8-0.6-1.2c-0.1-0.5-0.2-1-0.2-1.6
			v-4.3c0-0.6,0.1-1.2,0.2-1.6c0.1-0.5,0.3-0.9,0.6-1.2c0.3-0.3,0.6-0.6,1-0.8c0.4-0.2,0.9-0.3,1.5-0.3c1.2,0,2,0.3,2.5,1
			s0.8,1.6,0.8,2.9v4.3c0,0.6-0.1,1.2-0.2,1.6c-0.1,0.5-0.3,0.9-0.6,1.2c-0.3,0.4-0.6,0.6-1,0.8C182.4,77.4,181.9,77.5,181.3,77.5z
			 M180,75.6c0.2,0.4,0.6,0.5,1.2,0.5s1-0.2,1.2-0.5s0.3-0.9,0.3-1.6v-5.2c0-0.7-0.1-1.2-0.3-1.5c-0.2-0.3-0.6-0.5-1.2-0.5
			s-1,0.2-1.2,0.5c-0.2,0.3-0.3,0.9-0.3,1.5V74C179.7,74.7,179.8,75.2,180,75.6z"/>
		<path class="st0" d="M186.3,77.4V65.5h1.3l3,7.3v-7.3h1.7v11.9H191l-3-7.9v7.9H186.3z"/>
		<path class="st1" d="M125.4,94.7V82.7h1.7l2.6,6.2v-6.2h2v11.9h-1.7l-2.6-6.6v6.6H125.4z"/>
		<path class="st1" d="M133.5,94.7V82.7h5v1.7h-2.6v3.2h1.8v1.7h-1.8V93h2.6v1.7H133.5z"/>
		<path class="st1" d="M140.7,94.7V84.5H139v-1.8h5.9v1.8h-1.7v10.1H140.7z"/>
		<path class="st1" d="M147,94.7l-1.7-11.9h2.1l0.7,7.9l1-7.9h1.8l1,7.9l0.8-7.9h2.1l-1.7,11.9H151l-1-7.8l-1,7.8H147z"/>
		<path class="st1" d="M155.7,90.7v-4c0-2.8,1.2-4.2,3.5-4.2c2.3,0,3.5,1.4,3.5,4.2v4c0,0.5,0,0.9-0.1,1.3c-0.1,0.4-0.2,0.8-0.4,1.2
			c-0.2,0.4-0.4,0.7-0.6,0.9c-0.3,0.3-0.6,0.5-1,0.6c-0.4,0.1-0.9,0.2-1.4,0.2c-0.5,0-1-0.1-1.4-0.2c-0.4-0.1-0.7-0.3-1-0.6
			c-0.3-0.2-0.5-0.5-0.6-0.9c-0.2-0.4-0.3-0.7-0.4-1.1C155.7,91.7,155.7,91.2,155.7,90.7z M160.3,91.3v-5.2c0-1.2-0.4-1.8-1.1-1.8
			c-0.2,0-0.4,0.1-0.6,0.2c-0.1,0.1-0.3,0.3-0.3,0.4c-0.1,0.2-0.1,0.4-0.1,0.6c0,0.2,0,0.4,0,0.6v5.2c0,1.2,0.4,1.8,1.1,1.8
			C159.9,93,160.3,92.5,160.3,91.3z"/>
		<path class="st1" d="M164.2,94.7V82.7h2.6c0.6,0,1.1,0.1,1.6,0.2c0.5,0.1,0.9,0.3,1.2,0.5c0.3,0.2,0.6,0.6,0.8,1
			c0.2,0.4,0.3,0.9,0.3,1.5c0,0.2,0,0.5,0,0.7c0,0.2-0.1,0.4-0.1,0.7s-0.2,0.5-0.3,0.7c-0.1,0.2-0.3,0.4-0.5,0.6
			c-0.2,0.2-0.5,0.3-0.7,0.5c0.7,2.3,1.3,4.2,1.9,5.8h-2.5l-1.4-5.5h-0.4v5.5H164.2z M166.6,87.7h0.7c0.2,0,0.3-0.1,0.5-0.2
			c0.1-0.1,0.2-0.3,0.3-0.5c0.1-0.2,0.1-0.4,0.1-0.5c0-0.2,0-0.3,0-0.5c0-0.1,0-0.3,0-0.4c0-0.2-0.1-0.3-0.1-0.5
			c-0.1-0.2-0.1-0.3-0.3-0.5c-0.1-0.1-0.3-0.2-0.4-0.2h-0.8V87.7z"/>
		<path class="st1" d="M171.9,94.7V82.7h2.4v4.5l1.9-4.5h2.7l-2.4,4.9l2.6,7h-2.5l-1.8-5.5l-0.4,1.1v4.3H171.9z"/>
	</g>
</g>
<g>
	<path class="st2" d="M55.2,27.3c-0.2,0-0.6,0.3-1,0.9L38.6,49.8c-0.2,0.4-0.3,0.6-0.3,0.7c0,0.3,0.3,0.4,1,0.4h15.5
		c0.2,0,0.4-0.1,0.6-0.2c0.1-0.1,0.2-0.3,0.2-0.4V28.6C55.5,27.7,55.4,27.3,55.2,27.3z"/>
	<path class="st2" d="M34.5,13.2c-1.9-1.5-4.5-2.3-7.8-2.3H17c-0.6,0-1,0.1-1.3,0.3c-0.3,0.2-0.4,0.6-0.4,1.2v15
		c0,0.6,0.1,1,0.3,1.3s0.5,0.4,1,0.4h10.8c3.1,0,5.5-0.8,7.4-2.5c1.8-1.6,2.7-3.9,2.7-6.7C37.4,17,36.4,14.7,34.5,13.2z"/>
	<path class="st3" d="M49.8,9c-2.2-3-5.3-5.3-9.1-6.8C36.8,0.7,32.5,0,27.7,0H1.4C0.5,0,0,0.6,0,1.7v61.5c0,0.6,0.1,1,0.4,1.3
		S1.1,65,1.8,65H13c1.5,0,2.3-0.7,2.3-2V41.1c0-0.6,0.3-1,1-1h13.1c2,0,3.9-0.2,5.7-0.4l17.7-23.4C52.3,13.5,51.3,11.1,49.8,9z
		 M34.7,26.7c-1.8,1.6-4.3,2.5-7.4,2.5H16.5c-0.5,0-0.8-0.1-1-0.4s-0.3-0.7-0.3-1.3v-15c0-0.6,0.1-1,0.4-1.2
		c0.3-0.2,0.7-0.3,1.3-0.3h9.7c3.3,0,5.9,0.8,7.8,2.3c1.9,1.5,2.9,3.8,2.9,6.7C37.4,22.8,36.5,25.1,34.7,26.7z"/>
	<path class="st1" d="M63.3,30h7.6V13.3c0-1-0.5-1.6-1.4-1.6H58.6c-0.9,0-1.6,0.1-2.1,0.3c-0.4,0.2-0.9,0.7-1.5,1.4l-2.2,2.9
		c0.2,1.2,0.3,2.5,0.3,3.9c0,6.3-2.2,11.2-6.5,14.7c-3.1,2.5-7,4.1-11.5,4.8l-6.5,8.6c-0.9,1.2-1.5,2-1.8,2.6
		c-0.3,0.6-0.5,1.1-0.5,1.7v7.3c0,1,0.6,1.6,1.8,1.6h26.3c0.7,0,1.1,0.3,1.1,0.8V75c0,1.2,0.6,1.8,1.8,1.8h4.6v-45
		C61.9,30.6,62.4,30,63.3,30z M55.5,50.4c0,0.2-0.1,0.3-0.2,0.4C55.1,50.9,55,51,54.7,51H39.2c-0.6,0-1-0.1-1-0.4
		c0-0.1,0.1-0.3,0.3-0.7l15.7-21.6c0.4-0.6,0.7-0.9,1-0.9c0.2,0,0.3,0.4,0.3,1.2V50.4z"/>
	<path class="st4" d="M78.5,55.5h2.1v-3.2c0-0.9-0.6-1.3-1.7-1.3h-1.8v3C77.2,55,77.7,55.5,78.5,55.5z"/>
	<path class="st4" d="M53.1,20.2c0-1.4-0.1-2.7-0.3-3.9L35.1,39.7c4.6-0.7,8.4-2.3,11.5-4.8C51,31.4,53.1,26.5,53.1,20.2z"/>
	<path class="st3" d="M114,30h-12.5c-0.9,0-1.3,0.5-1.3,1.6v22.5c0,0.9-0.5,1.4-1.4,1.4H80.6v4.3c0,1-0.6,1.6-1.8,1.6h-7
		c-0.6,0-1,0.4-1,1.1v12.3c0,0.7-0.2,1.2-0.5,1.5c-0.4,0.3-0.9,0.5-1.8,0.5h-6.7v16.4c0,0.6,0.1,1.1,0.4,1.4
		c0.3,0.3,0.8,0.4,1.5,0.4h11c0.8,0,1.4-0.2,1.8-0.5c0.4-0.3,0.6-0.8,0.6-1.5V68.3c0-0.3,0.1-0.6,0.3-0.8c0.2-0.2,0.5-0.3,0.8-0.3
		h20.6c0.4,0,0.7,0.1,0.9,0.3c0.2,0.2,0.3,0.5,0.3,0.8v24.6c0,0.8,0.2,1.3,0.5,1.6c0.3,0.3,0.9,0.4,1.8,0.4h11.1
		c1.3,0,1.9-0.6,1.9-1.8V31.7C115.5,30.6,115,30,114,30z"/>
	<path class="st3" d="M71.2,50.7c0.2,0.2,0.4,0.3,0.6,0.3h5.4V31.6c0-1-0.5-1.6-1.4-1.6h-4.9v20C70.9,50.3,71,50.5,71.2,50.7z"/>
	<path class="st4" d="M70.4,76.2c0.3-0.3,0.5-0.8,0.5-1.5V62.4c0-0.7,0.3-1.1,1-1.1h7c1.2,0,1.8-0.5,1.8-1.6v-4.3h-2.1
		c-0.9,0-1.3-0.5-1.3-1.5v-3h-5.4c-0.2,0-0.4-0.1-0.6-0.3c-0.2-0.2-0.3-0.4-0.3-0.7V30h-7.6c-0.9,0-1.4,0.6-1.4,1.7v45h6.7
		C69.5,76.7,70,76.5,70.4,76.2z"/>
</g>
</svg>
