<?xml version="1.0" encoding="utf-8"?>
<!-- Generator: Adobe Illustrator 21.0.0, SVG Export Plug-In . SVG Version: 6.00 Build 0)  -->
<svg version="1.1" id="Layer_1" xmlns="http://www.w3.org/2000/svg" xmlns:xlink="http://www.w3.org/1999/xlink" x="0px" y="0px"
	 viewBox="0 0 151.2 124.3" style="enable-background:new 0 0 151.2 124.3;" xml:space="preserve">
<style type="text/css">
	.st0{fill:none;}
	.st1{fill:#2D424C;}
	.st2{fill:#EA3A32;}
	.st3{fill:#8C2222;}
	.st4{fill:#283B44;}
</style>
<g>
	<path class="st0" d="M72.3,35.8c-0.3,0-0.7,0.4-1.3,1.1L50.6,65.2c-0.3,0.5-0.5,0.8-0.5,0.9c0,0.4,0.4,0.6,1.3,0.6h20.3
		c0.3,0,0.6-0.1,0.7-0.2c0.2-0.2,0.3-0.3,0.3-0.6V37.4C72.7,36.3,72.6,35.8,72.3,35.8z"/>
	<path class="st0" d="M45.2,17.3c-2.5-2-5.9-3-10.2-3H22.2c-0.8,0-1.3,0.2-1.7,0.5c-0.3,0.3-0.5,0.8-0.5,1.6V36
		c0,0.8,0.1,1.3,0.3,1.7s0.6,0.5,1.3,0.5h14.1c4,0,7.3-1.1,9.6-3.2c2.4-2.1,3.6-5.1,3.6-8.8C48.9,22.2,47.7,19.3,45.2,17.3z"/>
	<path class="st1" d="M65.2,11.8c-2.9-4-6.9-6.9-11.9-8.9C48.2,1,42.6,0,36.2,0H1.8C0.6,0,0,0.7,0,2.2v80.6c0,0.8,0.2,1.3,0.5,1.7
		s1,0.6,1.9,0.6h14.7c2,0,3-0.9,3-2.6V53.8c0-0.8,0.4-1.3,1.3-1.3h17.2c2.6,0,5.1-0.2,7.4-0.6l23.2-30.6
		C68.5,17.7,67.2,14.5,65.2,11.8z M45.4,35c-2.4,2.1-5.6,3.2-9.6,3.2H21.7c-0.6,0-1-0.2-1.3-0.5s-0.3-0.9-0.3-1.7V16.4
		c0-0.8,0.2-1.3,0.5-1.6c0.3-0.3,0.9-0.5,1.7-0.5H35c4.3,0,7.7,1,10.2,3c2.5,2,3.8,4.9,3.8,8.8C48.9,29.9,47.8,32.8,45.4,35z"/>
	<path class="st2" d="M82.9,39.3h10V17.4c0-1.4-0.6-2.1-1.8-2.1H76.7c-1.2,0-2.1,0.1-2.7,0.4c-0.6,0.3-1.2,0.9-2,1.8l-2.9,3.8
		c0.3,1.6,0.4,3.3,0.4,5.1c0,8.3-2.8,14.7-8.5,19.2c-4.1,3.3-9.1,5.3-15.1,6.3l-8.5,11.2c-1.1,1.5-1.9,2.7-2.3,3.4
		c-0.4,0.8-0.6,1.5-0.6,2.2v9.5c0,1.4,0.8,2.1,2.4,2.1h34.4c0.9,0,1.4,0.3,1.4,1v16.7c0,1.5,0.8,2.3,2.4,2.3H81v-59
		C81,40,81.7,39.3,82.9,39.3z M72.7,65.9c0,0.2-0.1,0.4-0.3,0.6c-0.2,0.2-0.4,0.2-0.7,0.2H51.4c-0.8,0-1.3-0.2-1.3-0.6
		c0-0.2,0.2-0.5,0.5-0.9l20.5-28.3c0.5-0.8,1-1.1,1.3-1.1c0.2,0,0.3,0.5,0.3,1.6V65.9z"/>
	<path class="st2" d="M102.8,72.6h2.8v-4.2c0-1.1-0.7-1.7-2.2-1.7h-2.3v4C101.1,72,101.7,72.6,102.8,72.6z"/>
	<path class="st3" d="M69.6,26.5c0-1.8-0.2-3.5-0.4-5.1L45.9,51.9c6-0.9,11-3,15.1-6.3C66.7,41.1,69.6,34.7,69.6,26.5z"/>
	<path class="st1" d="M149.2,39.3h-16.4c-1.1,0-1.7,0.7-1.7,2.1v29.5c0,1.2-0.6,1.8-1.8,1.8h-23.7v5.7c0,1.4-0.8,2.1-2.3,2.1h-9.2
		c-0.8,0-1.3,0.5-1.3,1.4v16c0,0.9-0.2,1.6-0.7,2c-0.5,0.4-1.2,0.6-2.3,0.6H81v21.5c0,0.8,0.2,1.5,0.6,1.8c0.4,0.4,1,0.6,1.9,0.6H98
		c1.1,0,1.9-0.2,2.3-0.6c0.5-0.4,0.7-1.1,0.7-2V89.5c0-0.4,0.1-0.7,0.4-1c0.3-0.3,0.6-0.5,1.1-0.5h26.9c0.5,0,0.9,0.1,1.2,0.4
		c0.3,0.3,0.4,0.6,0.4,1.1v32.2c0,1,0.2,1.7,0.7,2.1c0.5,0.4,1.2,0.6,2.3,0.6h14.6c1.7,0,2.5-0.8,2.5-2.4V41.5
		C151.2,40,150.5,39.3,149.2,39.3z"/>
	<path class="st4" d="M93.2,66.4c0.2,0.2,0.5,0.3,0.8,0.3h7.1V41.3c0-1.4-0.6-2.1-1.8-2.1h-6.4v26.2C92.9,65.9,93,66.2,93.2,66.4z"
		/>
	<path class="st3" d="M92.2,99.8c0.5-0.4,0.7-1.1,0.7-2v-16c0-0.9,0.4-1.4,1.3-1.4h9.2c1.5,0,2.3-0.7,2.3-2.1v-5.7h-2.8
		c-1.1,0-1.7-0.6-1.7-1.9v-4H94c-0.3,0-0.6-0.1-0.8-0.3c-0.2-0.2-0.3-0.5-0.3-0.9V39.3h-10c-1.2,0-1.8,0.7-1.8,2.2v59h8.8
		C90.9,100.4,91.7,100.2,92.2,99.8z"/>
</g>
</svg>
