<svg xmlns="http://www.w3.org/2000/svg" width="35" height="40" viewBox="0 0 35 40"><title>Untitled-1</title><path d="M29.45654,17.37176a5.32744,5.32744,0,0,0-4.78981-.2746L19.41087,6.19732a2.90579,2.90579,0,0,0,1.52572-1.73263,2.90691,2.90691,0,0,0-.1143-2.30643A2.90625,2.90625,0,0,0,19.08877.6326a2.90547,2.90547,0,0,0-2.30584.11476L3.15885,7.31683a2.90722,2.90722,0,0,0-1.526,1.73292,2.96807,2.96807,0,0,0,1.84782,3.83209,2.90771,2.90771,0,0,0,2.30608-.11505l5.25571,10.89955a5.32779,5.32779,0,0,0-2.76749,3.919,8.184,8.184,0,0,0,.60254,5.52139,1.53329,1.53329,0,0,0,2.01952.705l8.6004-4.14708L26.094,39.20955a.69735.69735,0,0,0,.95823.24622l.0217-.01047a.66166.66166,0,0,0,.34915-.391.87291.87291,0,0,0,.01273-.54421L23.56321,27.70425l9.13263-4.40371a1.53418,1.53418,0,0,0,.70613-2.01932A8.183,8.183,0,0,0,29.45654,17.37176ZM15.48275,20.68614a.75647.75647,0,1,1-1.36242.65695L9.52157,11.806a.75647.75647,0,1,1,1.36241-.657Z" style="fill:#fb3f25"/></svg>