<?xml version="1.0" encoding="utf-8"?>
<!-- Generator: Adobe Illustrator 21.0.0, SVG Export Plug-In . SVG Version: 6.00 Build 0)  -->
<svg version="1.1" id="Layer_1" xmlns="http://www.w3.org/2000/svg" xmlns:xlink="http://www.w3.org/1999/xlink" x="0px" y="0px"
	 viewBox="0 0 31.3 48.1" style="enable-background:new 0 0 31.3 48.1;" xml:space="preserve" width="15px" height="23">
<style type="text/css">
	.st0{fill:#EA3A32;}
</style>
<g id="Production_5_">
	<g>
		<path class="st0" d="M15.7,0C7,0,0,7,0,15.7C0,22.8,4.1,26.2,7.5,30c4.6,5.2,5.4,9.9,6,15.9c0.1,1.3,1.1,2.2,2.3,2.2
			c1.1,0,2.1-0.9,2.3-2.2c0.6-6,1.4-10.8,6-15.9c3.3-3.7,7.5-7.1,7.5-14.3C31.3,7,24.3,0,15.7,0z M15.7,22.5c-3.8,0-6.8-3-6.8-6.8
			c0-3.8,3-6.8,6.8-6.8c3.8,0,6.8,3,6.8,6.8C22.4,19.4,19.4,22.5,15.7,22.5z"/>
	</g>
</g>
</svg>
