<?xml version="1.0" encoding="utf-8"?>
<!-- Generator: Adobe Illustrator 21.0.0, SVG Export Plug-In . SVG Version: 6.00 Build 0)  -->
<svg version="1.1" id="Layer_1" xmlns="http://www.w3.org/2000/svg" xmlns:xlink="http://www.w3.org/1999/xlink" x="0px" y="0px"
	 viewBox="0 0 63.2 63.3" style="enable-background:new 0 0 63.2 63.3;" xml:space="preserve">
<style type="text/css">
	.st0{clip-path:url(#SVGID_3_);fill:url(#SVGID_4_);}
</style>
<g>
	<g>
		<g>
			<g>
				<defs>
					<path id="SVGID_1_" d="M38.7,51.7c4.2-0.1,8.1-0.7,11.6-1.8c0.9-0.3,1.7-0.6,2.5-1c-1,2.4-2.4,4.3-4.3,5.8
						c-3.7,2.7-8,4.5-12.7,5.3C37.1,57.9,38,55.1,38.7,51.7 M19.2,57.5c-0.1-0.1-0.2-0.1-0.3-0.2c-1.6-0.8-2.3-4.4-1.4-10
						c3.1,1.4,6.6,2.5,10.2,3.3c2.7,0.6,5.4,0.9,8.1,1.1c-1.3,5.7-3,8.6-4.1,8.6c-0.1,0-0.1,0-0.2,0C27.1,60.3,22.9,59.3,19.2,57.5
						 M4,39.5c-0.3-1-0.4-1.9-0.5-2.9c1,1.4,2.2,2.8,3.6,4.1c2.2,2,4.7,3.8,7.6,5.3c-0.6,3.3-0.7,6.2-0.4,8.6
						C9.4,50.8,5.8,45.5,4,39.5 M40.6,31.6c0-1.1,0-2.3,0-3.4c3.7-0.2,7-1.2,9.8-2.8c2.6,5.1,3.9,10.4,3.9,15.5
						c0,1.5-0.1,2.9-0.4,4.2c-1.3,0.8-2.8,1.5-4.6,2.1c-3,1-6.5,1.6-10.1,1.7C40.2,43.5,40.6,37.5,40.6,31.6 M28.2,47.7
						c-3.6-0.8-7.1-1.9-10.2-3.4c1-4.6,2.9-10.2,5.9-16.4c0.4-0.9,0.9-1.8,1.3-2.6c2.1,0.9,4.4,1.7,6.8,2.2c1.8,0.4,3.7,0.6,5.5,0.7
						c0,1.1,0,2.2,0,3.4c0,6.9-0.6,12.7-1.4,17.2C33.7,48.6,31,48.3,28.2,47.7 M9.2,38.5c-2.5-2.3-4.2-4.8-5.1-7.2
						c0.7-2.7,2-5.5,4-8.1c1.9-2.5,4.2-4.7,6.9-6.6c0.8,1.4,1.8,2.8,3.2,4c1.3,1.2,2.8,2.3,4.5,3.3c-0.5,0.9-0.9,1.8-1.4,2.7
						c-2.6,5.3-4.7,11.1-6,16.3C13,41.6,11,40.1,9.2,38.5 M38.6,11.1c3.3,2.5,6.4,5.7,9,9.5c0.5,0.7,0.9,1.4,1.4,2.2
						c-2.4,1.4-5.3,2.2-8.5,2.4C40.2,20.1,39.6,15.2,38.6,11.1 M32.8,24.6c-2.1-0.5-4.2-1.1-6-1.9c2.7-4.8,5.7-9,8.7-12.1
						c0.9,3.6,1.7,8.5,2,14.6C35.9,25.1,34.3,24.9,32.8,24.6 M20.2,18.5c-1.2-1.1-2.1-2.3-2.8-3.5c2.8-1.7,5.8-3,9.1-4
						c1.9-0.6,3.9-1,5.8-1.3c-2.8,3.2-5.6,7.2-8.2,11.7C22.7,20.5,21.3,19.5,20.2,18.5 M13.9,9.1c0,0.1-0.1,0.3-0.1,0.5
						c-0.3,1.4-0.3,2.8,0.1,4.2C10.7,16,8,18.6,5.8,21.5c-0.7,0.9-1.3,1.8-1.8,2.7C5.6,18.1,9.1,12.9,13.9,9.1 M16.6,10.2
						c0.3-1.5,1.2-2.9,2.7-4c3.4-1,7.4-0.8,11.6,0.8c-1.8,0.3-3.5,0.7-5.3,1.2c-3.2,1-6.3,2.3-9.1,3.9
						C16.5,11.4,16.5,10.8,16.6,10.2 M40.5,6.3c1-0.7,1.9-1.1,2.7-1.3c1.5,0.6,2.9,1.3,4.3,2.3C45.3,6.8,42.9,6.4,40.5,6.3
						 M35.5,3.2c1.2,0.1,2.5,0.3,3.8,0.6c-0.8,0.4-1.7,1-2.5,1.7C36.4,4.6,36,3.8,35.5,3.2 M32.4,4.3c-1.3-0.5-2.6-0.9-3.9-1.2
						c1-0.1,2.1-0.2,3.2-0.2c0.5,0,1.1,0.6,1.8,1.8C33,4.6,32.7,4.4,32.4,4.3 M0,31.6c0,3,0.4,5.9,1.2,8.7c0,0.2,0.1,0.4,0.1,0.6V41
						c4,12.9,16,22.3,30.2,22.3c6.6,0,12.7-2,17.7-5.4l0.1-0.1c0.3-0.2,0.6-0.4,0.9-0.6c5.8-4.3,10.1-10.5,11.9-17.8
						c0.1-0.3,0.2-0.7,0.3-1c0-0.1,0-0.2,0-0.2c0.4-2.1,0.7-4.2,0.7-6.4c0-4.3-0.8-8.4-2.5-12.3c-0.3-0.7-1.2-1.1-1.9-0.8
						c-0.7,0.3-1.1,1.2-0.8,1.9c1.5,3.5,2.3,7.3,2.3,11.2c0,2.4-0.3,4.7-0.8,6.9c-0.4,1.4-1.2,2.7-2.3,3.8c0-0.5,0-1,0-1.5
						c0-5.6-1.5-11.6-4.4-17.2c2.1-1.8,3.5-4.1,3.9-6.6c0.1-0.8-0.4-1.6-1.2-1.7c-0.8-0.1-1.6,0.4-1.7,1.2c-0.3,1.7-1.2,3.2-2.5,4.5
						c-0.4-0.7-0.9-1.4-1.3-2.1c-2.6-3.8-5.6-7.1-9-9.7c4.4,0.3,8.5,1.4,11.8,3.2c0.5,0.3,1.2,0.3,1.7-0.1c0.6-0.5,0.7-1.4,0.2-2.1
						C50,3.7,41.8,0,31.6,0C14.2,0,0,14.2,0,31.6"/>
				</defs>
				<radialGradient id="SVGID_2_" cx="31.55" cy="31.65" r="31.6" gradientUnits="userSpaceOnUse">
					<stop  offset="0" style="stop-color:#FFFFFF"/>
					<stop  offset="9.752581e-02" style="stop-color:#D9E9F8"/>
					<stop  offset="0.406" style="stop-color:#283B44"/>
					<stop  offset="0.544" style="stop-color:#283B44"/>
					<stop  offset="0.7649" style="stop-color:#283B44"/>
					<stop  offset="0.9243" style="stop-color:#283B44"/>
					<stop  offset="1" style="stop-color:#283B44"/>
				</radialGradient>
				<use xlink:href="#SVGID_1_"  style="overflow:visible;fill:url(#SVGID_2_);"/>
				<clipPath id="SVGID_3_">
					<use xlink:href="#SVGID_1_"  style="overflow:visible;"/>
				</clipPath>
				
					<radialGradient id="SVGID_4_" cx="-704.8127" cy="433.0345" r="1.8684" gradientTransform="matrix(27.9936 0 0 27.9937 19790.6699 -12110.4912)" gradientUnits="userSpaceOnUse">
					<stop  offset="0" style="stop-color:#FFFFFF"/>
					<stop  offset="9.752581e-02" style="stop-color:#D9E9F8"/>
					<stop  offset="0.406" style="stop-color:#283B44"/>
					<stop  offset="0.544" style="stop-color:#283B44"/>
					<stop  offset="0.7649" style="stop-color:#283B44"/>
					<stop  offset="0.9243" style="stop-color:#283B44"/>
					<stop  offset="1" style="stop-color:#283B44"/>
				</radialGradient>
				<rect y="0" class="st0" width="63.2" height="63.2"/>
			</g>
		</g>
	</g>
</g>
</svg>
