<?xml version="1.0" encoding="utf-8"?>
<!-- Generator: Adobe Illustrator 21.0.0, SVG Export Plug-In . SVG Version: 6.00 Build 0)  -->
<svg version="1.1" id="Layer_1" xmlns="http://www.w3.org/2000/svg" xmlns:xlink="http://www.w3.org/1999/xlink" x="0px" y="0px"
	 viewBox="0 0 175.7 168.1" style="enable-background:new 0 0 175.7 168.1;" xml:space="preserve">
<style type="text/css">
	.st0{fill:#283B44;}
</style>
<g>
	<path class="st0" d="M93.1,1.5c3.8,4.8-1,9.3-1,14.4l-0.3,33.9c-1.9,0.3-3.8,1-5.8,1.6v-0.7l-1.3-35.5c-0.6-5.1-2.6-12.2,3.2-15
		C89.6-0.1,91.8-0.1,93.1,1.5L93.1,1.5z"/>
	<path class="st0" d="M22.1,40.2c1-3.8,4.2-7.4,6.1-11.2c3.8-4.2,8-8,13.1-9.6l1.3-1C38.4,26.4,29.8,34.8,22.1,40.2L22.1,40.2z"/>
	<path class="st0" d="M147.5,27.7c3.2,3.5,5.4,7.7,7,11.8l-10.2-9c-3.5-3.5-7-7.4-9.3-11.5C139.8,20.7,143.6,23.9,147.5,27.7
		L147.5,27.7z"/>
	<path class="st0" d="M103.3,21.3c-0.3,0.6-1,1-1.6,1.3c-1.3,0-2.9-0.6-4.2-0.6c1.3-0.3,2.6-1.3,3.8-1.3
		C102.1,20.1,103,20.7,103.3,21.3L103.3,21.3z"/>
	<path class="st0" d="M112.9,34.1c2.6,4.8,1.9,11.5-1.3,16C105.8,58.7,95,58.4,86,61.3c-3.5,0.6-7.4,3.5-8.3,7.4
		c-0.3,3.2,1.9,5.4,4.2,7l1.3,0.6l0.3,6.7c-5.4-1-11.8-4.8-13.1-10.6c-0.3-3.2,0-6.4,1.3-9c6.4-12.1,21.4-8.6,31.3-15
		c1-1.3,2.2-2.6,2.9-3.8c-1.3-1-2.9-1.9-4.8-2.2c-1.9-1-4.2-1.3-6.4-1.9v-1.9c4.2,1,8,1.9,11.5,4.2c0.3-1,0.3-2.2,0-3.2
		c-0.3-4.5-4.8-7.7-9-8.6c-0.6-0.3-1.6-0.6-2.6-0.3V24C102.1,24.2,109.1,27.4,112.9,34.1L112.9,34.1z"/>
	<path class="st0" d="M163.4,56.2c-0.3,1-0.3,2.2-0.6,3.2c-5.1-8-15-13.1-19.2-21.7c4.5,2.2,10.2,5.1,13.4,10.2
		c1.6,2.2,2.9,4.5,4.2,6.7c0-3.2-1.3-6.1-1.9-9c-1.9-4.8-2.2-10.2-3.8-15C162.2,37.3,165,46.3,163.4,56.2L163.4,56.2z"/>
	<path class="st0" d="M120,32.2c0.3,0.3,0.6,0.6,1,1c-1.3,0-2.9-0.3-3.5-1.6C118.4,31.6,119.6,30.9,120,32.2L120,32.2z"/>
	<path class="st0" d="M15.4,52.7c1,0,1-1,1.6-1.6c1.3-3.2,3.8-5.8,6.7-8l10.2-7.4c-1.9,5.8-7.7,11.2-12.8,15
		c-2.6,2.6-5.1,5.4-7.4,8.3c-1.3-9.6-1.6-20.1,4.8-27.5C19.6,39.2,17,45.6,15.4,52.7L15.4,52.7z"/>
	<path class="st0" d="M170.2,65.8L166,80.2v0.3c-1.3-2.9-1.9-5.8-3.8-8.3l-6.7-9.6c-1.6-3.2-3.2-6.4-3.2-9.9l7.4,9
		c2.9,3.8,3.8,8.6,6.1,12.8c1-6.4,0-13.7,1-20.1c0.3-3.2,1.3-5.8,1-9C170.5,51.4,171.8,59.1,170.2,65.8L170.2,65.8z"/>
	<path class="st0" d="M10.6,66.7c0.3,2.9-0.6,6.1,0.6,8.6c0.3-1.3,0.3-2.6,1-3.8c1.9-6.7,6.1-12.8,11.5-18.5
		c-1,10.9-11.2,17.9-12.5,28.5C7.4,70.9,1,57.5,8.3,46.3C8.7,53.3,9.6,60,10.6,66.7L10.6,66.7z"/>
	<path class="st0" d="M115.8,57.8l-0.3,0.3c-0.6-0.3-0.3-1-0.3-1.3C115.5,57.1,115.8,57.1,115.8,57.8L115.8,57.8z"/>
	<path class="st0" d="M116.1,61.3c0,0.3-0.3,0.3-0.3,0.6h-1.3c-0.3-1,0.3-1.9,1.3-2.2C115.8,60.3,117.1,61,116.1,61.3L116.1,61.3z"
		/>
	<path class="st0" d="M90.5,94.6c-1.6,0.3-2.9,1-4.5,1l-0.6-31.3c1.6-1,3.8-1,5.4-1.6l-0.3,23.5V94.6L90.5,94.6z"/>
	<path class="st0" d="M115.2,64.5c0,0.3-0.6,0.6-1,0.3c0-0.3-1-0.6-0.3-1C114.5,63.9,114.8,64.2,115.2,64.5L115.2,64.5z"/>
	<path class="st0" d="M0.7,66.7C2.6,76,9.3,83.3,11.6,92.6c0.6,1.6,1,3.5,1.9,5.1c0.6-2.6,0.3-5.4,0.6-8.3
		c0.6-6.4,1.9-12.8,5.8-18.2c1.9,11.5-5.1,20.1-4.8,31.3L5.5,90.1C1,83.4-1.2,75,0.7,66.7L0.7,66.7L0.7,66.7z"/>
	<path class="st0" d="M83.2,68v4.8c-1.3-1-2.6-2.2-2.6-3.8c0-0.6,0-1.3,0.6-1.9C81.9,67.4,82.5,67.7,83.2,68L83.2,68z"/>
	<path class="st0" d="M173.4,84.6l-3.2,5.8l-7.4,10.2l-2.6,4.5c0.6-12.1-6.1-22.4-4.2-34.9c4.2,8.6,7,17.9,6.1,28.1
		c1.3-1.3,1.3-2.6,1.9-3.8l4.5-10.2c2.2-5.1,4.5-10.6,6.4-16C176.9,73.8,175,79.5,173.4,84.6L173.4,84.6z"/>
	<path class="st0" d="M100.8,83.4c2.6,1.9,3.5,5.1,2.9,8.6c-0.6,2.6-2.2,5.4-4.8,6.7c-3.5,1.6-7.4,2.2-11.2,3.5
		c-1.3,1-3.5,1.9-3.5,3.8v5.8c-2.2-0.6-3.8-2.9-4.2-5.1c-0.6-2.6,0-5.4,2.2-7c4.8-3.5,11.2-2.9,15-7.7c0.6-1,0.3-2.6-0.3-3.5
		c-1-1.3-2.2-1.6-3.5-2.6v-5.8C96.3,80.5,98.5,81.8,100.8,83.4L100.8,83.4z"/>
	<path class="st0" d="M60.8,85.9c-0.6,0-1.3-0.3-1.3-1c0.3-0.6,0.3-1.6,0.6-2.2C61.4,83,60.5,85,60.8,85.9L60.8,85.9z"/>
	<path class="st0" d="M83.5,87.5c-0.3,0,0,1-0.6,0.6c-0.3-0.3-0.6-0.6-0.3-1C82.9,86.9,83.5,86.9,83.5,87.5L83.5,87.5z"/>
	<path class="st0" d="M60.8,89.8c-0.6,0.3-1-0.3-1-0.6c0-0.6,0.3-1,0.6-1.6C61.1,88.2,60.5,89.1,60.8,89.8L60.8,89.8z"/>
	<path class="st0" d="M94.4,89.8c0.3,0.6,0.3,1.3,0.3,1.9c-0.6,0.6-1.3,1-2.2,1c-0.3-1,1.6-1.6,1-2.9C93.7,90.1,94.1,89.8,94.4,89.8
		L94.4,89.8z"/>
	<path class="st0" d="M155.1,117.3c3.2-2.6,4.2-6.1,6.4-9l7-8.3c1.6-2.2,3.2-3.8,4.8-6.1c-1.3,11.8-10.6,21.1-20.1,28.5l-2.9,2.9
		c2.9-7,3.2-16.3,1.6-24c-0.3-3.5,1-7,1.9-10.2C155.4,99,157.7,108.9,155.1,117.3L155.1,117.3z"/>
	<path class="st0" d="M12.5,106.4c2.2,3.2,4.5,6.4,7,9.6c-0.3-8-1.6-17.3,1.3-24.6c1.6,2.2,1.6,5.1,2.2,7.7l0.3,3.8v15.3
		c0,1.9,1,3.5,1.3,5.4l-9.6-7.4c-7.7-7-13.1-15-14.4-24.9L12.5,106.4L12.5,106.4z"/>
	<path class="st0" d="M83.5,95.2c0,0.3-0.3,0.6-0.6,0.3c0.3-0.6,0.3-1.6,1-2.2C84.1,93.9,83.8,94.6,83.5,95.2L83.5,95.2z"/>
	<path class="st0" d="M82.2,96.2l-0.3,0.3c-0.3-0.3,0-1.3-0.3-1.6C82.2,94.9,81.9,95.8,82.2,96.2L82.2,96.2z"/>
	<path class="st0" d="M32.7,98.1c0.3,0.6,0,1.3-0.3,1.9c-0.3-0.6-1-1-0.6-1.9C31.7,97.4,32.7,97.8,32.7,98.1L32.7,98.1z"/>
	<path class="st0" d="M89.9,137.4c-0.6,0.6-0.3,1-1,1.3c-1,0.6-1.6-0.6-1.9-1.3l-0.3-21.1l-0.3-10.6c1-1,2.6-1,3.8-1.6v10.2
		L89.9,137.4L89.9,137.4z"/>
	<path class="st0" d="M142.3,132.9c-0.3,1-1,1.6-1,2.2c9.9-5.8,19.5-12.5,28.5-20.1c-4.8,16.3-22.7,19.5-35.2,25.9
		c7.4-9.6,5.8-23,13.4-32.6C147.8,117.3,146.5,125.9,142.3,132.9L142.3,132.9z"/>
	<path class="st0" d="M31.1,116c2.9,8,3.5,16.9,8.3,24c-9.3-3.8-19.5-6.4-27.2-14.4c-2.9-3.2-5.1-6.4-6.4-10.2
		c0.3-0.3,0.6,0,0.6,0.3c7,6.4,15,9.3,22.1,15.3c1.9,1.3,3.2,3.2,5.1,3.8c-1-3.5-3.2-6.7-4.5-10.2c-1.6-4.8-2.9-10.2-2.2-16
		C28.8,110.5,29.8,113.4,31.1,116L31.1,116z"/>
	<path class="st0" d="M82.9,114.1c-0.3,0.3-1,0.3-1.3,0l-0.3-0.6H81c-0.6-1-1-1.9-1-2.9C80.6,111.8,82.2,112.8,82.9,114.1
		L82.9,114.1z"/>
	<path class="st0" d="M82.5,16.2c-14.7,1.3-27.2,7.7-38,18.5l7.4,7c8.3-8.3,18.2-12.5,28.8-15.7l1.9-0.6v6.4c-4.2,2.2-7,7.4-11.2,9
		c-2.2,1.6-4.8,3.2-7.4,4.5c-1-0.6-1.9,0.3-2.6,1l-1.3,2.9c-0.3-0.6,0-1.3,0.3-1.9c-0.6,0-1.6,0.3-2.2,0.3c1.6-1,4.2-1.6,3.8-3.8
		c0.3-3.5,2.6-6.4,3.8-9.6c0-0.3,0.3-0.6,0.3-0.6l0,0c-4.8,2.2-9,5.8-13.1,9.6c1,1.3,2.2,2.2,3.2,3.5l-0.6,0.6L52.5,44
		c-9,9.3-13.1,21.1-13.4,33.9H49c0-10.6,3.8-19.5,10.6-27.2l-0.3-0.3l0.3-0.6l0.6,0.3c6.4-6.7,14.1-10.2,22.7-11.8v1.9
		c-8.3,1.3-15.3,4.8-21.7,11.2l8.6,8.6c1.6-1.9,3.5-2.9,5.4-4.2c0.6,0.6,0,1.6-0.6,1.9c-5.1,3.2-8.3,8.3-9.9,13.7
		c0.6,0.3,1-1.6,2.2-1.3c0.6,0,0-1,1-0.6c0.3,0.6,0.3,2.2,0.3,3.2c0.6,4.2,3.8,8.6,8,10.6l2.2,0.6c-0.3,0.3-1.6,0.6-1.6,1.6
		c0,0.3-0.3,0.6-0.3,1c0.6,0.6-0.6,1.6,0,2.2c1-0.6,2.6-1.6,2.6-2.9c1-1.3,2.2-1.6,3.5-1.9c0.3,0.3,0.6,0.3,1,1
		c0,0.3-0.3,0.3-0.6,0.6l-2.6,2.2l-0.6-0.3l-9,9c2.2,2.6,5.1,3.8,8,5.1c-0.3,0.3-0.3,1.3-0.6,1c-2.9-1.3-5.8-2.9-8-5.4
		c-2.6,2.6-4.8,4.8-7.4,7.4c1,0.6,1,2.9,2.6,3.2c1,0.6,1,1.3,1,2.2c5.4,3.8,11.5,6.4,17.9,7v1.3c-6.7-0.3-13.1-2.9-18.9-6.7
		c-2.9-1-4.5,1.9-7.4,1.6c-1-0.3-2.2-0.6-3.5-0.3l-1.3,1.3c8.6,9,19.2,13.4,31,14.4l-0.3,1.6c-11.5-1-22.1-5.4-30.7-13.7l-1.3-1
		l-7,7c11.2,11.8,24.9,17.9,40.6,18.9c17.3,0,32.3-5.8,44.8-17.6c0-0.3,0.3-0.6,0.3-0.6l-7.4-7.4c-3.8,3.8-8.6,7-13.4,9.6
		c-2.2,1.3-3.8,3.2-6.4,3.8l-1-1c-3.2,0.6-6.4,1.6-9.6,1.9l-0.3-1.6c2.2-0.3,4.8-0.6,7-1.3c0-1.3-1.9-1.9-2.9-2.6
		c-1-1-1.9-2.2-1.3-3.8c1.3,1.6,2.2,3.8,4.2,4.2c2.2-1.9,1-5.4,1-8c-0.6-0.6-1.6,0-2.2,0c0.6,0.6,0.6,1.9,1,2.9
		c0.3,0.6,0,1.3,0.3,1.9c-1-0.3-1.6-1.6-2.2-2.6c-0.6-0.6-1-1.6-1.9-1.6l-2.2,0.6v-1.6c0.3,0,0.6,0,1.3-0.3c-2.6,0-1-2.6-1.3-3.8
		c1.6,0.6,3.2,1.9,4.2,3.2c0.6-0.3,1.9-0.3,1.6-1c-1.6-1.9-3.5-3.5-5.8-4.5v-6.7c5.1-1.6,10.6-3.8,12.8-9.3c1-4.2,0.6-9-2.6-11.8
		c-2.9-2.6-6.4-4.2-9.9-5.1V65.1c0.6-0.3,1.3-0.6,1.9-1c1,1.3-1.3,3.2,1,3.8c1.3,0,1.3-1.3,1.6-1.9c0-0.6,0.6-1.6,1.3-1.9
		c1.3,0,1.6-1.9,3.2-1.3L114.4,51c-0.6-0.6,0.3-1.6,0.3-2.2l1.3,1c0.3-1.3,3.5-2.2,1.6-3.8c-0.3-0.3-0.6-0.6-1-1
		c1.3-3.8,1-8.3-1-11.5c0-0.3,0.3-0.6,0.6-1c1.3,1,2.6,2.6,4.5,2.2c1,1.3,2.6,2.6,2.2,4.5c0.3,0.6,1,1.3,1.9,1.3l6.4-6.4
		c-9.9-10.9-22.4-16-36.1-17.9v-2.9c22.1,1.9,44.8,19.8,52.4,41.2c9.9,25.9,2.2,55.3-18.5,73.9c-11.2,9.3-23.7,14.7-38.7,15
		c-16.6,0.6-31-4.5-43.2-14.7c-20.5-17.9-28.5-46.4-18.9-71.9c5.4-17.9,22.7-35.5,40.6-40.6c4.5-1.6,9-2.6,13.7-3.2V16.2L82.5,16.2z
		 M70.1,34.1c-0.6,0.3-1,0.6-1,1.3c0.3,0.3,0.3,1.3,1.3,1c0.6-0.3,1.3-0.6,1-1.3C71,34.4,70.4,33.8,70.1,34.1L70.1,34.1z
		 M132.1,34.8l-6.4,6.4l1.6,1.9c1.6,1.3,1.6,4.2,4.2,4.5c0.6,2.9,3.5,4.8,5.1,7.4c1,1.9-1.6,1.3-2.2,2.6c2.9,6.1,4.5,13.1,4.2,20.5
		h10.2C148.4,61.6,143,46.9,132.1,34.8L132.1,34.8z M43.9,35.4C33,47.6,27.6,61.9,26.9,77.9h10.2c0.6-13.4,5.1-25.3,14.1-35.2
		C48.7,40.2,46.4,37.6,43.9,35.4L43.9,35.4z M118.7,48.5l-2.2,1.9c2.9,2.9,4.2,6.7,7.4,9c0,1.6,0.6,2.6,1,3.8
		c-0.6,0.6,0.3,1.3,0.3,1.9c0.3-0.6,0-1.9,0.6-2.2c2.2,1.3,0,3.5,0.3,5.4c1,2.9,1,6.4,1.6,9.6h9.3c0-6.7-1.3-13.1-3.8-18.9
		c-0.3,0-0.6,0.3-1,0.3c-1.3-1.3-1.9-3.2-2.9-4.8c-0.6-0.3-1.6-0.3-2.2-0.3c-0.3,0-1-1-1.3-0.6c-1-1-2.6-0.3-3.5-1
		C121.6,50.7,119.6,50.1,118.7,48.5L118.7,48.5z M69.1,60.3L60.5,52c-6.7,7.4-9.6,16-10.2,25.9h7c0.6-1,1.6-1.3,2.2-1.9
		c0.3-1.9,2.6-1.6,3.5-3.5c1.3-4.2,3.2-8.3,6.1-11.8V60.3L69.1,60.3z M114.8,52l-8,8.3c0.6,1,1.3,2.6,2.6,2.2c0,0.3-0.3,0.6-0.6,0.6
		c1,1.6,2.9,1.9,4.5,1.9c1,0.3,0.6,1.3,1,1.9c1.6,1,0,2.6,0.6,3.8c1-0.3,1.6-1.9,2.9-1.6c1.3,0.6,0.3,2.2,1,3.2
		c2.2,0.3,2.9-1.9,3.5-3.2c1,1.9-0.6,3.8-1.9,5.1c-0.6,0.3-1.3,0.3-1.9,0.6c0,1.3-1,2.6-1.9,2.9h9.3c0-1.3,0-3.2-0.3-4.5
		c-0.3,0.3-1,1.3-1.6,1c-0.3-1.9-0.3-4.8,0.3-7c-0.3-0.3-0.3-1.6-1-1.3c-0.3-2.6-3.5-3.8-3.5-6.1h1.3l-1-1.6c0,0.3,0,0.6-0.3,1
		c-1.9-0.6-1.6-2.6-2.2-4.2C116.1,54.6,116.4,52.7,114.8,52L114.8,52z M105.6,61.6h-0.3c0.6,0,0.6,0.3,1,0.3L105.6,61.6L105.6,61.6z
		 M103.6,63.5l-1.9,1.6c1,0.6,1.9,0,3.2,0.3c1,0.3-0.3,1.6,0.6,2.2c0-0.3,0.3,0,0.3,0c0.3-0.6,0-1.3-0.3-1.9c0.6-0.6,1.6-0.6,2.2-1
		c0.3-0.6-0.3-1-0.3-1.3c-1,0.3-2.2,0-2.9,0.6C104.3,64.2,103.6,64.2,103.6,63.5L103.6,63.5z M100.5,65.1c-0.3-0.3,0.6-0.6,0.6-1
		L100.5,65.1L100.5,65.1z M26.9,79.2c0.6,16.3,5.8,30.7,16.9,42.5c2.6-2.6,5.1-4.8,7.4-7.4c-1.3-1.3-2.2-2.2-3.5-3.5
		c-0.6-0.3-1.3,0-1.9-0.3c0-1.3-0.3-2.6-0.6-3.8c-1.3-1.3-3.2-1.3-4.8-1.6c-1-0.6-1.9-1.9-1.6-2.9c0.6-2.6-2.2-2.6-3.2-4.2
		c-1.3,0-1.6-1-2.2-1.6c-0.6,0.3-1.3,1-1.9,0.6c-0.3-0.6-0.3-1.9,0-2.2c1-2.2,2.9-1.3,4.5-1.3c1-0.6,1.9-1,2.9-1.3
		c-1-4.2-1.6-8.6-1.6-13.1H26.9V79.2z M48.7,79.2h-9.6c0,4.8,0.6,9,1.9,13.1c1.3,0.3,2.2,1,3.2,1.6c0-1-0.6-1.6-0.3-2.2
		c1-1,0.6-2.2,0.6-3.5c0.3-2.2,2.9-3.2,4.5-4.5L48.7,79.2L48.7,79.2z M50.3,79.2l0.6,4.5c1,0.6,1.9,1.3,3.2,1.6
		c1.3-0.6,1.9-2.2,2.2-3.8C57.3,77.6,52.5,80.2,50.3,79.2L50.3,79.2z M60.8,79.5c-1.3,0.3-1,2.2-2.6,2.6c0,1.3-0.6,2.2-1.6,3.2
		c-0.3,0.6-0.6,1.3,0,1.6c1.3,0.6,1,2.2,1,3.5c1.9,1.3,1.3,3.8,0.6,5.4c1.9,1.3,2.2,3.5,2.9,5.4c-0.6,0.3-1,1-0.6,1.9
		c0,0.6,0.6,0.6,1.3,0.6c2.2-2.6,5.1-4.8,7.4-7.4c-4.2-5.1-6.4-10.6-6.7-16.9C61.8,79.2,61.4,79.5,60.8,79.5L60.8,79.5z M115.5,79.2
		c-0.3,1.6,0.6,3.2,0.6,4.5c0,0.3,0.3,1,0.6,1c0.6,0,0.3-0.6,1-1c1.3,0,2.2,1,3.2,1.6l-0.6,1c-1.3,0.3-1.9,1.6-3.2,1.6
		c-1,1.9-3.8,1.3-4.5,3.5c-0.3,0.3-0.6,1.3-1.3,0.6c0.6,2.9-3.2,2.6-4.2,4.5c1-1.6,3.2,0,3.5-1.9c0.6-0.6,1-0.3,1.6,0
		c-0.3,1.6-0.6,3.2-0.6,4.8c-0.3,0.3-0.6,1.6-1.3,1.6c0,0,0,0.3,0.3,0.3c0.3-0.6,1-1.3,1.3-1.6c2.9,0.3,0.6,4.2,2.6,5.4
		c7-7.4,10.6-15.7,11.2-25.9H115.5L115.5,79.2z M127.3,79.2c-0.6,10.6-4.2,19.8-11.2,27.2l1.3,1.6v-0.3c0.3-0.3,1-0.3,1.3,0
		c-0.3,2.6,2.9,3.8,4.2,5.8c9-9.6,13.4-20.8,14.1-34.2L127.3,79.2L127.3,79.2L127.3,79.2z M138.5,79.2c-0.3,13.7-5.1,25.6-14.4,35.5
		l7.4,7.4l1.9-2.2c9.6-11.5,15-24.9,15.3-40.6L138.5,79.2L138.5,79.2z M63.7,79.5l0.3,2.6c0.3-0.6,0.3-1.3,0.3-2.2L63.7,79.5
		L63.7,79.5z M64.6,85.3c1,3.8,2.9,7,5.4,9.9l4.5-4.5c0-0.3-0.3-0.6-0.6-1c-2.2-0.6-1.9-3.2-4.2-4.2c-0.3,0.6-1.3,0-1.9,0.3
		C67.2,84.6,65.6,85.9,64.6,85.3L64.6,85.3z M109.1,101.3c-1,0.6-2.6,0.6-3.8,0.3l-0.3,0.6c1.6,0.6,3.2,0,4.8-0.3L109.1,101.3
		L109.1,101.3z M115.2,107.3l-2.6,2.2c0,1.3,1.3,1.9,2.2,2.6c-0.3,1.3-0.3,2.6-1.6,3.5c0.3,2.2-1.6,3.8-1,6.4
		c3.5-1.9,6.7-4.5,9.6-7.7l-2.2-2.2c0,0.6-0.3,1.3-0.6,1.6c-1.3-0.3-1.6-1.6-1.9-2.9C118.4,109.3,115.8,108.6,115.2,107.3
		L115.2,107.3z M52.8,113.1h-0.3l-0.3-0.3C52.2,112.8,52.5,113.1,52.8,113.1L52.8,113.1z"/>
	<path class="st0" d="M126.4,146.7c1,0,2.2-0.6,3.2-1c10.2-2.9,21.4-3.8,30.1-10.6l1.3-1.3c-0.3,1.6-1.3,2.9-1.9,4.5
		c-4.2,5.1-9.9,7.4-15.3,9c-7,2.6-15.7,1-23,2.6l3.2-5.1l7.4-15l6.7-7C135.9,131.3,131.1,139,126.4,146.7L126.4,146.7z"/>
	<path class="st0" d="M41.6,127.8c3.8,4.8,6.4,9.9,8.3,15.7c1.6,1.9,2.6,4.2,3.5,6.4c-0.6,0-1.6-0.3-2.2-0.6l-11.8-0.6
		c-5.4-0.3-9.9-2.6-14.7-4.2c-3.8-2.2-7.7-5.4-9.9-9.3c3.2,1.6,6.7,3.5,10.6,4.5l13.4,3.5c1.9,0,3.2,1.3,4.8,1.9
		c2.2,0.6,4.2,1.6,6.4,1.9c-5.1-7-11.2-14.1-12.1-22.7C39.1,124.9,40.7,126.2,41.6,127.8L41.6,127.8z"/>
	<path class="st0" d="M83.2,151.8c-1.6,1.3-3.5,2.2-5.1,3.5c-3.8-0.3-7.7,0.6-11.2,1.3c-10.2,2.6-23.7,5.1-32.9-1.3l-4.2-2.6
		c2.9,0.6,5.8,1.9,9.3,1.9c3.5,0.3,7.7,0.3,10.9-1l12.2-3.8C69.1,148.6,77.1,148.6,83.2,151.8L83.2,151.8z"/>
	<path class="st0" d="M130.8,154c5.4,0.3,10.6,0.3,15-1.9c-6.4,5.8-14.7,7.7-23.7,7.4c-10.2-1.9-19.8-5.8-30.7-4.2
		c-5.1,1.6-10.2,2.6-14.4,6.4c-2.2,1.6-4.5,4.2-6.7,6.4c-0.6-0.6-1.6-1.3-2.9-1.6c11.8-11.5,25.6-19.2,42.5-16.3
		C117.1,151.1,123.5,154,130.8,154L130.8,154z"/>
	<path class="st0" d="M107.8,167.1c-1,0.6-1.9,0.6-2.9,1c-3.8-3.8-7.4-7.4-11.5-10.2c1-0.6,1.9-0.3,2.9-1
		C100.1,160.1,104.6,163.3,107.8,167.1L107.8,167.1z"/>
</g>
</svg>
